<mxfile host="Electron" modified="2024-05-06T23:10:55.207Z" agent="Mozilla/5.0 (Windows NT 10.0; Win64; x64) AppleWebKit/537.36 (KHTML, like Gecko) draw.io/24.2.5 Chrome/120.0.6099.109 Electron/28.1.0 Safari/537.36" etag="ffbSQPQiaYhXEjEfYGG0" version="24.2.5" type="device">
  <diagram name="Page-1" id="74e2e168-ea6b-b213-b513-2b3c1d86103e">
    <mxGraphModel dx="1802" dy="909" grid="1" gridSize="10" guides="1" tooltips="1" connect="1" arrows="1" fold="1" page="1" pageScale="1" pageWidth="4681" pageHeight="3300" background="none" math="0" shadow="0">
      <root>
        <mxCell id="0" />
        <mxCell id="1" parent="0" />
        <mxCell id="uO17ehAxNxv0Zf3d8ahg-2" value="" style="edgeStyle=orthogonalEdgeStyle;rounded=0;orthogonalLoop=1;jettySize=auto;html=1;exitX=0.75;exitY=1;exitDx=0;exitDy=0;entryX=0;entryY=0.25;entryDx=0;entryDy=0;fontFamily=Helvetica;fontSize=12;fontColor=default;entryPerimeter=0;" parent="1" source="uO17ehAxNxv0Zf3d8ahg-129" target="uO17ehAxNxv0Zf3d8ahg-272" edge="1">
          <mxGeometry relative="1" as="geometry" />
        </mxCell>
        <mxCell id="uO17ehAxNxv0Zf3d8ahg-3" value="" style="endArrow=none;html=1;rounded=0;entryX=0;entryY=0.5;entryDx=0;entryDy=0;exitX=1;exitY=0.5;exitDx=0;exitDy=0;fontStyle=1" parent="1" source="uO17ehAxNxv0Zf3d8ahg-45" target="uO17ehAxNxv0Zf3d8ahg-44" edge="1">
          <mxGeometry width="50" height="50" relative="1" as="geometry">
            <mxPoint x="60" y="330" as="sourcePoint" />
            <mxPoint x="380" y="380" as="targetPoint" />
          </mxGeometry>
        </mxCell>
        <mxCell id="uO17ehAxNxv0Zf3d8ahg-4" value="" style="endArrow=none;html=1;rounded=0;entryX=0;entryY=0.5;entryDx=0;entryDy=0;exitX=1;exitY=0.5;exitDx=0;exitDy=0;fontStyle=1" parent="1" source="uO17ehAxNxv0Zf3d8ahg-43" target="uO17ehAxNxv0Zf3d8ahg-42" edge="1">
          <mxGeometry width="50" height="50" relative="1" as="geometry">
            <mxPoint x="130" y="330" as="sourcePoint" />
            <mxPoint x="450" y="340" as="targetPoint" />
          </mxGeometry>
        </mxCell>
        <mxCell id="uO17ehAxNxv0Zf3d8ahg-5" value="" style="endArrow=none;html=1;rounded=0;exitX=1;exitY=0.5;exitDx=0;exitDy=0;entryX=0;entryY=0.5;entryDx=0;entryDy=0;fontStyle=1" parent="1" source="uO17ehAxNxv0Zf3d8ahg-40" target="uO17ehAxNxv0Zf3d8ahg-39" edge="1">
          <mxGeometry width="50" height="50" relative="1" as="geometry">
            <mxPoint x="200" y="330" as="sourcePoint" />
            <mxPoint x="520" y="300" as="targetPoint" />
          </mxGeometry>
        </mxCell>
        <mxCell id="uO17ehAxNxv0Zf3d8ahg-6" value="" style="endArrow=none;html=1;rounded=0;exitX=1;exitY=0.5;exitDx=0;exitDy=0;entryX=0;entryY=0.5;entryDx=0;entryDy=0;fontStyle=1" parent="1" source="uO17ehAxNxv0Zf3d8ahg-36" target="uO17ehAxNxv0Zf3d8ahg-35" edge="1">
          <mxGeometry width="50" height="50" relative="1" as="geometry">
            <mxPoint x="270" y="330" as="sourcePoint" />
            <mxPoint x="590" y="260" as="targetPoint" />
          </mxGeometry>
        </mxCell>
        <mxCell id="uO17ehAxNxv0Zf3d8ahg-7" value="" style="endArrow=none;html=1;rounded=0;exitX=1;exitY=0.5;exitDx=0;exitDy=0;entryX=0;entryY=0.5;entryDx=0;entryDy=0;fontStyle=1" parent="1" source="uO17ehAxNxv0Zf3d8ahg-31" target="uO17ehAxNxv0Zf3d8ahg-30" edge="1">
          <mxGeometry width="50" height="50" relative="1" as="geometry">
            <mxPoint x="340" y="330" as="sourcePoint" />
            <mxPoint x="660" y="220" as="targetPoint" />
          </mxGeometry>
        </mxCell>
        <mxCell id="uO17ehAxNxv0Zf3d8ahg-8" value="" style="endArrow=none;html=1;rounded=0;exitX=1;exitY=0.5;exitDx=0;exitDy=0;entryX=0;entryY=0.5;entryDx=0;entryDy=0;fontStyle=1" parent="1" source="uO17ehAxNxv0Zf3d8ahg-19" target="uO17ehAxNxv0Zf3d8ahg-25" edge="1">
          <mxGeometry width="50" height="50" relative="1" as="geometry">
            <mxPoint x="410" y="330" as="sourcePoint" />
            <mxPoint x="730" y="180" as="targetPoint" />
          </mxGeometry>
        </mxCell>
        <mxCell id="uO17ehAxNxv0Zf3d8ahg-9" value="" style="endArrow=none;html=1;rounded=0;exitX=1;exitY=0.5;exitDx=0;exitDy=0;entryX=0;entryY=0.5;entryDx=0;entryDy=0;fontStyle=1" parent="1" source="uO17ehAxNxv0Zf3d8ahg-11" target="uO17ehAxNxv0Zf3d8ahg-18" edge="1">
          <mxGeometry width="50" height="50" relative="1" as="geometry">
            <mxPoint x="480" y="330" as="sourcePoint" />
            <mxPoint x="800" y="140" as="targetPoint" />
          </mxGeometry>
        </mxCell>
        <mxCell id="uO17ehAxNxv0Zf3d8ahg-10" value="ready&lt;br&gt;拉高" style="rounded=1;whiteSpace=wrap;html=1;shadow=0;labelBackgroundColor=none;strokeWidth=1;fontFamily=Verdana;fontSize=8;align=center;" parent="1" vertex="1">
          <mxGeometry x="1139.5" y="1010" width="50" height="40" as="geometry" />
        </mxCell>
        <mxCell id="uO17ehAxNxv0Zf3d8ahg-11" value="11111111" style="rounded=1;whiteSpace=wrap;html=1;shadow=0;labelBackgroundColor=none;strokeWidth=1;fontFamily=Verdana;fontSize=8;align=center;fontStyle=1" parent="1" vertex="1">
          <mxGeometry x="240" y="130" width="60" height="20" as="geometry" />
        </mxCell>
        <mxCell id="uO17ehAxNxv0Zf3d8ahg-12" value="&lt;font color=&quot;#cc0066&quot;&gt;0&lt;/font&gt;1111111" style="rounded=1;whiteSpace=wrap;html=1;shadow=0;labelBackgroundColor=none;strokeWidth=1;fontFamily=Verdana;fontSize=8;align=center;fontStyle=1" parent="1" vertex="1">
          <mxGeometry x="310" y="130" width="60" height="20" as="geometry" />
        </mxCell>
        <mxCell id="uO17ehAxNxv0Zf3d8ahg-13" value="&lt;font color=&quot;#cc0066&quot;&gt;00&lt;/font&gt;111111" style="rounded=1;whiteSpace=wrap;html=1;shadow=0;labelBackgroundColor=none;strokeWidth=1;fontFamily=Verdana;fontSize=8;align=center;fontStyle=1" parent="1" vertex="1">
          <mxGeometry x="380" y="130" width="60" height="20" as="geometry" />
        </mxCell>
        <mxCell id="uO17ehAxNxv0Zf3d8ahg-14" value="&lt;font color=&quot;#cc0066&quot;&gt;000&lt;/font&gt;11111" style="rounded=1;whiteSpace=wrap;html=1;shadow=0;labelBackgroundColor=none;strokeWidth=1;fontFamily=Verdana;fontSize=8;align=center;fontStyle=1" parent="1" vertex="1">
          <mxGeometry x="450" y="130" width="60" height="20" as="geometry" />
        </mxCell>
        <mxCell id="uO17ehAxNxv0Zf3d8ahg-15" value="&lt;font color=&quot;#cc0066&quot;&gt;0000&lt;/font&gt;1111" style="rounded=1;whiteSpace=wrap;html=1;shadow=0;labelBackgroundColor=none;strokeWidth=1;fontFamily=Verdana;fontSize=8;align=center;fontStyle=1" parent="1" vertex="1">
          <mxGeometry x="520" y="130" width="60" height="20" as="geometry" />
        </mxCell>
        <mxCell id="uO17ehAxNxv0Zf3d8ahg-16" value="&lt;font color=&quot;#cc0066&quot;&gt;00000&lt;/font&gt;111" style="rounded=1;whiteSpace=wrap;html=1;shadow=0;labelBackgroundColor=none;strokeWidth=1;fontFamily=Verdana;fontSize=8;align=center;fontStyle=1" parent="1" vertex="1">
          <mxGeometry x="590" y="130" width="60" height="20" as="geometry" />
        </mxCell>
        <mxCell id="uO17ehAxNxv0Zf3d8ahg-17" value="&lt;font color=&quot;#cc0066&quot;&gt;000000&lt;/font&gt;11" style="rounded=1;whiteSpace=wrap;html=1;shadow=0;labelBackgroundColor=none;strokeWidth=1;fontFamily=Verdana;fontSize=8;align=center;fontStyle=1" parent="1" vertex="1">
          <mxGeometry x="660" y="130" width="60" height="20" as="geometry" />
        </mxCell>
        <mxCell id="uO17ehAxNxv0Zf3d8ahg-18" value="&lt;font color=&quot;#cc0066&quot;&gt;0000000&lt;/font&gt;1" style="rounded=1;whiteSpace=wrap;html=1;shadow=0;labelBackgroundColor=none;strokeWidth=1;fontFamily=Verdana;fontSize=8;align=center;fontStyle=1" parent="1" vertex="1">
          <mxGeometry x="730" y="130" width="60" height="20" as="geometry" />
        </mxCell>
        <mxCell id="uO17ehAxNxv0Zf3d8ahg-19" value="1111111&lt;font color=&quot;#0066cc&quot;&gt;0&lt;/font&gt;" style="rounded=1;whiteSpace=wrap;html=1;shadow=0;labelBackgroundColor=none;strokeWidth=1;fontFamily=Verdana;fontSize=8;align=center;fontStyle=1" parent="1" vertex="1">
          <mxGeometry x="240" y="170" width="60" height="20" as="geometry" />
        </mxCell>
        <mxCell id="uO17ehAxNxv0Zf3d8ahg-20" value="01111110" style="rounded=1;whiteSpace=wrap;html=1;shadow=0;labelBackgroundColor=none;strokeWidth=1;fontFamily=Verdana;fontSize=8;align=center;fontStyle=1" parent="1" vertex="1">
          <mxGeometry x="310" y="170" width="60" height="20" as="geometry" />
        </mxCell>
        <mxCell id="uO17ehAxNxv0Zf3d8ahg-21" value="00111110" style="rounded=1;whiteSpace=wrap;html=1;shadow=0;labelBackgroundColor=none;strokeWidth=1;fontFamily=Verdana;fontSize=8;align=center;fontStyle=1" parent="1" vertex="1">
          <mxGeometry x="380" y="170" width="60" height="20" as="geometry" />
        </mxCell>
        <mxCell id="uO17ehAxNxv0Zf3d8ahg-22" value="00011110" style="rounded=1;whiteSpace=wrap;html=1;shadow=0;labelBackgroundColor=none;strokeWidth=1;fontFamily=Verdana;fontSize=8;align=center;fontStyle=1" parent="1" vertex="1">
          <mxGeometry x="450" y="170" width="60" height="20" as="geometry" />
        </mxCell>
        <mxCell id="uO17ehAxNxv0Zf3d8ahg-23" value="00001110" style="rounded=1;whiteSpace=wrap;html=1;shadow=0;labelBackgroundColor=none;strokeWidth=1;fontFamily=Verdana;fontSize=8;align=center;fontStyle=1" parent="1" vertex="1">
          <mxGeometry x="520" y="170" width="60" height="20" as="geometry" />
        </mxCell>
        <mxCell id="uO17ehAxNxv0Zf3d8ahg-24" value="00000110" style="rounded=1;whiteSpace=wrap;html=1;shadow=0;labelBackgroundColor=none;strokeWidth=1;fontFamily=Verdana;fontSize=8;align=center;fontStyle=1" parent="1" vertex="1">
          <mxGeometry x="590" y="170" width="60" height="20" as="geometry" />
        </mxCell>
        <mxCell id="uO17ehAxNxv0Zf3d8ahg-25" value="00000010" style="rounded=1;whiteSpace=wrap;html=1;shadow=0;labelBackgroundColor=none;strokeWidth=1;fontFamily=Verdana;fontSize=8;align=center;fontStyle=1" parent="1" vertex="1">
          <mxGeometry x="660" y="170" width="60" height="20" as="geometry" />
        </mxCell>
        <mxCell id="uO17ehAxNxv0Zf3d8ahg-26" value="01111100" style="rounded=1;whiteSpace=wrap;html=1;shadow=0;labelBackgroundColor=none;strokeWidth=1;fontFamily=Verdana;fontSize=8;align=center;fontStyle=1" parent="1" vertex="1">
          <mxGeometry x="310" y="210" width="60" height="20" as="geometry" />
        </mxCell>
        <mxCell id="uO17ehAxNxv0Zf3d8ahg-27" value="00111100" style="rounded=1;whiteSpace=wrap;html=1;shadow=0;labelBackgroundColor=none;strokeWidth=1;fontFamily=Verdana;fontSize=8;align=center;fontStyle=1" parent="1" vertex="1">
          <mxGeometry x="380" y="210" width="60" height="20" as="geometry" />
        </mxCell>
        <mxCell id="uO17ehAxNxv0Zf3d8ahg-28" value="00011100" style="rounded=1;whiteSpace=wrap;html=1;shadow=0;labelBackgroundColor=none;strokeWidth=1;fontFamily=Verdana;fontSize=8;align=center;fontStyle=1" parent="1" vertex="1">
          <mxGeometry x="450" y="210" width="60" height="20" as="geometry" />
        </mxCell>
        <mxCell id="uO17ehAxNxv0Zf3d8ahg-29" value="00001100" style="rounded=1;whiteSpace=wrap;html=1;shadow=0;labelBackgroundColor=none;strokeWidth=1;fontFamily=Verdana;fontSize=8;align=center;fontStyle=1" parent="1" vertex="1">
          <mxGeometry x="520" y="210" width="60" height="20" as="geometry" />
        </mxCell>
        <mxCell id="uO17ehAxNxv0Zf3d8ahg-30" value="00000100" style="rounded=1;whiteSpace=wrap;html=1;shadow=0;labelBackgroundColor=none;strokeWidth=1;fontFamily=Verdana;fontSize=8;align=center;fontStyle=1" parent="1" vertex="1">
          <mxGeometry x="590" y="210" width="60" height="20" as="geometry" />
        </mxCell>
        <mxCell id="uO17ehAxNxv0Zf3d8ahg-31" value="111111&lt;font color=&quot;#0066cc&quot;&gt;00&lt;/font&gt;" style="rounded=1;whiteSpace=wrap;html=1;shadow=0;labelBackgroundColor=none;strokeWidth=1;fontFamily=Verdana;fontSize=8;align=center;fontStyle=1" parent="1" vertex="1">
          <mxGeometry x="240" y="210" width="60" height="20" as="geometry" />
        </mxCell>
        <mxCell id="uO17ehAxNxv0Zf3d8ahg-32" value="01111000" style="rounded=1;whiteSpace=wrap;html=1;shadow=0;labelBackgroundColor=none;strokeWidth=1;fontFamily=Verdana;fontSize=8;align=center;fontStyle=1" parent="1" vertex="1">
          <mxGeometry x="310" y="250" width="60" height="20" as="geometry" />
        </mxCell>
        <mxCell id="uO17ehAxNxv0Zf3d8ahg-33" value="00111000" style="rounded=1;whiteSpace=wrap;html=1;shadow=0;labelBackgroundColor=none;strokeWidth=1;fontFamily=Verdana;fontSize=8;align=center;fontStyle=1" parent="1" vertex="1">
          <mxGeometry x="380" y="250" width="60" height="20" as="geometry" />
        </mxCell>
        <mxCell id="uO17ehAxNxv0Zf3d8ahg-34" value="00011000" style="rounded=1;whiteSpace=wrap;html=1;shadow=0;labelBackgroundColor=none;strokeWidth=1;fontFamily=Verdana;fontSize=8;align=center;fontStyle=1" parent="1" vertex="1">
          <mxGeometry x="450" y="250" width="60" height="20" as="geometry" />
        </mxCell>
        <mxCell id="uO17ehAxNxv0Zf3d8ahg-35" value="00001000" style="rounded=1;whiteSpace=wrap;html=1;shadow=0;labelBackgroundColor=none;strokeWidth=1;fontFamily=Verdana;fontSize=8;align=center;fontStyle=1" parent="1" vertex="1">
          <mxGeometry x="520" y="250" width="60" height="20" as="geometry" />
        </mxCell>
        <mxCell id="uO17ehAxNxv0Zf3d8ahg-36" value="11111&lt;font color=&quot;#0066cc&quot;&gt;000&lt;/font&gt;" style="rounded=1;whiteSpace=wrap;html=1;shadow=0;labelBackgroundColor=none;strokeWidth=1;fontFamily=Verdana;fontSize=8;align=center;fontStyle=1" parent="1" vertex="1">
          <mxGeometry x="240" y="250" width="60" height="20" as="geometry" />
        </mxCell>
        <mxCell id="uO17ehAxNxv0Zf3d8ahg-37" value="01110000" style="rounded=1;whiteSpace=wrap;html=1;shadow=0;labelBackgroundColor=none;strokeWidth=1;fontFamily=Verdana;fontSize=8;align=center;fontStyle=1" parent="1" vertex="1">
          <mxGeometry x="310" y="290" width="60" height="20" as="geometry" />
        </mxCell>
        <mxCell id="uO17ehAxNxv0Zf3d8ahg-38" value="00110000" style="rounded=1;whiteSpace=wrap;html=1;shadow=0;labelBackgroundColor=none;strokeWidth=1;fontFamily=Verdana;fontSize=8;align=center;fontStyle=1" parent="1" vertex="1">
          <mxGeometry x="380" y="290" width="60" height="20" as="geometry" />
        </mxCell>
        <mxCell id="uO17ehAxNxv0Zf3d8ahg-39" value="00010000" style="rounded=1;whiteSpace=wrap;html=1;shadow=0;labelBackgroundColor=none;strokeWidth=1;fontFamily=Verdana;fontSize=8;align=center;fontStyle=1" parent="1" vertex="1">
          <mxGeometry x="450" y="290" width="60" height="20" as="geometry" />
        </mxCell>
        <mxCell id="uO17ehAxNxv0Zf3d8ahg-40" value="1111&lt;font color=&quot;#0066cc&quot;&gt;0000&lt;/font&gt;" style="rounded=1;whiteSpace=wrap;html=1;shadow=0;labelBackgroundColor=none;strokeWidth=1;fontFamily=Verdana;fontSize=8;align=center;fontStyle=1" parent="1" vertex="1">
          <mxGeometry x="240" y="290" width="60" height="20" as="geometry" />
        </mxCell>
        <mxCell id="uO17ehAxNxv0Zf3d8ahg-41" value="01100000" style="rounded=1;whiteSpace=wrap;html=1;shadow=0;labelBackgroundColor=none;strokeWidth=1;fontFamily=Verdana;fontSize=8;align=center;fontStyle=1" parent="1" vertex="1">
          <mxGeometry x="310" y="330" width="60" height="20" as="geometry" />
        </mxCell>
        <mxCell id="uO17ehAxNxv0Zf3d8ahg-42" value="00100000" style="rounded=1;whiteSpace=wrap;html=1;shadow=0;labelBackgroundColor=none;strokeWidth=1;fontFamily=Verdana;fontSize=8;align=center;fontStyle=1" parent="1" vertex="1">
          <mxGeometry x="380" y="330" width="60" height="20" as="geometry" />
        </mxCell>
        <mxCell id="uO17ehAxNxv0Zf3d8ahg-43" value="111&lt;font color=&quot;#0066cc&quot;&gt;00000&lt;/font&gt;" style="rounded=1;whiteSpace=wrap;html=1;shadow=0;labelBackgroundColor=none;strokeWidth=1;fontFamily=Verdana;fontSize=8;align=center;fontStyle=1" parent="1" vertex="1">
          <mxGeometry x="240" y="330" width="60" height="20" as="geometry" />
        </mxCell>
        <mxCell id="uO17ehAxNxv0Zf3d8ahg-44" value="01000000" style="rounded=1;whiteSpace=wrap;html=1;shadow=0;labelBackgroundColor=none;strokeWidth=1;fontFamily=Verdana;fontSize=8;align=center;fontStyle=1" parent="1" vertex="1">
          <mxGeometry x="310" y="370" width="60" height="20" as="geometry" />
        </mxCell>
        <mxCell id="uO17ehAxNxv0Zf3d8ahg-45" value="11&lt;font color=&quot;#0066cc&quot;&gt;000000&lt;/font&gt;" style="rounded=1;whiteSpace=wrap;html=1;shadow=0;labelBackgroundColor=none;strokeWidth=1;fontFamily=Verdana;fontSize=8;align=center;fontStyle=1" parent="1" vertex="1">
          <mxGeometry x="240" y="370" width="60" height="20" as="geometry" />
        </mxCell>
        <mxCell id="uO17ehAxNxv0Zf3d8ahg-46" style="edgeStyle=orthogonalEdgeStyle;rounded=0;orthogonalLoop=1;jettySize=auto;html=1;exitX=1;exitY=0.5;exitDx=0;exitDy=0;entryX=0;entryY=0.5;entryDx=0;entryDy=0;" parent="1" source="uO17ehAxNxv0Zf3d8ahg-87" target="uO17ehAxNxv0Zf3d8ahg-11" edge="1">
          <mxGeometry relative="1" as="geometry">
            <Array as="points">
              <mxPoint x="830" y="420" />
              <mxPoint x="830" y="120" />
              <mxPoint x="220" y="120" />
              <mxPoint x="220" y="140" />
            </Array>
          </mxGeometry>
        </mxCell>
        <mxCell id="uO17ehAxNxv0Zf3d8ahg-47" value="" style="endArrow=classic;html=1;rounded=0;exitX=1;exitY=0.5;exitDx=0;exitDy=0;entryX=0;entryY=0.5;entryDx=0;entryDy=0;fontStyle=1" parent="1" source="uO17ehAxNxv0Zf3d8ahg-18" target="uO17ehAxNxv0Zf3d8ahg-19" edge="1">
          <mxGeometry width="50" height="50" relative="1" as="geometry">
            <mxPoint x="860" y="140" as="sourcePoint" />
            <mxPoint x="530" y="230" as="targetPoint" />
            <Array as="points">
              <mxPoint x="810" y="140" />
              <mxPoint x="810" y="160" />
              <mxPoint x="220" y="160" />
              <mxPoint x="220" y="180" />
            </Array>
          </mxGeometry>
        </mxCell>
        <mxCell id="uO17ehAxNxv0Zf3d8ahg-48" value="" style="endArrow=classic;html=1;rounded=0;entryX=0;entryY=0.5;entryDx=0;entryDy=0;exitX=1;exitY=0.5;exitDx=0;exitDy=0;fontStyle=1" parent="1" source="uO17ehAxNxv0Zf3d8ahg-25" target="uO17ehAxNxv0Zf3d8ahg-31" edge="1">
          <mxGeometry width="50" height="50" relative="1" as="geometry">
            <mxPoint x="860" y="180" as="sourcePoint" />
            <mxPoint x="310" y="220" as="targetPoint" />
            <Array as="points">
              <mxPoint x="740" y="180" />
              <mxPoint x="740" y="200" />
              <mxPoint x="220" y="200" />
              <mxPoint x="220" y="220" />
            </Array>
          </mxGeometry>
        </mxCell>
        <mxCell id="uO17ehAxNxv0Zf3d8ahg-49" value="" style="endArrow=classic;html=1;rounded=0;exitX=1;exitY=0.5;exitDx=0;exitDy=0;entryX=0;entryY=0.5;entryDx=0;entryDy=0;fontStyle=1" parent="1" source="uO17ehAxNxv0Zf3d8ahg-30" target="uO17ehAxNxv0Zf3d8ahg-36" edge="1">
          <mxGeometry width="50" height="50" relative="1" as="geometry">
            <mxPoint x="860" y="220" as="sourcePoint" />
            <mxPoint x="530" y="230" as="targetPoint" />
            <Array as="points">
              <mxPoint x="670" y="220" />
              <mxPoint x="670" y="240" />
              <mxPoint x="220" y="240" />
              <mxPoint x="220" y="260" />
            </Array>
          </mxGeometry>
        </mxCell>
        <mxCell id="uO17ehAxNxv0Zf3d8ahg-50" value="" style="endArrow=classic;html=1;rounded=0;entryX=0;entryY=0.5;entryDx=0;entryDy=0;exitX=1;exitY=0.5;exitDx=0;exitDy=0;fontStyle=1" parent="1" source="uO17ehAxNxv0Zf3d8ahg-44" target="uO17ehAxNxv0Zf3d8ahg-87" edge="1">
          <mxGeometry width="50" height="50" relative="1" as="geometry">
            <mxPoint x="860" y="380" as="sourcePoint" />
            <mxPoint x="530" y="230" as="targetPoint" />
            <Array as="points">
              <mxPoint x="390" y="380" />
              <mxPoint x="390" y="400" />
              <mxPoint x="220" y="400" />
              <mxPoint x="220" y="420" />
            </Array>
          </mxGeometry>
        </mxCell>
        <mxCell id="uO17ehAxNxv0Zf3d8ahg-51" value="" style="endArrow=classic;html=1;rounded=0;entryX=0;entryY=0.5;entryDx=0;entryDy=0;exitX=1;exitY=0.5;exitDx=0;exitDy=0;fontStyle=1" parent="1" source="uO17ehAxNxv0Zf3d8ahg-42" target="uO17ehAxNxv0Zf3d8ahg-45" edge="1">
          <mxGeometry width="50" height="50" relative="1" as="geometry">
            <mxPoint x="860" y="340" as="sourcePoint" />
            <mxPoint x="530" y="230" as="targetPoint" />
            <Array as="points">
              <mxPoint x="460" y="340" />
              <mxPoint x="460" y="360" />
              <mxPoint x="220" y="360" />
              <mxPoint x="220" y="380" />
            </Array>
          </mxGeometry>
        </mxCell>
        <mxCell id="uO17ehAxNxv0Zf3d8ahg-52" value="" style="endArrow=classic;html=1;rounded=0;entryX=0;entryY=0.5;entryDx=0;entryDy=0;exitX=1;exitY=0.5;exitDx=0;exitDy=0;fontStyle=1" parent="1" source="uO17ehAxNxv0Zf3d8ahg-39" target="uO17ehAxNxv0Zf3d8ahg-43" edge="1">
          <mxGeometry width="50" height="50" relative="1" as="geometry">
            <mxPoint x="860" y="300" as="sourcePoint" />
            <mxPoint x="530" y="230" as="targetPoint" />
            <Array as="points">
              <mxPoint x="530" y="300" />
              <mxPoint x="530" y="320" />
              <mxPoint x="220" y="320" />
              <mxPoint x="220" y="340" />
            </Array>
          </mxGeometry>
        </mxCell>
        <mxCell id="uO17ehAxNxv0Zf3d8ahg-53" value="" style="endArrow=classic;html=1;rounded=0;entryX=0;entryY=0.5;entryDx=0;entryDy=0;exitX=1;exitY=0.5;exitDx=0;exitDy=0;fontStyle=1" parent="1" source="uO17ehAxNxv0Zf3d8ahg-35" target="uO17ehAxNxv0Zf3d8ahg-40" edge="1">
          <mxGeometry width="50" height="50" relative="1" as="geometry">
            <mxPoint x="860" y="260" as="sourcePoint" />
            <mxPoint x="530" y="230" as="targetPoint" />
            <Array as="points">
              <mxPoint x="600" y="260" />
              <mxPoint x="600" y="280" />
              <mxPoint x="220" y="280" />
              <mxPoint x="220" y="300" />
            </Array>
          </mxGeometry>
        </mxCell>
        <mxCell id="uO17ehAxNxv0Zf3d8ahg-54" value="0" style="rounded=1;whiteSpace=wrap;html=1;shadow=0;labelBackgroundColor=none;strokeWidth=1;fontFamily=Verdana;fontSize=8;align=center;fontStyle=1" parent="1" vertex="1">
          <mxGeometry x="170" y="130" width="30" height="20" as="geometry" />
        </mxCell>
        <mxCell id="uO17ehAxNxv0Zf3d8ahg-55" value="1" style="rounded=1;whiteSpace=wrap;html=1;shadow=0;labelBackgroundColor=none;strokeWidth=1;fontFamily=Verdana;fontSize=8;align=center;fontStyle=1" parent="1" vertex="1">
          <mxGeometry x="170" y="170" width="30" height="20" as="geometry" />
        </mxCell>
        <mxCell id="uO17ehAxNxv0Zf3d8ahg-56" value="2" style="rounded=1;whiteSpace=wrap;html=1;shadow=0;labelBackgroundColor=none;strokeWidth=1;fontFamily=Verdana;fontSize=8;align=center;fontStyle=1" parent="1" vertex="1">
          <mxGeometry x="170" y="210" width="30" height="20" as="geometry" />
        </mxCell>
        <mxCell id="uO17ehAxNxv0Zf3d8ahg-57" value="3" style="rounded=1;whiteSpace=wrap;html=1;shadow=0;labelBackgroundColor=none;strokeWidth=1;fontFamily=Verdana;fontSize=8;align=center;fontStyle=1" parent="1" vertex="1">
          <mxGeometry x="170" y="250" width="30" height="20" as="geometry" />
        </mxCell>
        <mxCell id="uO17ehAxNxv0Zf3d8ahg-58" value="4" style="rounded=1;whiteSpace=wrap;html=1;shadow=0;labelBackgroundColor=none;strokeWidth=1;fontFamily=Verdana;fontSize=8;align=center;fontStyle=1" parent="1" vertex="1">
          <mxGeometry x="170" y="290" width="30" height="20" as="geometry" />
        </mxCell>
        <mxCell id="uO17ehAxNxv0Zf3d8ahg-59" value="5" style="rounded=1;whiteSpace=wrap;html=1;shadow=0;labelBackgroundColor=none;strokeWidth=1;fontFamily=Verdana;fontSize=8;align=center;fontStyle=1" parent="1" vertex="1">
          <mxGeometry x="170" y="330" width="30" height="20" as="geometry" />
        </mxCell>
        <mxCell id="uO17ehAxNxv0Zf3d8ahg-60" value="6" style="rounded=1;whiteSpace=wrap;html=1;shadow=0;labelBackgroundColor=none;strokeWidth=1;fontFamily=Verdana;fontSize=8;align=center;fontStyle=1" parent="1" vertex="1">
          <mxGeometry x="170" y="370" width="30" height="20" as="geometry" />
        </mxCell>
        <mxCell id="uO17ehAxNxv0Zf3d8ahg-61" value="7" style="rounded=1;whiteSpace=wrap;html=1;shadow=0;labelBackgroundColor=none;strokeWidth=1;fontFamily=Verdana;fontSize=8;align=center;fontStyle=1" parent="1" vertex="1">
          <mxGeometry x="170" y="410" width="30" height="20" as="geometry" />
        </mxCell>
        <mxCell id="uO17ehAxNxv0Zf3d8ahg-62" value="" style="endArrow=none;dashed=1;html=1;rounded=0;exitX=1;exitY=0.5;exitDx=0;exitDy=0;fontStyle=1" parent="1" source="uO17ehAxNxv0Zf3d8ahg-87" edge="1">
          <mxGeometry width="50" height="50" relative="1" as="geometry">
            <mxPoint x="210" y="419.77" as="sourcePoint" />
            <mxPoint x="710" y="420" as="targetPoint" />
          </mxGeometry>
        </mxCell>
        <mxCell id="uO17ehAxNxv0Zf3d8ahg-63" style="edgeStyle=orthogonalEdgeStyle;rounded=0;orthogonalLoop=1;jettySize=auto;html=1;exitX=1;exitY=0.5;exitDx=0;exitDy=0;exitPerimeter=0;entryX=1;entryY=0.5;entryDx=0;entryDy=0;fontFamily=Helvetica;fontSize=12;fontColor=default;" parent="1" source="uO17ehAxNxv0Zf3d8ahg-65" target="uO17ehAxNxv0Zf3d8ahg-67" edge="1">
          <mxGeometry relative="1" as="geometry" />
        </mxCell>
        <mxCell id="uO17ehAxNxv0Zf3d8ahg-64" style="edgeStyle=orthogonalEdgeStyle;rounded=0;orthogonalLoop=1;jettySize=auto;html=1;exitX=0.5;exitY=1;exitDx=0;exitDy=0;exitPerimeter=0;entryX=0.5;entryY=0;entryDx=0;entryDy=0;fontFamily=Helvetica;fontSize=12;fontColor=default;" parent="1" source="uO17ehAxNxv0Zf3d8ahg-65" target="uO17ehAxNxv0Zf3d8ahg-70" edge="1">
          <mxGeometry relative="1" as="geometry" />
        </mxCell>
        <mxCell id="uO17ehAxNxv0Zf3d8ahg-65" value="mask_e = mask_s" style="strokeWidth=1;html=1;shape=mxgraph.flowchart.decision;whiteSpace=wrap;" parent="1" vertex="1">
          <mxGeometry x="969.94" y="200" width="160" height="40" as="geometry" />
        </mxCell>
        <mxCell id="uO17ehAxNxv0Zf3d8ahg-66" value="时钟上升沿" style="strokeWidth=1;html=1;shape=mxgraph.flowchart.delay;whiteSpace=wrap;strokeColor=default;align=center;verticalAlign=middle;fontFamily=Helvetica;fontSize=12;fontColor=default;fillColor=default;" parent="1" vertex="1">
          <mxGeometry x="969.94" y="140" width="160" height="40" as="geometry" />
        </mxCell>
        <mxCell id="uO17ehAxNxv0Zf3d8ahg-67" value="wrr_mask[mask_s] &amp;lt;= 0&lt;br&gt;mask_s &amp;lt;= mask_s + 1" style="rounded=1;whiteSpace=wrap;html=1;absoluteArcSize=1;arcSize=14;strokeWidth=1;strokeColor=default;align=center;verticalAlign=middle;fontFamily=Helvetica;fontSize=12;fontColor=default;fillColor=default;" parent="1" vertex="1">
          <mxGeometry x="969.94" y="80" width="160" height="40" as="geometry" />
        </mxCell>
        <mxCell id="uO17ehAxNxv0Zf3d8ahg-68" value="" style="edgeStyle=orthogonalEdgeStyle;rounded=0;orthogonalLoop=1;jettySize=auto;html=1;fontFamily=Helvetica;fontSize=12;fontColor=default;exitX=0.5;exitY=1;exitDx=0;exitDy=0;" parent="1" source="uO17ehAxNxv0Zf3d8ahg-67" edge="1">
          <mxGeometry relative="1" as="geometry">
            <mxPoint x="1049.94" y="120" as="sourcePoint" />
            <mxPoint x="1049.94" y="140" as="targetPoint" />
          </mxGeometry>
        </mxCell>
        <mxCell id="uO17ehAxNxv0Zf3d8ahg-69" style="edgeStyle=orthogonalEdgeStyle;rounded=0;orthogonalLoop=1;jettySize=auto;html=1;exitX=0.5;exitY=1;exitDx=0;exitDy=0;exitPerimeter=0;entryX=0.5;entryY=0;entryDx=0;entryDy=0;entryPerimeter=0;fontFamily=Helvetica;fontSize=12;fontColor=default;" parent="1" source="uO17ehAxNxv0Zf3d8ahg-66" target="uO17ehAxNxv0Zf3d8ahg-65" edge="1">
          <mxGeometry relative="1" as="geometry" />
        </mxCell>
        <mxCell id="uO17ehAxNxv0Zf3d8ahg-70" value="mask_s &amp;lt;= 0&lt;br&gt;mask_e &amp;lt;= mask_e - 1" style="rounded=1;whiteSpace=wrap;html=1;absoluteArcSize=1;arcSize=14;strokeWidth=1;strokeColor=default;align=center;verticalAlign=middle;fontFamily=Helvetica;fontSize=12;fontColor=default;fillColor=default;" parent="1" vertex="1">
          <mxGeometry x="969.94" y="260" width="160" height="40" as="geometry" />
        </mxCell>
        <mxCell id="uO17ehAxNxv0Zf3d8ahg-71" style="edgeStyle=orthogonalEdgeStyle;rounded=0;orthogonalLoop=1;jettySize=auto;html=1;exitX=0.5;exitY=1;exitDx=0;exitDy=0;exitPerimeter=0;entryX=0.5;entryY=0;entryDx=0;entryDy=0;fontFamily=Helvetica;fontSize=12;fontColor=default;" parent="1" source="uO17ehAxNxv0Zf3d8ahg-73" target="uO17ehAxNxv0Zf3d8ahg-74" edge="1">
          <mxGeometry relative="1" as="geometry" />
        </mxCell>
        <mxCell id="uO17ehAxNxv0Zf3d8ahg-72" style="edgeStyle=orthogonalEdgeStyle;rounded=0;orthogonalLoop=1;jettySize=auto;html=1;exitX=0;exitY=0.5;exitDx=0;exitDy=0;exitPerimeter=0;entryX=1;entryY=0.5;entryDx=0;entryDy=0;fontFamily=Helvetica;fontSize=12;fontColor=default;" parent="1" source="uO17ehAxNxv0Zf3d8ahg-73" target="uO17ehAxNxv0Zf3d8ahg-79" edge="1">
          <mxGeometry relative="1" as="geometry" />
        </mxCell>
        <mxCell id="uO17ehAxNxv0Zf3d8ahg-73" value="mask_e = 0" style="strokeWidth=1;html=1;shape=mxgraph.flowchart.decision;whiteSpace=wrap;" parent="1" vertex="1">
          <mxGeometry x="969.94" y="320" width="160" height="40" as="geometry" />
        </mxCell>
        <mxCell id="uO17ehAxNxv0Zf3d8ahg-74" value="wrr_mask &amp;lt;= 8&#39;b11111111&lt;br&gt;mask_e &amp;lt;= 7" style="rounded=1;whiteSpace=wrap;html=1;absoluteArcSize=1;arcSize=14;strokeWidth=1;strokeColor=default;align=center;verticalAlign=middle;fontFamily=Helvetica;fontSize=12;fontColor=default;fillColor=default;" parent="1" vertex="1">
          <mxGeometry x="969.94" y="380" width="160" height="40" as="geometry" />
        </mxCell>
        <mxCell id="uO17ehAxNxv0Zf3d8ahg-75" style="edgeStyle=orthogonalEdgeStyle;rounded=0;orthogonalLoop=1;jettySize=auto;html=1;exitX=0.5;exitY=1;exitDx=0;exitDy=0;entryX=0.5;entryY=0;entryDx=0;entryDy=0;entryPerimeter=0;fontFamily=Helvetica;fontSize=12;fontColor=default;" parent="1" source="uO17ehAxNxv0Zf3d8ahg-70" target="uO17ehAxNxv0Zf3d8ahg-73" edge="1">
          <mxGeometry relative="1" as="geometry">
            <mxPoint x="1049.94" y="360" as="sourcePoint" />
          </mxGeometry>
        </mxCell>
        <mxCell id="uO17ehAxNxv0Zf3d8ahg-76" value="起始截断位&lt;br&gt;wrr_s" style="rounded=1;whiteSpace=wrap;html=1;strokeColor=none;strokeWidth=1;align=center;verticalAlign=middle;fontFamily=Helvetica;fontSize=12;fontColor=default;fillColor=none;fontStyle=1;rotation=90;" parent="1" vertex="1">
          <mxGeometry x="90" y="260" width="90" height="40" as="geometry" />
        </mxCell>
        <mxCell id="uO17ehAxNxv0Zf3d8ahg-77" value="终止截断位&lt;br&gt;wrr_e" style="rounded=1;whiteSpace=wrap;html=1;strokeColor=none;strokeWidth=1;align=center;verticalAlign=middle;fontFamily=Helvetica;fontSize=12;fontColor=default;fillColor=none;fontStyle=1" parent="1" vertex="1">
          <mxGeometry x="480" y="30" width="90" height="40" as="geometry" />
        </mxCell>
        <mxCell id="uO17ehAxNxv0Zf3d8ahg-78" style="edgeStyle=orthogonalEdgeStyle;rounded=0;orthogonalLoop=1;jettySize=auto;html=1;exitX=0;exitY=0.5;exitDx=0;exitDy=0;entryX=0;entryY=0.5;entryDx=0;entryDy=0;fontFamily=Helvetica;fontSize=12;fontColor=default;entryPerimeter=0;" parent="1" source="uO17ehAxNxv0Zf3d8ahg-74" target="uO17ehAxNxv0Zf3d8ahg-66" edge="1">
          <mxGeometry relative="1" as="geometry">
            <mxPoint x="979.9700000000003" y="350" as="sourcePoint" />
            <mxPoint x="979.9700000000003" y="170" as="targetPoint" />
            <Array as="points">
              <mxPoint x="890" y="400" />
              <mxPoint x="890" y="160" />
            </Array>
          </mxGeometry>
        </mxCell>
        <mxCell id="uO17ehAxNxv0Zf3d8ahg-79" value="wrr_mask[mask_e] &amp;lt;= 0" style="rounded=1;whiteSpace=wrap;html=1;absoluteArcSize=1;arcSize=14;strokeWidth=1;strokeColor=default;align=center;verticalAlign=middle;fontFamily=Helvetica;fontSize=12;fontColor=default;fillColor=default;rotation=90;" parent="1" vertex="1">
          <mxGeometry x="860" y="230" width="140" height="40" as="geometry" />
        </mxCell>
        <mxCell id="uO17ehAxNxv0Zf3d8ahg-80" style="edgeStyle=orthogonalEdgeStyle;rounded=0;orthogonalLoop=1;jettySize=auto;html=1;exitX=0;exitY=0.5;exitDx=0;exitDy=0;entryX=0;entryY=0.5;entryDx=0;entryDy=0;entryPerimeter=0;fontFamily=Helvetica;fontSize=12;fontColor=default;" parent="1" source="uO17ehAxNxv0Zf3d8ahg-79" target="uO17ehAxNxv0Zf3d8ahg-66" edge="1">
          <mxGeometry relative="1" as="geometry" />
        </mxCell>
        <mxCell id="uO17ehAxNxv0Zf3d8ahg-81" value="" style="group;fontStyle=1" parent="1" vertex="1" connectable="0">
          <mxGeometry x="620" y="330" width="160" height="40" as="geometry" />
        </mxCell>
        <mxCell id="uO17ehAxNxv0Zf3d8ahg-82" value="" style="group;fontStyle=1;rounded=1;" parent="uO17ehAxNxv0Zf3d8ahg-81" vertex="1" connectable="0">
          <mxGeometry width="160" height="30" as="geometry" />
        </mxCell>
        <mxCell id="uO17ehAxNxv0Zf3d8ahg-83" value="&lt;span style=&quot;color: rgb(0, 0, 0); font-family: Verdana; font-style: normal; font-variant-ligatures: normal; font-variant-caps: normal; letter-spacing: normal; orphans: 2; text-align: center; text-indent: 0px; text-transform: none; widows: 2; word-spacing: 0px; -webkit-text-stroke-width: 0px; white-space: normal; background-color: rgb(251, 251, 251); text-decoration-thickness: initial; text-decoration-style: initial; text-decoration-color: initial; float: none; display: inline !important;&quot;&gt;&lt;font style=&quot;font-size: 12px;&quot;&gt;WRR位掩码&lt;br&gt;wrr_mask&lt;/font&gt;&lt;/span&gt;" style="shape=process;whiteSpace=wrap;html=1;backgroundOutline=1;strokeColor=default;strokeWidth=1;align=center;verticalAlign=middle;fontFamily=Helvetica;fontSize=12;fontColor=default;fillColor=default;fontStyle=1;rounded=1;" parent="uO17ehAxNxv0Zf3d8ahg-82" vertex="1">
          <mxGeometry y="-10" width="160" height="40" as="geometry" />
        </mxCell>
        <mxCell id="uO17ehAxNxv0Zf3d8ahg-84" value="LSB" style="rounded=1;whiteSpace=wrap;html=1;strokeColor=default;strokeWidth=1;align=center;verticalAlign=middle;fontFamily=Helvetica;fontSize=12;fontColor=default;fillColor=default;fontStyle=1" parent="uO17ehAxNxv0Zf3d8ahg-82" vertex="1">
          <mxGeometry y="-10" width="32" height="40" as="geometry" />
        </mxCell>
        <mxCell id="uO17ehAxNxv0Zf3d8ahg-85" value="MSB" style="rounded=1;whiteSpace=wrap;html=1;strokeColor=default;strokeWidth=1;align=center;verticalAlign=middle;fontFamily=Helvetica;fontSize=12;fontColor=default;fillColor=default;fontStyle=1" parent="uO17ehAxNxv0Zf3d8ahg-82" vertex="1">
          <mxGeometry x="128" y="-10" width="32" height="40" as="geometry" />
        </mxCell>
        <mxCell id="uO17ehAxNxv0Zf3d8ahg-86" value="&lt;font style=&quot;font-size: 10px;&quot;&gt;优先&lt;span style=&quot;white-space: pre;&quot;&gt;&#x9;&lt;/span&gt;&amp;nbsp; &amp;nbsp; &amp;nbsp; &amp;nbsp; &amp;nbsp; &amp;nbsp; &amp;nbsp; &amp;nbsp; &amp;nbsp; &amp;nbsp; &amp;nbsp; &amp;nbsp; &amp;nbsp; &amp;nbsp; &amp;nbsp; &amp;nbsp; &amp;nbsp; &amp;nbsp; &amp;nbsp; 非优先&lt;/font&gt;" style="endArrow=async;html=1;rounded=0;fontFamily=Helvetica;fontSize=12;fontColor=default;verticalAlign=top;endFill=1;fontStyle=1" parent="uO17ehAxNxv0Zf3d8ahg-81" edge="1">
          <mxGeometry width="50" height="50" relative="1" as="geometry">
            <mxPoint y="40" as="sourcePoint" />
            <mxPoint x="160" y="40" as="targetPoint" />
          </mxGeometry>
        </mxCell>
        <mxCell id="uO17ehAxNxv0Zf3d8ahg-87" value="1&lt;font color=&quot;#0066cc&quot;&gt;0000000&lt;/font&gt;" style="rounded=1;whiteSpace=wrap;html=1;shadow=0;labelBackgroundColor=none;strokeWidth=1;fontFamily=Verdana;fontSize=8;align=center;fontStyle=1" parent="1" vertex="1">
          <mxGeometry x="240" y="410" width="60" height="20" as="geometry" />
        </mxCell>
        <mxCell id="uO17ehAxNxv0Zf3d8ahg-88" value="0" style="rounded=1;whiteSpace=wrap;html=1;shadow=0;labelBackgroundColor=none;strokeWidth=1;fontFamily=Verdana;fontSize=8;align=center;fontStyle=1" parent="1" vertex="1">
          <mxGeometry x="255" y="80" width="30" height="20" as="geometry" />
        </mxCell>
        <mxCell id="uO17ehAxNxv0Zf3d8ahg-89" value="1" style="rounded=1;whiteSpace=wrap;html=1;shadow=0;labelBackgroundColor=none;strokeWidth=1;fontFamily=Verdana;fontSize=8;align=center;fontStyle=1" parent="1" vertex="1">
          <mxGeometry x="325" y="80" width="30" height="20" as="geometry" />
        </mxCell>
        <mxCell id="uO17ehAxNxv0Zf3d8ahg-90" value="2" style="rounded=1;whiteSpace=wrap;html=1;shadow=0;labelBackgroundColor=none;strokeWidth=1;fontFamily=Verdana;fontSize=8;align=center;fontStyle=1" parent="1" vertex="1">
          <mxGeometry x="395" y="80" width="30" height="20" as="geometry" />
        </mxCell>
        <mxCell id="uO17ehAxNxv0Zf3d8ahg-91" value="3" style="rounded=1;whiteSpace=wrap;html=1;shadow=0;labelBackgroundColor=none;strokeWidth=1;fontFamily=Verdana;fontSize=8;align=center;fontStyle=1" parent="1" vertex="1">
          <mxGeometry x="465" y="80" width="30" height="20" as="geometry" />
        </mxCell>
        <mxCell id="uO17ehAxNxv0Zf3d8ahg-92" value="4" style="rounded=1;whiteSpace=wrap;html=1;shadow=0;labelBackgroundColor=none;strokeWidth=1;fontFamily=Verdana;fontSize=8;align=center;fontStyle=1" parent="1" vertex="1">
          <mxGeometry x="535" y="80" width="30" height="20" as="geometry" />
        </mxCell>
        <mxCell id="uO17ehAxNxv0Zf3d8ahg-93" value="5" style="rounded=1;whiteSpace=wrap;html=1;shadow=0;labelBackgroundColor=none;strokeWidth=1;fontFamily=Verdana;fontSize=8;align=center;fontStyle=1" parent="1" vertex="1">
          <mxGeometry x="605" y="80" width="30" height="20" as="geometry" />
        </mxCell>
        <mxCell id="uO17ehAxNxv0Zf3d8ahg-94" value="6" style="rounded=1;whiteSpace=wrap;html=1;shadow=0;labelBackgroundColor=none;strokeWidth=1;fontFamily=Verdana;fontSize=8;align=center;fontStyle=1" parent="1" vertex="1">
          <mxGeometry x="675" y="80" width="30" height="20" as="geometry" />
        </mxCell>
        <mxCell id="uO17ehAxNxv0Zf3d8ahg-95" value="7" style="rounded=1;whiteSpace=wrap;html=1;shadow=0;labelBackgroundColor=none;strokeWidth=1;fontFamily=Verdana;fontSize=8;align=center;fontStyle=1" parent="1" vertex="1">
          <mxGeometry x="745" y="80" width="30" height="20" as="geometry" />
        </mxCell>
        <mxCell id="uO17ehAxNxv0Zf3d8ahg-96" value="" style="group" parent="1" vertex="1" connectable="0">
          <mxGeometry x="310" y="560" width="470" height="60" as="geometry" />
        </mxCell>
        <mxCell id="uO17ehAxNxv0Zf3d8ahg-97" value="" style="group" parent="uO17ehAxNxv0Zf3d8ahg-96" vertex="1" connectable="0">
          <mxGeometry x="80" y="40" width="160" height="20" as="geometry" />
        </mxCell>
        <mxCell id="uO17ehAxNxv0Zf3d8ahg-98" value="" style="rounded=0;whiteSpace=wrap;html=1;strokeColor=default;strokeWidth=1;align=center;verticalAlign=middle;fontFamily=Helvetica;fontSize=12;fontColor=default;fillColor=default;" parent="uO17ehAxNxv0Zf3d8ahg-97" vertex="1">
          <mxGeometry width="160" height="20" as="geometry" />
        </mxCell>
        <mxCell id="uO17ehAxNxv0Zf3d8ahg-99" value="" style="rounded=0;whiteSpace=wrap;html=1;strokeColor=default;strokeWidth=1;align=center;verticalAlign=middle;fontFamily=Helvetica;fontSize=12;fontColor=default;fillColor=#FF3333;" parent="uO17ehAxNxv0Zf3d8ahg-97" vertex="1">
          <mxGeometry width="20" height="20" as="geometry" />
        </mxCell>
        <mxCell id="uO17ehAxNxv0Zf3d8ahg-100" value="" style="rounded=0;whiteSpace=wrap;html=1;strokeColor=default;strokeWidth=1;align=center;verticalAlign=middle;fontFamily=Helvetica;fontSize=12;fontColor=default;fillColor=#FF3333;" parent="uO17ehAxNxv0Zf3d8ahg-97" vertex="1">
          <mxGeometry x="20" width="20" height="20" as="geometry" />
        </mxCell>
        <mxCell id="uO17ehAxNxv0Zf3d8ahg-101" value="" style="rounded=0;whiteSpace=wrap;html=1;strokeColor=default;strokeWidth=1;align=center;verticalAlign=middle;fontFamily=Helvetica;fontSize=12;fontColor=default;fillColor=default;" parent="uO17ehAxNxv0Zf3d8ahg-97" vertex="1">
          <mxGeometry x="40" width="20" height="20" as="geometry" />
        </mxCell>
        <mxCell id="uO17ehAxNxv0Zf3d8ahg-102" value="" style="rounded=0;whiteSpace=wrap;html=1;strokeColor=default;strokeWidth=1;align=center;verticalAlign=middle;fontFamily=Helvetica;fontSize=12;fontColor=default;fillColor=#FF3333;" parent="uO17ehAxNxv0Zf3d8ahg-97" vertex="1">
          <mxGeometry x="60" width="20" height="20" as="geometry" />
        </mxCell>
        <mxCell id="uO17ehAxNxv0Zf3d8ahg-103" value="" style="rounded=0;whiteSpace=wrap;html=1;strokeColor=default;strokeWidth=1;align=center;verticalAlign=middle;fontFamily=Helvetica;fontSize=12;fontColor=default;fillColor=default;" parent="uO17ehAxNxv0Zf3d8ahg-97" vertex="1">
          <mxGeometry x="80" width="20" height="20" as="geometry" />
        </mxCell>
        <mxCell id="uO17ehAxNxv0Zf3d8ahg-104" value="" style="rounded=0;whiteSpace=wrap;html=1;strokeColor=default;strokeWidth=1;align=center;verticalAlign=middle;fontFamily=Helvetica;fontSize=12;fontColor=default;fillColor=default;" parent="uO17ehAxNxv0Zf3d8ahg-97" vertex="1">
          <mxGeometry x="100" width="20" height="20" as="geometry" />
        </mxCell>
        <mxCell id="uO17ehAxNxv0Zf3d8ahg-105" value="" style="rounded=0;whiteSpace=wrap;html=1;strokeColor=default;strokeWidth=1;align=center;verticalAlign=middle;fontFamily=Helvetica;fontSize=12;fontColor=default;fillColor=default;" parent="uO17ehAxNxv0Zf3d8ahg-97" vertex="1">
          <mxGeometry x="120" width="20" height="20" as="geometry" />
        </mxCell>
        <mxCell id="uO17ehAxNxv0Zf3d8ahg-106" value="" style="rounded=0;whiteSpace=wrap;html=1;strokeColor=default;strokeWidth=1;align=center;verticalAlign=middle;fontFamily=Helvetica;fontSize=12;fontColor=default;fillColor=default;" parent="uO17ehAxNxv0Zf3d8ahg-97" vertex="1">
          <mxGeometry x="140" width="20" height="20" as="geometry" />
        </mxCell>
        <mxCell id="uO17ehAxNxv0Zf3d8ahg-107" value="01111000" style="rounded=1;whiteSpace=wrap;html=1;shadow=0;labelBackgroundColor=none;strokeWidth=1;fontFamily=Verdana;fontSize=8;align=center;fontStyle=1" parent="uO17ehAxNxv0Zf3d8ahg-96" vertex="1">
          <mxGeometry width="60" height="20" as="geometry" />
        </mxCell>
        <mxCell id="uO17ehAxNxv0Zf3d8ahg-108" value="" style="group" parent="uO17ehAxNxv0Zf3d8ahg-96" vertex="1" connectable="0">
          <mxGeometry x="80" width="160" height="20" as="geometry" />
        </mxCell>
        <mxCell id="uO17ehAxNxv0Zf3d8ahg-109" value="" style="rounded=0;whiteSpace=wrap;html=1;strokeColor=default;strokeWidth=1;align=center;verticalAlign=middle;fontFamily=Helvetica;fontSize=12;fontColor=default;fillColor=default;" parent="uO17ehAxNxv0Zf3d8ahg-108" vertex="1">
          <mxGeometry width="160" height="20" as="geometry" />
        </mxCell>
        <mxCell id="uO17ehAxNxv0Zf3d8ahg-110" value="" style="rounded=0;whiteSpace=wrap;html=1;strokeColor=default;strokeWidth=1;align=center;verticalAlign=middle;fontFamily=Helvetica;fontSize=12;fontColor=default;fillColor=#000000;" parent="uO17ehAxNxv0Zf3d8ahg-108" vertex="1">
          <mxGeometry width="20" height="20" as="geometry" />
        </mxCell>
        <mxCell id="uO17ehAxNxv0Zf3d8ahg-111" value="" style="rounded=0;whiteSpace=wrap;html=1;strokeColor=default;strokeWidth=1;align=center;verticalAlign=middle;fontFamily=Helvetica;fontSize=12;fontColor=default;fillColor=default;" parent="uO17ehAxNxv0Zf3d8ahg-108" vertex="1">
          <mxGeometry x="20" width="20" height="20" as="geometry" />
        </mxCell>
        <mxCell id="uO17ehAxNxv0Zf3d8ahg-112" value="" style="rounded=0;whiteSpace=wrap;html=1;strokeColor=default;strokeWidth=1;align=center;verticalAlign=middle;fontFamily=Helvetica;fontSize=12;fontColor=default;fillColor=default;" parent="uO17ehAxNxv0Zf3d8ahg-108" vertex="1">
          <mxGeometry x="40" width="20" height="20" as="geometry" />
        </mxCell>
        <mxCell id="uO17ehAxNxv0Zf3d8ahg-113" value="" style="rounded=0;whiteSpace=wrap;html=1;strokeColor=default;strokeWidth=1;align=center;verticalAlign=middle;fontFamily=Helvetica;fontSize=12;fontColor=default;fillColor=default;" parent="uO17ehAxNxv0Zf3d8ahg-108" vertex="1">
          <mxGeometry x="60" width="20" height="20" as="geometry" />
        </mxCell>
        <mxCell id="uO17ehAxNxv0Zf3d8ahg-114" value="" style="rounded=0;whiteSpace=wrap;html=1;strokeColor=default;strokeWidth=1;align=center;verticalAlign=middle;fontFamily=Helvetica;fontSize=12;fontColor=default;fillColor=default;" parent="uO17ehAxNxv0Zf3d8ahg-108" vertex="1">
          <mxGeometry x="80" width="20" height="20" as="geometry" />
        </mxCell>
        <mxCell id="uO17ehAxNxv0Zf3d8ahg-115" value="" style="rounded=0;whiteSpace=wrap;html=1;strokeColor=default;strokeWidth=1;align=center;verticalAlign=middle;fontFamily=Helvetica;fontSize=12;fontColor=default;fillColor=#000000;" parent="uO17ehAxNxv0Zf3d8ahg-108" vertex="1">
          <mxGeometry x="100" width="20" height="20" as="geometry" />
        </mxCell>
        <mxCell id="uO17ehAxNxv0Zf3d8ahg-116" value="" style="rounded=0;whiteSpace=wrap;html=1;strokeColor=default;strokeWidth=1;align=center;verticalAlign=middle;fontFamily=Helvetica;fontSize=12;fontColor=default;fillColor=#000000;" parent="uO17ehAxNxv0Zf3d8ahg-108" vertex="1">
          <mxGeometry x="120" width="20" height="20" as="geometry" />
        </mxCell>
        <mxCell id="uO17ehAxNxv0Zf3d8ahg-117" value="" style="rounded=0;whiteSpace=wrap;html=1;strokeColor=default;strokeWidth=1;align=center;verticalAlign=middle;fontFamily=Helvetica;fontSize=12;fontColor=default;fillColor=#000000;" parent="uO17ehAxNxv0Zf3d8ahg-108" vertex="1">
          <mxGeometry x="140" width="20" height="20" as="geometry" />
        </mxCell>
        <mxCell id="uO17ehAxNxv0Zf3d8ahg-118" value="AND" style="shape=or;whiteSpace=wrap;html=1;strokeColor=default;strokeWidth=1;align=center;verticalAlign=middle;fontFamily=Helvetica;fontSize=12;fontColor=default;fillColor=default;" parent="uO17ehAxNxv0Zf3d8ahg-96" vertex="1">
          <mxGeometry x="250" width="50" height="60" as="geometry" />
        </mxCell>
        <mxCell id="uO17ehAxNxv0Zf3d8ahg-119" value="" style="group" parent="uO17ehAxNxv0Zf3d8ahg-96" vertex="1" connectable="0">
          <mxGeometry x="310" y="20" width="160" height="40" as="geometry" />
        </mxCell>
        <mxCell id="uO17ehAxNxv0Zf3d8ahg-120" value="" style="rounded=0;whiteSpace=wrap;html=1;strokeColor=default;strokeWidth=1;align=center;verticalAlign=middle;fontFamily=Helvetica;fontSize=12;fontColor=default;fillColor=default;" parent="uO17ehAxNxv0Zf3d8ahg-119" vertex="1">
          <mxGeometry width="160" height="20" as="geometry" />
        </mxCell>
        <mxCell id="uO17ehAxNxv0Zf3d8ahg-121" value="" style="rounded=0;whiteSpace=wrap;html=1;strokeColor=#000000;strokeWidth=1;align=center;verticalAlign=middle;fontFamily=Helvetica;fontSize=12;fontColor=default;fillColor=#000000;" parent="uO17ehAxNxv0Zf3d8ahg-119" vertex="1">
          <mxGeometry width="20" height="20" as="geometry" />
        </mxCell>
        <mxCell id="uO17ehAxNxv0Zf3d8ahg-122" value="" style="rounded=0;whiteSpace=wrap;html=1;strokeColor=default;strokeWidth=1;align=center;verticalAlign=middle;fontFamily=Helvetica;fontSize=12;fontColor=default;fillColor=#FF3333;" parent="uO17ehAxNxv0Zf3d8ahg-119" vertex="1">
          <mxGeometry x="20" width="20" height="20" as="geometry" />
        </mxCell>
        <mxCell id="uO17ehAxNxv0Zf3d8ahg-123" value="" style="rounded=0;whiteSpace=wrap;html=1;strokeColor=default;strokeWidth=1;align=center;verticalAlign=middle;fontFamily=Helvetica;fontSize=12;fontColor=default;fillColor=none;" parent="uO17ehAxNxv0Zf3d8ahg-119" vertex="1">
          <mxGeometry x="40" width="20" height="20" as="geometry" />
        </mxCell>
        <mxCell id="uO17ehAxNxv0Zf3d8ahg-124" value="" style="rounded=0;whiteSpace=wrap;html=1;strokeColor=default;strokeWidth=1;align=center;verticalAlign=middle;fontFamily=Helvetica;fontSize=12;fontColor=default;fillColor=#FF3333;" parent="uO17ehAxNxv0Zf3d8ahg-119" vertex="1">
          <mxGeometry x="60" width="20" height="20" as="geometry" />
        </mxCell>
        <mxCell id="uO17ehAxNxv0Zf3d8ahg-125" value="" style="rounded=0;whiteSpace=wrap;html=1;strokeColor=#000000;strokeWidth=1;align=center;verticalAlign=middle;fontFamily=Helvetica;fontSize=12;fontColor=default;fillColor=#000000;" parent="uO17ehAxNxv0Zf3d8ahg-119" vertex="1">
          <mxGeometry x="80" width="20" height="20" as="geometry" />
        </mxCell>
        <mxCell id="uO17ehAxNxv0Zf3d8ahg-126" value="" style="rounded=0;whiteSpace=wrap;html=1;strokeColor=#000000;strokeWidth=1;align=center;verticalAlign=middle;fontFamily=Helvetica;fontSize=12;fontColor=default;fillColor=#000000;" parent="uO17ehAxNxv0Zf3d8ahg-119" vertex="1">
          <mxGeometry x="100" width="20" height="20" as="geometry" />
        </mxCell>
        <mxCell id="uO17ehAxNxv0Zf3d8ahg-127" value="" style="rounded=0;whiteSpace=wrap;html=1;strokeColor=#000000;strokeWidth=1;align=center;verticalAlign=middle;fontFamily=Helvetica;fontSize=12;fontColor=default;fillColor=#000000;" parent="uO17ehAxNxv0Zf3d8ahg-119" vertex="1">
          <mxGeometry x="120" width="20" height="20" as="geometry" />
        </mxCell>
        <mxCell id="uO17ehAxNxv0Zf3d8ahg-128" value="" style="rounded=0;whiteSpace=wrap;html=1;strokeColor=#000000;strokeWidth=1;align=center;verticalAlign=middle;fontFamily=Helvetica;fontSize=12;fontColor=default;fillColor=#000000;" parent="uO17ehAxNxv0Zf3d8ahg-119" vertex="1">
          <mxGeometry x="140" width="20" height="20" as="geometry" />
        </mxCell>
        <mxCell id="uO17ehAxNxv0Zf3d8ahg-129" value="&lt;h2 class=&quot;&quot; style=&quot;box-sizing: border-box; padding: 1rem; margin: 0px; outline: 0px; font-weight: 700; line-height: 22px; font-size: 16px; border-bottom: 1px solid var(--bd_01); position: relative; color: rgb(63, 66, 87); font-family: -apple-system, BlinkMacSystemFont, &amp;quot;Segoe UI&amp;quot;, Roboto, &amp;quot;Helvetica Neue&amp;quot;, Arial, &amp;quot;Noto Sans&amp;quot;, sans-serif, &amp;quot;Apple Color Emoji&amp;quot;, &amp;quot;Segoe UI Emoji&amp;quot;, &amp;quot;Segoe UI Symbol&amp;quot;, &amp;quot;Noto Color Emoji&amp;quot;; font-style: normal; font-variant-ligatures: normal; font-variant-caps: normal; letter-spacing: normal; orphans: 2; text-align: start; text-indent: 0px; text-transform: none; widows: 2; word-spacing: 0px; -webkit-text-stroke-width: 0px; white-space: normal; text-decoration-thickness: initial; text-decoration-style: initial; text-decoration-color: initial;&quot;&gt;&lt;span class=&quot;emoji_font line&quot; style=&quot;box-sizing: border-box; padding: 0px; margin: 0px 2px 0px 0px; outline: 0px; display: inline-flex; font-style: normal; font-weight: 400; font-family: var(--font-emoji); direction: initial; align-items: center; justify-content: center; min-width: 1.5em;&quot;&gt;✅&lt;/span&gt;&lt;/h2&gt;" style="text;whiteSpace=wrap;html=1;fontFamily=Helvetica;fontSize=12;fontColor=default;" parent="uO17ehAxNxv0Zf3d8ahg-119" vertex="1">
          <mxGeometry width="40" height="40" as="geometry" />
        </mxCell>
        <mxCell id="uO17ehAxNxv0Zf3d8ahg-130" value="11010000" style="rounded=1;whiteSpace=wrap;html=1;shadow=0;labelBackgroundColor=none;strokeWidth=1;fontFamily=Verdana;fontSize=8;align=center;fontStyle=1" parent="uO17ehAxNxv0Zf3d8ahg-96" vertex="1">
          <mxGeometry y="40" width="60" height="20" as="geometry" />
        </mxCell>
        <mxCell id="uO17ehAxNxv0Zf3d8ahg-131" value="" style="group" parent="1" vertex="1" connectable="0">
          <mxGeometry x="220" y="640" width="110" height="160" as="geometry" />
        </mxCell>
        <mxCell id="uO17ehAxNxv0Zf3d8ahg-132" value="" style="rounded=0;whiteSpace=wrap;html=1;strokeColor=default;strokeWidth=1;align=center;verticalAlign=middle;fontFamily=Helvetica;fontSize=12;fontColor=default;fillColor=default;rotation=90;" parent="uO17ehAxNxv0Zf3d8ahg-131" vertex="1">
          <mxGeometry x="-25" y="25" width="160" height="110" as="geometry" />
        </mxCell>
        <mxCell id="uO17ehAxNxv0Zf3d8ahg-133" value="~queue_0_empty" style="rounded=0;whiteSpace=wrap;html=1;strokeColor=default;strokeWidth=1;align=center;verticalAlign=middle;fontFamily=Helvetica;fontSize=10;fontColor=default;fillColor=default;" parent="uO17ehAxNxv0Zf3d8ahg-131" vertex="1">
          <mxGeometry width="110" height="20" as="geometry" />
        </mxCell>
        <mxCell id="uO17ehAxNxv0Zf3d8ahg-134" value="&lt;span style=&quot;font-size: 10px;&quot;&gt;~queue_1_empty&lt;/span&gt;" style="rounded=0;whiteSpace=wrap;html=1;strokeColor=default;strokeWidth=1;align=center;verticalAlign=middle;fontFamily=Helvetica;fontSize=12;fontColor=default;fillColor=default;" parent="uO17ehAxNxv0Zf3d8ahg-131" vertex="1">
          <mxGeometry y="20" width="110" height="20" as="geometry" />
        </mxCell>
        <mxCell id="uO17ehAxNxv0Zf3d8ahg-135" value="&lt;span style=&quot;font-size: 10px;&quot;&gt;~queue_2_empty&lt;/span&gt;" style="rounded=0;whiteSpace=wrap;html=1;strokeColor=default;strokeWidth=1;align=center;verticalAlign=middle;fontFamily=Helvetica;fontSize=12;fontColor=default;fillColor=default;" parent="uO17ehAxNxv0Zf3d8ahg-131" vertex="1">
          <mxGeometry y="40" width="110" height="20" as="geometry" />
        </mxCell>
        <mxCell id="uO17ehAxNxv0Zf3d8ahg-136" value="&lt;span style=&quot;font-size: 10px;&quot;&gt;~queue_3_empty&lt;/span&gt;" style="rounded=0;whiteSpace=wrap;html=1;strokeColor=default;strokeWidth=1;align=center;verticalAlign=middle;fontFamily=Helvetica;fontSize=12;fontColor=default;fillColor=default;" parent="uO17ehAxNxv0Zf3d8ahg-131" vertex="1">
          <mxGeometry y="60" width="110" height="20" as="geometry" />
        </mxCell>
        <mxCell id="uO17ehAxNxv0Zf3d8ahg-137" value="&lt;span style=&quot;font-size: 10px;&quot;&gt;~queue_4_empty&lt;/span&gt;" style="rounded=0;whiteSpace=wrap;html=1;strokeColor=default;strokeWidth=1;align=center;verticalAlign=middle;fontFamily=Helvetica;fontSize=12;fontColor=default;fillColor=default;" parent="uO17ehAxNxv0Zf3d8ahg-131" vertex="1">
          <mxGeometry y="80" width="110" height="20" as="geometry" />
        </mxCell>
        <mxCell id="uO17ehAxNxv0Zf3d8ahg-138" value="&lt;span style=&quot;font-size: 10px;&quot;&gt;~queue_5_empty&lt;/span&gt;" style="rounded=0;whiteSpace=wrap;html=1;strokeColor=default;strokeWidth=1;align=center;verticalAlign=middle;fontFamily=Helvetica;fontSize=12;fontColor=default;fillColor=default;" parent="uO17ehAxNxv0Zf3d8ahg-131" vertex="1">
          <mxGeometry y="100" width="110" height="20" as="geometry" />
        </mxCell>
        <mxCell id="uO17ehAxNxv0Zf3d8ahg-139" value="&lt;span style=&quot;font-size: 10px;&quot;&gt;~queue_6_empty&lt;/span&gt;" style="rounded=0;whiteSpace=wrap;html=1;strokeColor=default;strokeWidth=1;align=center;verticalAlign=middle;fontFamily=Helvetica;fontSize=12;fontColor=default;fillColor=default;" parent="uO17ehAxNxv0Zf3d8ahg-131" vertex="1">
          <mxGeometry y="120" width="110" height="20" as="geometry" />
        </mxCell>
        <mxCell id="uO17ehAxNxv0Zf3d8ahg-140" value="&lt;span style=&quot;font-size: 10px;&quot;&gt;~queue_7_empty&lt;/span&gt;" style="rounded=0;whiteSpace=wrap;html=1;strokeColor=default;strokeWidth=1;align=center;verticalAlign=middle;fontFamily=Helvetica;fontSize=12;fontColor=default;fillColor=default;" parent="uO17ehAxNxv0Zf3d8ahg-131" vertex="1">
          <mxGeometry y="140" width="110" height="20" as="geometry" />
        </mxCell>
        <mxCell id="uO17ehAxNxv0Zf3d8ahg-141" value="" style="group;rotation=90;" parent="1" vertex="1" connectable="0">
          <mxGeometry x="280" y="710" width="160" height="20" as="geometry" />
        </mxCell>
        <mxCell id="uO17ehAxNxv0Zf3d8ahg-142" value="" style="rounded=0;whiteSpace=wrap;html=1;strokeColor=default;strokeWidth=1;align=center;verticalAlign=middle;fontFamily=Helvetica;fontSize=12;fontColor=default;fillColor=default;rotation=90;" parent="uO17ehAxNxv0Zf3d8ahg-141" vertex="1">
          <mxGeometry width="160" height="20" as="geometry" />
        </mxCell>
        <mxCell id="uO17ehAxNxv0Zf3d8ahg-143" value="" style="rounded=0;whiteSpace=wrap;html=1;strokeColor=default;strokeWidth=1;align=center;verticalAlign=middle;fontFamily=Helvetica;fontSize=12;fontColor=default;fillColor=#FF3333;rotation=90;" parent="uO17ehAxNxv0Zf3d8ahg-141" vertex="1">
          <mxGeometry x="70" y="-70" width="20" height="20" as="geometry" />
        </mxCell>
        <mxCell id="uO17ehAxNxv0Zf3d8ahg-144" value="" style="rounded=0;whiteSpace=wrap;html=1;strokeColor=default;strokeWidth=1;align=center;verticalAlign=middle;fontFamily=Helvetica;fontSize=12;fontColor=default;fillColor=#FF3333;rotation=90;" parent="uO17ehAxNxv0Zf3d8ahg-141" vertex="1">
          <mxGeometry x="70" y="-50" width="20" height="20" as="geometry" />
        </mxCell>
        <mxCell id="uO17ehAxNxv0Zf3d8ahg-145" value="" style="rounded=0;whiteSpace=wrap;html=1;strokeColor=default;strokeWidth=1;align=center;verticalAlign=middle;fontFamily=Helvetica;fontSize=12;fontColor=default;fillColor=default;rotation=90;" parent="uO17ehAxNxv0Zf3d8ahg-141" vertex="1">
          <mxGeometry x="70" y="-30" width="20" height="20" as="geometry" />
        </mxCell>
        <mxCell id="uO17ehAxNxv0Zf3d8ahg-146" value="" style="rounded=0;whiteSpace=wrap;html=1;strokeColor=default;strokeWidth=1;align=center;verticalAlign=middle;fontFamily=Helvetica;fontSize=12;fontColor=default;fillColor=#FF3333;rotation=90;" parent="uO17ehAxNxv0Zf3d8ahg-141" vertex="1">
          <mxGeometry x="70" y="-10" width="20" height="20" as="geometry" />
        </mxCell>
        <mxCell id="uO17ehAxNxv0Zf3d8ahg-147" value="" style="rounded=0;whiteSpace=wrap;html=1;strokeColor=default;strokeWidth=1;align=center;verticalAlign=middle;fontFamily=Helvetica;fontSize=12;fontColor=default;fillColor=default;rotation=90;" parent="uO17ehAxNxv0Zf3d8ahg-141" vertex="1">
          <mxGeometry x="70" y="10" width="20" height="20" as="geometry" />
        </mxCell>
        <mxCell id="uO17ehAxNxv0Zf3d8ahg-148" value="" style="rounded=0;whiteSpace=wrap;html=1;strokeColor=default;strokeWidth=1;align=center;verticalAlign=middle;fontFamily=Helvetica;fontSize=12;fontColor=default;fillColor=default;rotation=90;" parent="uO17ehAxNxv0Zf3d8ahg-141" vertex="1">
          <mxGeometry x="70" y="30" width="20" height="20" as="geometry" />
        </mxCell>
        <mxCell id="uO17ehAxNxv0Zf3d8ahg-149" value="" style="rounded=0;whiteSpace=wrap;html=1;strokeColor=default;strokeWidth=1;align=center;verticalAlign=middle;fontFamily=Helvetica;fontSize=12;fontColor=default;fillColor=default;rotation=90;" parent="uO17ehAxNxv0Zf3d8ahg-141" vertex="1">
          <mxGeometry x="70" y="50" width="20" height="20" as="geometry" />
        </mxCell>
        <mxCell id="uO17ehAxNxv0Zf3d8ahg-150" value="" style="rounded=0;whiteSpace=wrap;html=1;strokeColor=default;strokeWidth=1;align=center;verticalAlign=middle;fontFamily=Helvetica;fontSize=12;fontColor=default;fillColor=default;rotation=90;" parent="uO17ehAxNxv0Zf3d8ahg-141" vertex="1">
          <mxGeometry x="70" y="70" width="20" height="20" as="geometry" />
        </mxCell>
        <mxCell id="uO17ehAxNxv0Zf3d8ahg-151" value="" style="endArrow=classic;html=1;rounded=0;fontFamily=Helvetica;fontSize=12;fontColor=default;exitX=0;exitY=0;exitDx=0;exitDy=0;entryX=1;entryY=1;entryDx=0;entryDy=0;" parent="1" source="uO17ehAxNxv0Zf3d8ahg-147" target="uO17ehAxNxv0Zf3d8ahg-102" edge="1">
          <mxGeometry width="50" height="50" relative="1" as="geometry">
            <mxPoint x="385" y="720" as="sourcePoint" />
            <mxPoint x="435" y="670" as="targetPoint" />
            <Array as="points">
              <mxPoint x="470" y="720" />
            </Array>
          </mxGeometry>
        </mxCell>
        <mxCell id="uO17ehAxNxv0Zf3d8ahg-152" value="端口空闲指示码&lt;br&gt;&lt;span style=&quot;font-weight: normal;&quot;&gt;&lt;font style=&quot;font-size: 11px;&quot;&gt;(各队列是否有数据)&lt;/font&gt;&lt;/span&gt;" style="rounded=1;whiteSpace=wrap;html=1;strokeColor=none;strokeWidth=1;align=center;verticalAlign=middle;fontFamily=Helvetica;fontSize=12;fontColor=default;fillColor=none;fontStyle=1" parent="1" vertex="1">
          <mxGeometry x="220" y="810" width="110" height="40" as="geometry" />
        </mxCell>
        <mxCell id="uO17ehAxNxv0Zf3d8ahg-153" value="" style="rounded=0;whiteSpace=wrap;html=1;strokeColor=default;strokeWidth=1;align=center;verticalAlign=middle;fontFamily=Helvetica;fontSize=12;fontColor=default;fillColor=default;" parent="1" vertex="1">
          <mxGeometry x="810" y="580" width="20" height="220" as="geometry" />
        </mxCell>
        <mxCell id="uO17ehAxNxv0Zf3d8ahg-154" value="" style="rounded=0;whiteSpace=wrap;html=1;strokeColor=default;strokeWidth=1;align=center;verticalAlign=middle;fontFamily=Helvetica;fontSize=12;fontColor=default;fillColor=#FF8000;" parent="1" vertex="1">
          <mxGeometry x="810" y="670" width="20" height="20" as="geometry" />
        </mxCell>
        <mxCell id="uO17ehAxNxv0Zf3d8ahg-155" value="" style="rounded=0;whiteSpace=wrap;html=1;strokeColor=default;strokeWidth=1;align=center;verticalAlign=middle;fontFamily=Helvetica;fontSize=12;fontColor=default;fillColor=default;" parent="1" vertex="1">
          <mxGeometry x="810" y="580" width="20" height="20" as="geometry" />
        </mxCell>
        <mxCell id="uO17ehAxNxv0Zf3d8ahg-156" value="" style="rounded=0;whiteSpace=wrap;html=1;strokeColor=default;strokeWidth=1;align=center;verticalAlign=middle;fontFamily=Helvetica;fontSize=12;fontColor=default;fillColor=default;" parent="1" vertex="1">
          <mxGeometry x="810" y="600" width="20" height="20" as="geometry" />
        </mxCell>
        <mxCell id="uO17ehAxNxv0Zf3d8ahg-157" value="..." style="rounded=0;whiteSpace=wrap;html=1;strokeColor=default;strokeWidth=1;align=center;verticalAlign=middle;fontFamily=Helvetica;fontSize=12;fontColor=default;fillColor=default;" parent="1" vertex="1">
          <mxGeometry x="810" y="620" width="20" height="50" as="geometry" />
        </mxCell>
        <mxCell id="uO17ehAxNxv0Zf3d8ahg-158" value="..." style="rounded=0;whiteSpace=wrap;html=1;strokeColor=default;strokeWidth=1;align=center;verticalAlign=middle;fontFamily=Helvetica;fontSize=12;fontColor=default;fillColor=default;" parent="1" vertex="1">
          <mxGeometry x="810" y="690" width="20" height="90" as="geometry" />
        </mxCell>
        <mxCell id="uO17ehAxNxv0Zf3d8ahg-159" value="" style="rounded=0;whiteSpace=wrap;html=1;strokeColor=default;strokeWidth=1;align=center;verticalAlign=middle;fontFamily=Helvetica;fontSize=12;fontColor=default;fillColor=default;" parent="1" vertex="1">
          <mxGeometry x="810" y="780" width="20" height="20" as="geometry" />
        </mxCell>
        <mxCell id="uO17ehAxNxv0Zf3d8ahg-160" value="Port #0" style="rounded=0;whiteSpace=wrap;html=1;strokeColor=none;strokeWidth=1;align=left;verticalAlign=middle;fontFamily=Helvetica;fontSize=12;fontColor=default;fillColor=none;" parent="1" vertex="1">
          <mxGeometry x="840" y="580" width="50" height="20" as="geometry" />
        </mxCell>
        <mxCell id="uO17ehAxNxv0Zf3d8ahg-161" value="Port #1" style="rounded=0;whiteSpace=wrap;html=1;strokeColor=none;strokeWidth=1;align=left;verticalAlign=middle;fontFamily=Helvetica;fontSize=12;fontColor=default;fillColor=none;" parent="1" vertex="1">
          <mxGeometry x="840" y="600" width="50" height="20" as="geometry" />
        </mxCell>
        <mxCell id="uO17ehAxNxv0Zf3d8ahg-162" value="Port #N" style="rounded=0;whiteSpace=wrap;html=1;strokeColor=none;strokeWidth=1;align=left;verticalAlign=middle;fontFamily=Helvetica;fontSize=12;fontColor=default;fillColor=none;" parent="1" vertex="1">
          <mxGeometry x="840" y="670" width="50" height="20" as="geometry" />
        </mxCell>
        <mxCell id="uO17ehAxNxv0Zf3d8ahg-163" value="Port #16" style="rounded=0;whiteSpace=wrap;html=1;strokeColor=none;strokeWidth=1;align=center;verticalAlign=middle;fontFamily=Helvetica;fontSize=12;fontColor=default;fillColor=none;" parent="1" vertex="1">
          <mxGeometry x="840" y="780" width="50" height="20" as="geometry" />
        </mxCell>
        <mxCell id="uO17ehAxNxv0Zf3d8ahg-164" value="SRAM请求指示码&lt;br&gt;&lt;span style=&quot;font-weight: normal;&quot;&gt;&lt;font style=&quot;font-size: 11px;&quot;&gt;(各端口是否正在请求)&lt;/font&gt;&lt;/span&gt;" style="rounded=1;whiteSpace=wrap;html=1;strokeColor=none;strokeWidth=1;align=center;verticalAlign=middle;fontFamily=Helvetica;fontSize=12;fontColor=default;fillColor=none;fontStyle=1" parent="1" vertex="1">
          <mxGeometry x="765" y="810" width="110" height="40" as="geometry" />
        </mxCell>
        <mxCell id="uO17ehAxNxv0Zf3d8ahg-165" value="通过AND运算&lt;br&gt;得到WRR调度&lt;br&gt;当前回合可轮询位置" style="rounded=0;whiteSpace=wrap;html=1;strokeColor=none;strokeWidth=1;align=left;verticalAlign=middle;fontFamily=Helvetica;fontSize=12;fontColor=default;fillColor=none;fontStyle=1" parent="1" vertex="1">
          <mxGeometry x="510" y="650" width="120" height="60" as="geometry" />
        </mxCell>
        <mxCell id="uO17ehAxNxv0Zf3d8ahg-166" value="" style="group" parent="1" vertex="1" connectable="0">
          <mxGeometry x="220" y="920" width="670" height="290" as="geometry" />
        </mxCell>
        <mxCell id="uO17ehAxNxv0Zf3d8ahg-167" value="" style="group" parent="uO17ehAxNxv0Zf3d8ahg-166" vertex="1" connectable="0">
          <mxGeometry x="90" width="470" height="60" as="geometry" />
        </mxCell>
        <mxCell id="uO17ehAxNxv0Zf3d8ahg-168" value="" style="group" parent="uO17ehAxNxv0Zf3d8ahg-167" vertex="1" connectable="0">
          <mxGeometry x="80" y="40" width="160" height="20" as="geometry" />
        </mxCell>
        <mxCell id="uO17ehAxNxv0Zf3d8ahg-169" value="" style="rounded=0;whiteSpace=wrap;html=1;strokeColor=default;strokeWidth=1;align=center;verticalAlign=middle;fontFamily=Helvetica;fontSize=12;fontColor=default;fillColor=default;" parent="uO17ehAxNxv0Zf3d8ahg-168" vertex="1">
          <mxGeometry width="160" height="20" as="geometry" />
        </mxCell>
        <mxCell id="uO17ehAxNxv0Zf3d8ahg-170" value="" style="rounded=0;whiteSpace=wrap;html=1;strokeColor=default;strokeWidth=1;align=center;verticalAlign=middle;fontFamily=Helvetica;fontSize=12;fontColor=default;fillColor=#FF3333;" parent="uO17ehAxNxv0Zf3d8ahg-168" vertex="1">
          <mxGeometry width="20" height="20" as="geometry" />
        </mxCell>
        <mxCell id="uO17ehAxNxv0Zf3d8ahg-171" value="" style="rounded=0;whiteSpace=wrap;html=1;strokeColor=default;strokeWidth=1;align=center;verticalAlign=middle;fontFamily=Helvetica;fontSize=12;fontColor=default;fillColor=#FFFFFF;" parent="uO17ehAxNxv0Zf3d8ahg-168" vertex="1">
          <mxGeometry x="20" width="20" height="20" as="geometry" />
        </mxCell>
        <mxCell id="uO17ehAxNxv0Zf3d8ahg-172" value="" style="rounded=0;whiteSpace=wrap;html=1;strokeColor=default;strokeWidth=1;align=center;verticalAlign=middle;fontFamily=Helvetica;fontSize=12;fontColor=default;fillColor=default;" parent="uO17ehAxNxv0Zf3d8ahg-168" vertex="1">
          <mxGeometry x="40" width="20" height="20" as="geometry" />
        </mxCell>
        <mxCell id="uO17ehAxNxv0Zf3d8ahg-173" value="" style="rounded=0;whiteSpace=wrap;html=1;strokeColor=default;strokeWidth=1;align=center;verticalAlign=middle;fontFamily=Helvetica;fontSize=12;fontColor=default;fillColor=#FFFFFF;" parent="uO17ehAxNxv0Zf3d8ahg-168" vertex="1">
          <mxGeometry x="60" width="20" height="20" as="geometry" />
        </mxCell>
        <mxCell id="uO17ehAxNxv0Zf3d8ahg-174" value="" style="rounded=0;whiteSpace=wrap;html=1;strokeColor=default;strokeWidth=1;align=center;verticalAlign=middle;fontFamily=Helvetica;fontSize=12;fontColor=default;fillColor=default;" parent="uO17ehAxNxv0Zf3d8ahg-168" vertex="1">
          <mxGeometry x="80" width="20" height="20" as="geometry" />
        </mxCell>
        <mxCell id="uO17ehAxNxv0Zf3d8ahg-175" value="" style="rounded=0;whiteSpace=wrap;html=1;strokeColor=default;strokeWidth=1;align=center;verticalAlign=middle;fontFamily=Helvetica;fontSize=12;fontColor=default;fillColor=default;" parent="uO17ehAxNxv0Zf3d8ahg-168" vertex="1">
          <mxGeometry x="100" width="20" height="20" as="geometry" />
        </mxCell>
        <mxCell id="uO17ehAxNxv0Zf3d8ahg-176" value="" style="rounded=0;whiteSpace=wrap;html=1;strokeColor=default;strokeWidth=1;align=center;verticalAlign=middle;fontFamily=Helvetica;fontSize=12;fontColor=default;fillColor=#FF3333;" parent="uO17ehAxNxv0Zf3d8ahg-168" vertex="1">
          <mxGeometry x="120" width="20" height="20" as="geometry" />
        </mxCell>
        <mxCell id="uO17ehAxNxv0Zf3d8ahg-177" value="" style="rounded=0;whiteSpace=wrap;html=1;strokeColor=default;strokeWidth=1;align=center;verticalAlign=middle;fontFamily=Helvetica;fontSize=12;fontColor=default;fillColor=default;" parent="uO17ehAxNxv0Zf3d8ahg-168" vertex="1">
          <mxGeometry x="140" width="20" height="20" as="geometry" />
        </mxCell>
        <mxCell id="uO17ehAxNxv0Zf3d8ahg-178" value="01111000" style="rounded=1;whiteSpace=wrap;html=1;shadow=0;labelBackgroundColor=none;strokeWidth=1;fontFamily=Verdana;fontSize=8;align=center;fontStyle=1" parent="uO17ehAxNxv0Zf3d8ahg-167" vertex="1">
          <mxGeometry width="60" height="20" as="geometry" />
        </mxCell>
        <mxCell id="uO17ehAxNxv0Zf3d8ahg-179" value="" style="group" parent="uO17ehAxNxv0Zf3d8ahg-167" vertex="1" connectable="0">
          <mxGeometry x="80" width="160" height="20" as="geometry" />
        </mxCell>
        <mxCell id="uO17ehAxNxv0Zf3d8ahg-180" value="" style="rounded=0;whiteSpace=wrap;html=1;strokeColor=default;strokeWidth=1;align=center;verticalAlign=middle;fontFamily=Helvetica;fontSize=12;fontColor=default;fillColor=default;" parent="uO17ehAxNxv0Zf3d8ahg-179" vertex="1">
          <mxGeometry width="160" height="20" as="geometry" />
        </mxCell>
        <mxCell id="uO17ehAxNxv0Zf3d8ahg-181" value="" style="rounded=0;whiteSpace=wrap;html=1;strokeColor=default;strokeWidth=1;align=center;verticalAlign=middle;fontFamily=Helvetica;fontSize=12;fontColor=default;fillColor=#000000;" parent="uO17ehAxNxv0Zf3d8ahg-179" vertex="1">
          <mxGeometry width="20" height="20" as="geometry" />
        </mxCell>
        <mxCell id="uO17ehAxNxv0Zf3d8ahg-182" value="" style="rounded=0;whiteSpace=wrap;html=1;strokeColor=default;strokeWidth=1;align=center;verticalAlign=middle;fontFamily=Helvetica;fontSize=12;fontColor=default;fillColor=default;" parent="uO17ehAxNxv0Zf3d8ahg-179" vertex="1">
          <mxGeometry x="20" width="20" height="20" as="geometry" />
        </mxCell>
        <mxCell id="uO17ehAxNxv0Zf3d8ahg-183" value="" style="rounded=0;whiteSpace=wrap;html=1;strokeColor=default;strokeWidth=1;align=center;verticalAlign=middle;fontFamily=Helvetica;fontSize=12;fontColor=default;fillColor=default;" parent="uO17ehAxNxv0Zf3d8ahg-179" vertex="1">
          <mxGeometry x="40" width="20" height="20" as="geometry" />
        </mxCell>
        <mxCell id="uO17ehAxNxv0Zf3d8ahg-184" value="" style="rounded=0;whiteSpace=wrap;html=1;strokeColor=default;strokeWidth=1;align=center;verticalAlign=middle;fontFamily=Helvetica;fontSize=12;fontColor=default;fillColor=default;" parent="uO17ehAxNxv0Zf3d8ahg-179" vertex="1">
          <mxGeometry x="60" width="20" height="20" as="geometry" />
        </mxCell>
        <mxCell id="uO17ehAxNxv0Zf3d8ahg-185" value="" style="rounded=0;whiteSpace=wrap;html=1;strokeColor=default;strokeWidth=1;align=center;verticalAlign=middle;fontFamily=Helvetica;fontSize=12;fontColor=default;fillColor=default;" parent="uO17ehAxNxv0Zf3d8ahg-179" vertex="1">
          <mxGeometry x="80" width="20" height="20" as="geometry" />
        </mxCell>
        <mxCell id="uO17ehAxNxv0Zf3d8ahg-186" value="" style="rounded=0;whiteSpace=wrap;html=1;strokeColor=default;strokeWidth=1;align=center;verticalAlign=middle;fontFamily=Helvetica;fontSize=12;fontColor=default;fillColor=#000000;" parent="uO17ehAxNxv0Zf3d8ahg-179" vertex="1">
          <mxGeometry x="100" width="20" height="20" as="geometry" />
        </mxCell>
        <mxCell id="uO17ehAxNxv0Zf3d8ahg-187" value="" style="rounded=0;whiteSpace=wrap;html=1;strokeColor=default;strokeWidth=1;align=center;verticalAlign=middle;fontFamily=Helvetica;fontSize=12;fontColor=default;fillColor=#000000;" parent="uO17ehAxNxv0Zf3d8ahg-179" vertex="1">
          <mxGeometry x="120" width="20" height="20" as="geometry" />
        </mxCell>
        <mxCell id="uO17ehAxNxv0Zf3d8ahg-188" value="" style="rounded=0;whiteSpace=wrap;html=1;strokeColor=default;strokeWidth=1;align=center;verticalAlign=middle;fontFamily=Helvetica;fontSize=12;fontColor=default;fillColor=#000000;" parent="uO17ehAxNxv0Zf3d8ahg-179" vertex="1">
          <mxGeometry x="140" width="20" height="20" as="geometry" />
        </mxCell>
        <mxCell id="uO17ehAxNxv0Zf3d8ahg-189" value="AND" style="shape=or;whiteSpace=wrap;html=1;strokeColor=default;strokeWidth=1;align=center;verticalAlign=middle;fontFamily=Helvetica;fontSize=12;fontColor=default;fillColor=default;" parent="uO17ehAxNxv0Zf3d8ahg-167" vertex="1">
          <mxGeometry x="250" width="50" height="60" as="geometry" />
        </mxCell>
        <mxCell id="uO17ehAxNxv0Zf3d8ahg-190" value="" style="group" parent="uO17ehAxNxv0Zf3d8ahg-167" vertex="1" connectable="0">
          <mxGeometry x="310" y="20" width="160" height="40" as="geometry" />
        </mxCell>
        <mxCell id="uO17ehAxNxv0Zf3d8ahg-191" value="" style="rounded=0;whiteSpace=wrap;html=1;strokeColor=default;strokeWidth=1;align=center;verticalAlign=middle;fontFamily=Helvetica;fontSize=12;fontColor=default;fillColor=default;" parent="uO17ehAxNxv0Zf3d8ahg-190" vertex="1">
          <mxGeometry width="160" height="20" as="geometry" />
        </mxCell>
        <mxCell id="uO17ehAxNxv0Zf3d8ahg-192" value="" style="rounded=0;whiteSpace=wrap;html=1;strokeColor=#000000;strokeWidth=1;align=center;verticalAlign=middle;fontFamily=Helvetica;fontSize=12;fontColor=default;fillColor=#000000;" parent="uO17ehAxNxv0Zf3d8ahg-190" vertex="1">
          <mxGeometry width="20" height="20" as="geometry" />
        </mxCell>
        <mxCell id="uO17ehAxNxv0Zf3d8ahg-193" value="" style="rounded=0;whiteSpace=wrap;html=1;strokeColor=default;strokeWidth=1;align=center;verticalAlign=middle;fontFamily=Helvetica;fontSize=12;fontColor=default;fillColor=#FFFFFF;" parent="uO17ehAxNxv0Zf3d8ahg-190" vertex="1">
          <mxGeometry x="20" width="20" height="20" as="geometry" />
        </mxCell>
        <mxCell id="uO17ehAxNxv0Zf3d8ahg-194" value="" style="rounded=0;whiteSpace=wrap;html=1;strokeColor=default;strokeWidth=1;align=center;verticalAlign=middle;fontFamily=Helvetica;fontSize=12;fontColor=default;fillColor=none;" parent="uO17ehAxNxv0Zf3d8ahg-190" vertex="1">
          <mxGeometry x="40" width="20" height="20" as="geometry" />
        </mxCell>
        <mxCell id="uO17ehAxNxv0Zf3d8ahg-195" value="" style="rounded=0;whiteSpace=wrap;html=1;strokeColor=default;strokeWidth=1;align=center;verticalAlign=middle;fontFamily=Helvetica;fontSize=12;fontColor=default;fillColor=#FFFFFF;" parent="uO17ehAxNxv0Zf3d8ahg-190" vertex="1">
          <mxGeometry x="60" width="20" height="20" as="geometry" />
        </mxCell>
        <mxCell id="uO17ehAxNxv0Zf3d8ahg-196" value="" style="rounded=0;whiteSpace=wrap;html=1;strokeColor=#000000;strokeWidth=1;align=center;verticalAlign=middle;fontFamily=Helvetica;fontSize=12;fontColor=default;fillColor=#000000;" parent="uO17ehAxNxv0Zf3d8ahg-190" vertex="1">
          <mxGeometry x="80" width="20" height="20" as="geometry" />
        </mxCell>
        <mxCell id="uO17ehAxNxv0Zf3d8ahg-197" value="" style="rounded=0;whiteSpace=wrap;html=1;strokeColor=#000000;strokeWidth=1;align=center;verticalAlign=middle;fontFamily=Helvetica;fontSize=12;fontColor=default;fillColor=#000000;" parent="uO17ehAxNxv0Zf3d8ahg-190" vertex="1">
          <mxGeometry x="100" width="20" height="20" as="geometry" />
        </mxCell>
        <mxCell id="uO17ehAxNxv0Zf3d8ahg-198" value="" style="rounded=0;whiteSpace=wrap;html=1;strokeColor=#000000;strokeWidth=1;align=center;verticalAlign=middle;fontFamily=Helvetica;fontSize=12;fontColor=default;fillColor=#000000;" parent="uO17ehAxNxv0Zf3d8ahg-190" vertex="1">
          <mxGeometry x="120" width="20" height="20" as="geometry" />
        </mxCell>
        <mxCell id="uO17ehAxNxv0Zf3d8ahg-199" value="" style="rounded=0;whiteSpace=wrap;html=1;strokeColor=#000000;strokeWidth=1;align=center;verticalAlign=middle;fontFamily=Helvetica;fontSize=12;fontColor=default;fillColor=#000000;" parent="uO17ehAxNxv0Zf3d8ahg-190" vertex="1">
          <mxGeometry x="140" width="20" height="20" as="geometry" />
        </mxCell>
        <mxCell id="uO17ehAxNxv0Zf3d8ahg-200" value="10000010" style="rounded=1;whiteSpace=wrap;html=1;shadow=0;labelBackgroundColor=none;strokeWidth=1;fontFamily=Verdana;fontSize=8;align=center;fontStyle=1" parent="uO17ehAxNxv0Zf3d8ahg-167" vertex="1">
          <mxGeometry y="40" width="60" height="20" as="geometry" />
        </mxCell>
        <mxCell id="uO17ehAxNxv0Zf3d8ahg-201" value="" style="group" parent="uO17ehAxNxv0Zf3d8ahg-166" vertex="1" connectable="0">
          <mxGeometry y="80" width="110" height="160" as="geometry" />
        </mxCell>
        <mxCell id="uO17ehAxNxv0Zf3d8ahg-202" value="" style="rounded=0;whiteSpace=wrap;html=1;strokeColor=default;strokeWidth=1;align=center;verticalAlign=middle;fontFamily=Helvetica;fontSize=12;fontColor=default;fillColor=default;rotation=90;" parent="uO17ehAxNxv0Zf3d8ahg-201" vertex="1">
          <mxGeometry x="-25" y="25" width="160" height="110" as="geometry" />
        </mxCell>
        <mxCell id="uO17ehAxNxv0Zf3d8ahg-203" value="~queue_0_empty" style="rounded=0;whiteSpace=wrap;html=1;strokeColor=default;strokeWidth=1;align=center;verticalAlign=middle;fontFamily=Helvetica;fontSize=10;fontColor=default;fillColor=default;" parent="uO17ehAxNxv0Zf3d8ahg-201" vertex="1">
          <mxGeometry width="110" height="20" as="geometry" />
        </mxCell>
        <mxCell id="uO17ehAxNxv0Zf3d8ahg-204" value="&lt;span style=&quot;font-size: 10px;&quot;&gt;~queue_1_empty&lt;/span&gt;" style="rounded=0;whiteSpace=wrap;html=1;strokeColor=default;strokeWidth=1;align=center;verticalAlign=middle;fontFamily=Helvetica;fontSize=12;fontColor=default;fillColor=default;" parent="uO17ehAxNxv0Zf3d8ahg-201" vertex="1">
          <mxGeometry y="20" width="110" height="20" as="geometry" />
        </mxCell>
        <mxCell id="uO17ehAxNxv0Zf3d8ahg-205" value="&lt;span style=&quot;font-size: 10px;&quot;&gt;~queue_2_empty&lt;/span&gt;" style="rounded=0;whiteSpace=wrap;html=1;strokeColor=default;strokeWidth=1;align=center;verticalAlign=middle;fontFamily=Helvetica;fontSize=12;fontColor=default;fillColor=default;" parent="uO17ehAxNxv0Zf3d8ahg-201" vertex="1">
          <mxGeometry y="40" width="110" height="20" as="geometry" />
        </mxCell>
        <mxCell id="uO17ehAxNxv0Zf3d8ahg-206" value="&lt;span style=&quot;font-size: 10px;&quot;&gt;~queue_3_empty&lt;/span&gt;" style="rounded=0;whiteSpace=wrap;html=1;strokeColor=default;strokeWidth=1;align=center;verticalAlign=middle;fontFamily=Helvetica;fontSize=12;fontColor=default;fillColor=default;" parent="uO17ehAxNxv0Zf3d8ahg-201" vertex="1">
          <mxGeometry y="60" width="110" height="20" as="geometry" />
        </mxCell>
        <mxCell id="uO17ehAxNxv0Zf3d8ahg-207" value="&lt;span style=&quot;font-size: 10px;&quot;&gt;~queue_4_empty&lt;/span&gt;" style="rounded=0;whiteSpace=wrap;html=1;strokeColor=default;strokeWidth=1;align=center;verticalAlign=middle;fontFamily=Helvetica;fontSize=12;fontColor=default;fillColor=default;" parent="uO17ehAxNxv0Zf3d8ahg-201" vertex="1">
          <mxGeometry y="80" width="110" height="20" as="geometry" />
        </mxCell>
        <mxCell id="uO17ehAxNxv0Zf3d8ahg-208" value="&lt;span style=&quot;font-size: 10px;&quot;&gt;~queue_5_empty&lt;/span&gt;" style="rounded=0;whiteSpace=wrap;html=1;strokeColor=default;strokeWidth=1;align=center;verticalAlign=middle;fontFamily=Helvetica;fontSize=12;fontColor=default;fillColor=default;" parent="uO17ehAxNxv0Zf3d8ahg-201" vertex="1">
          <mxGeometry y="100" width="110" height="20" as="geometry" />
        </mxCell>
        <mxCell id="uO17ehAxNxv0Zf3d8ahg-209" value="&lt;span style=&quot;font-size: 10px;&quot;&gt;~queue_6_empty&lt;/span&gt;" style="rounded=0;whiteSpace=wrap;html=1;strokeColor=default;strokeWidth=1;align=center;verticalAlign=middle;fontFamily=Helvetica;fontSize=12;fontColor=default;fillColor=default;" parent="uO17ehAxNxv0Zf3d8ahg-201" vertex="1">
          <mxGeometry y="120" width="110" height="20" as="geometry" />
        </mxCell>
        <mxCell id="uO17ehAxNxv0Zf3d8ahg-210" value="&lt;span style=&quot;font-size: 10px;&quot;&gt;~queue_7_empty&lt;/span&gt;" style="rounded=0;whiteSpace=wrap;html=1;strokeColor=default;strokeWidth=1;align=center;verticalAlign=middle;fontFamily=Helvetica;fontSize=12;fontColor=default;fillColor=default;" parent="uO17ehAxNxv0Zf3d8ahg-201" vertex="1">
          <mxGeometry y="140" width="110" height="20" as="geometry" />
        </mxCell>
        <mxCell id="uO17ehAxNxv0Zf3d8ahg-211" value="" style="group;rotation=90;" parent="uO17ehAxNxv0Zf3d8ahg-166" vertex="1" connectable="0">
          <mxGeometry x="60" y="150" width="160" height="20" as="geometry" />
        </mxCell>
        <mxCell id="uO17ehAxNxv0Zf3d8ahg-212" value="" style="rounded=0;whiteSpace=wrap;html=1;strokeColor=default;strokeWidth=1;align=center;verticalAlign=middle;fontFamily=Helvetica;fontSize=12;fontColor=default;fillColor=default;rotation=90;" parent="uO17ehAxNxv0Zf3d8ahg-211" vertex="1">
          <mxGeometry width="160" height="20" as="geometry" />
        </mxCell>
        <mxCell id="uO17ehAxNxv0Zf3d8ahg-213" value="" style="rounded=0;whiteSpace=wrap;html=1;strokeColor=default;strokeWidth=1;align=center;verticalAlign=middle;fontFamily=Helvetica;fontSize=12;fontColor=default;fillColor=#FF3333;rotation=90;" parent="uO17ehAxNxv0Zf3d8ahg-211" vertex="1">
          <mxGeometry x="70" y="-70" width="20" height="20" as="geometry" />
        </mxCell>
        <mxCell id="uO17ehAxNxv0Zf3d8ahg-214" value="" style="rounded=0;whiteSpace=wrap;html=1;strokeColor=default;strokeWidth=1;align=center;verticalAlign=middle;fontFamily=Helvetica;fontSize=12;fontColor=default;fillColor=#FFFFFF;rotation=90;" parent="uO17ehAxNxv0Zf3d8ahg-211" vertex="1">
          <mxGeometry x="70" y="-50" width="20" height="20" as="geometry" />
        </mxCell>
        <mxCell id="uO17ehAxNxv0Zf3d8ahg-215" value="" style="rounded=0;whiteSpace=wrap;html=1;strokeColor=default;strokeWidth=1;align=center;verticalAlign=middle;fontFamily=Helvetica;fontSize=12;fontColor=default;fillColor=default;rotation=90;" parent="uO17ehAxNxv0Zf3d8ahg-211" vertex="1">
          <mxGeometry x="70" y="-30" width="20" height="20" as="geometry" />
        </mxCell>
        <mxCell id="uO17ehAxNxv0Zf3d8ahg-216" value="" style="rounded=0;whiteSpace=wrap;html=1;strokeColor=default;strokeWidth=1;align=center;verticalAlign=middle;fontFamily=Helvetica;fontSize=12;fontColor=default;fillColor=#FFFFFF;rotation=90;" parent="uO17ehAxNxv0Zf3d8ahg-211" vertex="1">
          <mxGeometry x="70" y="-10" width="20" height="20" as="geometry" />
        </mxCell>
        <mxCell id="uO17ehAxNxv0Zf3d8ahg-217" value="" style="rounded=0;whiteSpace=wrap;html=1;strokeColor=default;strokeWidth=1;align=center;verticalAlign=middle;fontFamily=Helvetica;fontSize=12;fontColor=default;fillColor=default;rotation=90;" parent="uO17ehAxNxv0Zf3d8ahg-211" vertex="1">
          <mxGeometry x="70" y="10" width="20" height="20" as="geometry" />
        </mxCell>
        <mxCell id="uO17ehAxNxv0Zf3d8ahg-218" value="" style="rounded=0;whiteSpace=wrap;html=1;strokeColor=default;strokeWidth=1;align=center;verticalAlign=middle;fontFamily=Helvetica;fontSize=12;fontColor=default;fillColor=default;rotation=90;" parent="uO17ehAxNxv0Zf3d8ahg-211" vertex="1">
          <mxGeometry x="70" y="30" width="20" height="20" as="geometry" />
        </mxCell>
        <mxCell id="uO17ehAxNxv0Zf3d8ahg-219" value="" style="rounded=0;whiteSpace=wrap;html=1;strokeColor=default;strokeWidth=1;align=center;verticalAlign=middle;fontFamily=Helvetica;fontSize=12;fontColor=default;fillColor=#FF3333;rotation=90;" parent="uO17ehAxNxv0Zf3d8ahg-211" vertex="1">
          <mxGeometry x="70" y="50" width="20" height="20" as="geometry" />
        </mxCell>
        <mxCell id="uO17ehAxNxv0Zf3d8ahg-220" value="" style="rounded=0;whiteSpace=wrap;html=1;strokeColor=default;strokeWidth=1;align=center;verticalAlign=middle;fontFamily=Helvetica;fontSize=12;fontColor=default;fillColor=default;rotation=90;" parent="uO17ehAxNxv0Zf3d8ahg-211" vertex="1">
          <mxGeometry x="70" y="70" width="20" height="20" as="geometry" />
        </mxCell>
        <mxCell id="uO17ehAxNxv0Zf3d8ahg-221" value="" style="endArrow=classic;html=1;rounded=0;fontFamily=Helvetica;fontSize=12;fontColor=default;exitX=0;exitY=0;exitDx=0;exitDy=0;entryX=1;entryY=1;entryDx=0;entryDy=0;" parent="uO17ehAxNxv0Zf3d8ahg-166" source="uO17ehAxNxv0Zf3d8ahg-217" target="uO17ehAxNxv0Zf3d8ahg-173" edge="1">
          <mxGeometry width="50" height="50" relative="1" as="geometry">
            <mxPoint x="165" y="160" as="sourcePoint" />
            <mxPoint x="215" y="110" as="targetPoint" />
            <Array as="points">
              <mxPoint x="250" y="160" />
            </Array>
          </mxGeometry>
        </mxCell>
        <mxCell id="uO17ehAxNxv0Zf3d8ahg-222" value="端口空闲指示码&lt;br&gt;&lt;span style=&quot;font-weight: normal;&quot;&gt;&lt;font style=&quot;font-size: 11px;&quot;&gt;(各队列是否有数据)&lt;/font&gt;&lt;/span&gt;" style="rounded=1;whiteSpace=wrap;html=1;strokeColor=none;strokeWidth=1;align=center;verticalAlign=middle;fontFamily=Helvetica;fontSize=12;fontColor=default;fillColor=none;fontStyle=1" parent="uO17ehAxNxv0Zf3d8ahg-166" vertex="1">
          <mxGeometry y="250" width="110" height="40" as="geometry" />
        </mxCell>
        <mxCell id="uO17ehAxNxv0Zf3d8ahg-223" value="" style="rounded=0;whiteSpace=wrap;html=1;strokeColor=default;strokeWidth=1;align=center;verticalAlign=middle;fontFamily=Helvetica;fontSize=12;fontColor=default;fillColor=default;" parent="uO17ehAxNxv0Zf3d8ahg-166" vertex="1">
          <mxGeometry x="590" y="20" width="20" height="220" as="geometry" />
        </mxCell>
        <mxCell id="uO17ehAxNxv0Zf3d8ahg-224" value="" style="rounded=0;whiteSpace=wrap;html=1;strokeColor=default;strokeWidth=1;align=center;verticalAlign=middle;fontFamily=Helvetica;fontSize=12;fontColor=default;fillColor=#FF8000;" parent="uO17ehAxNxv0Zf3d8ahg-166" vertex="1">
          <mxGeometry x="590" y="150" width="20" height="20" as="geometry" />
        </mxCell>
        <mxCell id="uO17ehAxNxv0Zf3d8ahg-225" value="" style="rounded=0;whiteSpace=wrap;html=1;strokeColor=default;strokeWidth=1;align=center;verticalAlign=middle;fontFamily=Helvetica;fontSize=12;fontColor=default;fillColor=default;" parent="uO17ehAxNxv0Zf3d8ahg-166" vertex="1">
          <mxGeometry x="590" y="20" width="20" height="20" as="geometry" />
        </mxCell>
        <mxCell id="uO17ehAxNxv0Zf3d8ahg-226" value="" style="rounded=0;whiteSpace=wrap;html=1;strokeColor=default;strokeWidth=1;align=center;verticalAlign=middle;fontFamily=Helvetica;fontSize=12;fontColor=default;fillColor=default;" parent="uO17ehAxNxv0Zf3d8ahg-166" vertex="1">
          <mxGeometry x="590" y="40" width="20" height="20" as="geometry" />
        </mxCell>
        <mxCell id="uO17ehAxNxv0Zf3d8ahg-227" value="..." style="rounded=0;whiteSpace=wrap;html=1;strokeColor=default;strokeWidth=1;align=center;verticalAlign=middle;fontFamily=Helvetica;fontSize=12;fontColor=default;fillColor=default;" parent="uO17ehAxNxv0Zf3d8ahg-166" vertex="1">
          <mxGeometry x="590" y="60" width="20" height="90" as="geometry" />
        </mxCell>
        <mxCell id="uO17ehAxNxv0Zf3d8ahg-228" value="..." style="rounded=0;whiteSpace=wrap;html=1;strokeColor=default;strokeWidth=1;align=center;verticalAlign=middle;fontFamily=Helvetica;fontSize=12;fontColor=default;fillColor=default;" parent="uO17ehAxNxv0Zf3d8ahg-166" vertex="1">
          <mxGeometry x="590" y="170" width="20" height="50" as="geometry" />
        </mxCell>
        <mxCell id="uO17ehAxNxv0Zf3d8ahg-229" value="" style="rounded=0;whiteSpace=wrap;html=1;strokeColor=default;strokeWidth=1;align=center;verticalAlign=middle;fontFamily=Helvetica;fontSize=12;fontColor=default;fillColor=default;" parent="uO17ehAxNxv0Zf3d8ahg-166" vertex="1">
          <mxGeometry x="590" y="220" width="20" height="20" as="geometry" />
        </mxCell>
        <mxCell id="uO17ehAxNxv0Zf3d8ahg-230" value="Port #0" style="rounded=0;whiteSpace=wrap;html=1;strokeColor=none;strokeWidth=1;align=left;verticalAlign=middle;fontFamily=Helvetica;fontSize=12;fontColor=default;fillColor=none;" parent="uO17ehAxNxv0Zf3d8ahg-166" vertex="1">
          <mxGeometry x="620" y="20" width="50" height="20" as="geometry" />
        </mxCell>
        <mxCell id="uO17ehAxNxv0Zf3d8ahg-231" value="Port #1" style="rounded=0;whiteSpace=wrap;html=1;strokeColor=none;strokeWidth=1;align=left;verticalAlign=middle;fontFamily=Helvetica;fontSize=12;fontColor=default;fillColor=none;" parent="uO17ehAxNxv0Zf3d8ahg-166" vertex="1">
          <mxGeometry x="620" y="40" width="50" height="20" as="geometry" />
        </mxCell>
        <mxCell id="uO17ehAxNxv0Zf3d8ahg-232" value="Port #M" style="rounded=0;whiteSpace=wrap;html=1;strokeColor=none;strokeWidth=1;align=left;verticalAlign=middle;fontFamily=Helvetica;fontSize=12;fontColor=default;fillColor=none;" parent="uO17ehAxNxv0Zf3d8ahg-166" vertex="1">
          <mxGeometry x="620" y="150" width="50" height="20" as="geometry" />
        </mxCell>
        <mxCell id="uO17ehAxNxv0Zf3d8ahg-233" value="Port #16" style="rounded=0;whiteSpace=wrap;html=1;strokeColor=none;strokeWidth=1;align=center;verticalAlign=middle;fontFamily=Helvetica;fontSize=12;fontColor=default;fillColor=none;" parent="uO17ehAxNxv0Zf3d8ahg-166" vertex="1">
          <mxGeometry x="620" y="220" width="50" height="20" as="geometry" />
        </mxCell>
        <mxCell id="uO17ehAxNxv0Zf3d8ahg-234" value="SRAM请求指示码&lt;br&gt;&lt;span style=&quot;font-weight: normal;&quot;&gt;&lt;font style=&quot;font-size: 11px;&quot;&gt;(各端口是否正在请求)&lt;/font&gt;&lt;/span&gt;" style="rounded=1;whiteSpace=wrap;html=1;strokeColor=none;strokeWidth=1;align=center;verticalAlign=middle;fontFamily=Helvetica;fontSize=12;fontColor=default;fillColor=none;fontStyle=1" parent="uO17ehAxNxv0Zf3d8ahg-166" vertex="1">
          <mxGeometry x="545" y="250" width="110" height="40" as="geometry" />
        </mxCell>
        <mxCell id="uO17ehAxNxv0Zf3d8ahg-235" value="若可读取队列数为0&lt;br&gt;则直接通过端口空闲指示码&lt;br&gt;获取应读取的队列" style="rounded=0;whiteSpace=wrap;html=1;strokeColor=none;strokeWidth=1;align=left;verticalAlign=middle;fontFamily=Helvetica;fontSize=12;fontColor=default;fillColor=none;fontStyle=1" parent="uO17ehAxNxv0Zf3d8ahg-166" vertex="1">
          <mxGeometry x="200" y="180" width="150" height="60" as="geometry" />
        </mxCell>
        <mxCell id="uO17ehAxNxv0Zf3d8ahg-236" value="" style="group" parent="uO17ehAxNxv0Zf3d8ahg-166" vertex="1" connectable="0">
          <mxGeometry x="400" y="70" width="160" height="20" as="geometry" />
        </mxCell>
        <mxCell id="uO17ehAxNxv0Zf3d8ahg-237" value="" style="rounded=0;whiteSpace=wrap;html=1;strokeColor=default;strokeWidth=1;align=center;verticalAlign=middle;fontFamily=Helvetica;fontSize=12;fontColor=default;fillColor=default;" parent="uO17ehAxNxv0Zf3d8ahg-236" vertex="1">
          <mxGeometry width="160" height="20" as="geometry" />
        </mxCell>
        <mxCell id="uO17ehAxNxv0Zf3d8ahg-238" value="" style="rounded=0;whiteSpace=wrap;html=1;strokeColor=default;strokeWidth=1;align=center;verticalAlign=middle;fontFamily=Helvetica;fontSize=12;fontColor=default;fillColor=#FF3333;" parent="uO17ehAxNxv0Zf3d8ahg-236" vertex="1">
          <mxGeometry width="20" height="20" as="geometry" />
        </mxCell>
        <mxCell id="uO17ehAxNxv0Zf3d8ahg-239" value="" style="rounded=0;whiteSpace=wrap;html=1;strokeColor=default;strokeWidth=1;align=center;verticalAlign=middle;fontFamily=Helvetica;fontSize=12;fontColor=default;fillColor=#FFFFFF;" parent="uO17ehAxNxv0Zf3d8ahg-236" vertex="1">
          <mxGeometry x="20" width="20" height="20" as="geometry" />
        </mxCell>
        <mxCell id="uO17ehAxNxv0Zf3d8ahg-240" value="" style="rounded=0;whiteSpace=wrap;html=1;strokeColor=default;strokeWidth=1;align=center;verticalAlign=middle;fontFamily=Helvetica;fontSize=12;fontColor=default;fillColor=default;" parent="uO17ehAxNxv0Zf3d8ahg-236" vertex="1">
          <mxGeometry x="40" width="20" height="20" as="geometry" />
        </mxCell>
        <mxCell id="uO17ehAxNxv0Zf3d8ahg-241" value="" style="rounded=0;whiteSpace=wrap;html=1;strokeColor=default;strokeWidth=1;align=center;verticalAlign=middle;fontFamily=Helvetica;fontSize=12;fontColor=default;fillColor=#FFFFFF;" parent="uO17ehAxNxv0Zf3d8ahg-236" vertex="1">
          <mxGeometry x="60" width="20" height="20" as="geometry" />
        </mxCell>
        <mxCell id="uO17ehAxNxv0Zf3d8ahg-242" value="" style="rounded=0;whiteSpace=wrap;html=1;strokeColor=default;strokeWidth=1;align=center;verticalAlign=middle;fontFamily=Helvetica;fontSize=12;fontColor=default;fillColor=default;" parent="uO17ehAxNxv0Zf3d8ahg-236" vertex="1">
          <mxGeometry x="80" width="20" height="20" as="geometry" />
        </mxCell>
        <mxCell id="uO17ehAxNxv0Zf3d8ahg-243" value="" style="rounded=0;whiteSpace=wrap;html=1;strokeColor=default;strokeWidth=1;align=center;verticalAlign=middle;fontFamily=Helvetica;fontSize=12;fontColor=default;fillColor=default;" parent="uO17ehAxNxv0Zf3d8ahg-236" vertex="1">
          <mxGeometry x="100" width="20" height="20" as="geometry" />
        </mxCell>
        <mxCell id="uO17ehAxNxv0Zf3d8ahg-244" value="" style="rounded=0;whiteSpace=wrap;html=1;strokeColor=default;strokeWidth=1;align=center;verticalAlign=middle;fontFamily=Helvetica;fontSize=12;fontColor=default;fillColor=#FF3333;" parent="uO17ehAxNxv0Zf3d8ahg-236" vertex="1">
          <mxGeometry x="120" width="20" height="20" as="geometry" />
        </mxCell>
        <mxCell id="uO17ehAxNxv0Zf3d8ahg-245" value="" style="rounded=0;whiteSpace=wrap;html=1;strokeColor=default;strokeWidth=1;align=center;verticalAlign=middle;fontFamily=Helvetica;fontSize=12;fontColor=default;fillColor=default;" parent="uO17ehAxNxv0Zf3d8ahg-236" vertex="1">
          <mxGeometry x="140" width="20" height="20" as="geometry" />
        </mxCell>
        <mxCell id="uO17ehAxNxv0Zf3d8ahg-246" style="edgeStyle=orthogonalEdgeStyle;rounded=0;orthogonalLoop=1;jettySize=auto;html=1;exitX=1;exitY=1;exitDx=0;exitDy=0;entryX=0;entryY=0.5;entryDx=0;entryDy=0;fontFamily=Helvetica;fontSize=12;fontColor=default;" parent="uO17ehAxNxv0Zf3d8ahg-166" source="uO17ehAxNxv0Zf3d8ahg-175" target="uO17ehAxNxv0Zf3d8ahg-238" edge="1">
          <mxGeometry relative="1" as="geometry" />
        </mxCell>
        <mxCell id="uO17ehAxNxv0Zf3d8ahg-247" value="" style="edgeStyle=orthogonalEdgeStyle;rounded=0;orthogonalLoop=1;jettySize=auto;html=1;exitX=0.75;exitY=1;exitDx=0;exitDy=0;entryX=0;entryY=0.25;entryDx=0;entryDy=0;fontFamily=Helvetica;fontSize=12;fontColor=default;entryPerimeter=0;" parent="uO17ehAxNxv0Zf3d8ahg-166" source="uO17ehAxNxv0Zf3d8ahg-248" target="uO17ehAxNxv0Zf3d8ahg-252" edge="1">
          <mxGeometry relative="1" as="geometry">
            <mxPoint x="410" y="150" as="sourcePoint" />
            <mxPoint x="570" y="210" as="targetPoint" />
            <Array as="points">
              <mxPoint x="410" y="150" />
            </Array>
          </mxGeometry>
        </mxCell>
        <mxCell id="uO17ehAxNxv0Zf3d8ahg-248" value="&lt;h2 class=&quot;&quot; style=&quot;box-sizing: border-box; padding: 1rem; margin: 0px; outline: 0px; font-weight: 700; line-height: 22px; font-size: 16px; border-bottom: 1px solid var(--bd_01); position: relative; color: rgb(63, 66, 87); font-family: -apple-system, BlinkMacSystemFont, &amp;quot;Segoe UI&amp;quot;, Roboto, &amp;quot;Helvetica Neue&amp;quot;, Arial, &amp;quot;Noto Sans&amp;quot;, sans-serif, &amp;quot;Apple Color Emoji&amp;quot;, &amp;quot;Segoe UI Emoji&amp;quot;, &amp;quot;Segoe UI Symbol&amp;quot;, &amp;quot;Noto Color Emoji&amp;quot;; font-style: normal; font-variant-ligatures: normal; font-variant-caps: normal; letter-spacing: normal; orphans: 2; text-align: start; text-indent: 0px; text-transform: none; widows: 2; word-spacing: 0px; -webkit-text-stroke-width: 0px; white-space: normal; text-decoration-thickness: initial; text-decoration-style: initial; text-decoration-color: initial;&quot;&gt;&lt;span class=&quot;emoji_font line&quot; style=&quot;box-sizing: border-box; padding: 0px; margin: 0px 2px 0px 0px; outline: 0px; display: inline-flex; font-style: normal; font-weight: 400; font-family: var(--font-emoji); direction: initial; align-items: center; justify-content: center; min-width: 1.5em;&quot;&gt;✅&lt;/span&gt;&lt;/h2&gt;" style="text;whiteSpace=wrap;html=1;fontFamily=Helvetica;fontSize=12;fontColor=default;" parent="uO17ehAxNxv0Zf3d8ahg-166" vertex="1">
          <mxGeometry x="380" y="70" width="40" height="40" as="geometry" />
        </mxCell>
        <mxCell id="uO17ehAxNxv0Zf3d8ahg-249" value="WRR位掩码" style="rounded=1;whiteSpace=wrap;html=1;shadow=0;labelBackgroundColor=none;strokeWidth=1;fontFamily=Verdana;fontSize=10;align=center;fontStyle=1;fillColor=none;strokeColor=none;" parent="uO17ehAxNxv0Zf3d8ahg-166" vertex="1">
          <mxGeometry x="10" width="60" height="20" as="geometry" />
        </mxCell>
        <mxCell id="uO17ehAxNxv0Zf3d8ahg-250" value="&lt;b&gt;ready信号&lt;/b&gt;" style="rounded=1;whiteSpace=wrap;html=1;shadow=0;labelBackgroundColor=none;strokeWidth=1;fontFamily=Verdana;fontSize=8;align=center;" parent="uO17ehAxNxv0Zf3d8ahg-166" vertex="1">
          <mxGeometry x="380" y="210" width="60" height="20" as="geometry" />
        </mxCell>
        <mxCell id="uO17ehAxNxv0Zf3d8ahg-251" style="edgeStyle=orthogonalEdgeStyle;rounded=0;orthogonalLoop=1;jettySize=auto;html=1;exitX=1;exitY=0.5;exitDx=0;exitDy=0;exitPerimeter=0;entryX=0;entryY=0.5;entryDx=0;entryDy=0;" parent="uO17ehAxNxv0Zf3d8ahg-166" source="uO17ehAxNxv0Zf3d8ahg-252" target="uO17ehAxNxv0Zf3d8ahg-224" edge="1">
          <mxGeometry relative="1" as="geometry" />
        </mxCell>
        <mxCell id="uO17ehAxNxv0Zf3d8ahg-252" value="AND" style="shape=or;whiteSpace=wrap;html=1;strokeColor=default;strokeWidth=1;align=center;verticalAlign=middle;fontFamily=Helvetica;fontSize=12;fontColor=default;fillColor=default;" parent="uO17ehAxNxv0Zf3d8ahg-166" vertex="1">
          <mxGeometry x="500" y="140" width="40" height="40" as="geometry" />
        </mxCell>
        <mxCell id="uO17ehAxNxv0Zf3d8ahg-253" style="edgeStyle=orthogonalEdgeStyle;rounded=0;orthogonalLoop=1;jettySize=auto;html=1;exitX=0.5;exitY=0;exitDx=0;exitDy=0;entryX=0;entryY=0.75;entryDx=0;entryDy=0;entryPerimeter=0;" parent="uO17ehAxNxv0Zf3d8ahg-166" source="uO17ehAxNxv0Zf3d8ahg-250" target="uO17ehAxNxv0Zf3d8ahg-252" edge="1">
          <mxGeometry relative="1" as="geometry" />
        </mxCell>
        <mxCell id="uO17ehAxNxv0Zf3d8ahg-254" value="WRR位掩码" style="rounded=1;whiteSpace=wrap;html=1;shadow=0;labelBackgroundColor=none;strokeWidth=1;fontFamily=Verdana;fontSize=10;align=center;fontStyle=1;fillColor=none;strokeColor=none;" parent="1" vertex="1">
          <mxGeometry x="230" y="560" width="60" height="20" as="geometry" />
        </mxCell>
        <mxCell id="uO17ehAxNxv0Zf3d8ahg-255" value="" style="rounded=0;whiteSpace=wrap;html=1;strokeColor=default;strokeWidth=1;align=center;verticalAlign=middle;fontFamily=Helvetica;fontSize=12;fontColor=default;fillColor=default;" parent="1" vertex="1">
          <mxGeometry x="1010" y="760" width="20" height="220" as="geometry" />
        </mxCell>
        <mxCell id="uO17ehAxNxv0Zf3d8ahg-256" value="" style="rounded=0;whiteSpace=wrap;html=1;strokeColor=default;strokeWidth=1;align=center;verticalAlign=middle;fontFamily=Helvetica;fontSize=12;fontColor=default;fillColor=#FF8000;" parent="1" vertex="1">
          <mxGeometry x="1010" y="850" width="20" height="20" as="geometry" />
        </mxCell>
        <mxCell id="uO17ehAxNxv0Zf3d8ahg-257" value="" style="rounded=0;whiteSpace=wrap;html=1;strokeColor=default;strokeWidth=1;align=center;verticalAlign=middle;fontFamily=Helvetica;fontSize=12;fontColor=default;fillColor=default;" parent="1" vertex="1">
          <mxGeometry x="1010" y="760" width="20" height="20" as="geometry" />
        </mxCell>
        <mxCell id="uO17ehAxNxv0Zf3d8ahg-258" value="" style="rounded=0;whiteSpace=wrap;html=1;strokeColor=default;strokeWidth=1;align=center;verticalAlign=middle;fontFamily=Helvetica;fontSize=12;fontColor=default;fillColor=#FF8000;" parent="1" vertex="1">
          <mxGeometry x="1010" y="780" width="20" height="20" as="geometry" />
        </mxCell>
        <mxCell id="uO17ehAxNxv0Zf3d8ahg-259" value="..." style="rounded=0;whiteSpace=wrap;html=1;strokeColor=default;strokeWidth=1;align=center;verticalAlign=middle;fontFamily=Helvetica;fontSize=12;fontColor=default;fillColor=default;" parent="1" vertex="1">
          <mxGeometry x="1010" y="800" width="20" height="50" as="geometry" />
        </mxCell>
        <mxCell id="uO17ehAxNxv0Zf3d8ahg-260" value="..." style="rounded=0;whiteSpace=wrap;html=1;strokeColor=default;strokeWidth=1;align=center;verticalAlign=middle;fontFamily=Helvetica;fontSize=12;fontColor=default;fillColor=default;" parent="1" vertex="1">
          <mxGeometry x="1010" y="870" width="20" height="90" as="geometry" />
        </mxCell>
        <mxCell id="uO17ehAxNxv0Zf3d8ahg-261" value="" style="rounded=0;whiteSpace=wrap;html=1;strokeColor=default;strokeWidth=1;align=center;verticalAlign=middle;fontFamily=Helvetica;fontSize=12;fontColor=default;fillColor=#FF8000;" parent="1" vertex="1">
          <mxGeometry x="1010" y="960" width="20" height="20" as="geometry" />
        </mxCell>
        <mxCell id="uO17ehAxNxv0Zf3d8ahg-262" value="Port #0" style="rounded=0;whiteSpace=wrap;html=1;strokeColor=none;strokeWidth=1;align=right;verticalAlign=middle;fontFamily=Helvetica;fontSize=12;fontColor=default;fillColor=none;" parent="1" vertex="1">
          <mxGeometry x="950" y="760" width="50" height="20" as="geometry" />
        </mxCell>
        <mxCell id="uO17ehAxNxv0Zf3d8ahg-263" value="Port #1" style="rounded=0;whiteSpace=wrap;html=1;strokeColor=none;strokeWidth=1;align=right;verticalAlign=middle;fontFamily=Helvetica;fontSize=12;fontColor=default;fillColor=none;" parent="1" vertex="1">
          <mxGeometry x="950" y="780" width="50" height="20" as="geometry" />
        </mxCell>
        <mxCell id="uO17ehAxNxv0Zf3d8ahg-264" value="Port #N" style="rounded=0;whiteSpace=wrap;html=1;strokeColor=none;strokeWidth=1;align=right;verticalAlign=middle;fontFamily=Helvetica;fontSize=12;fontColor=default;fillColor=none;" parent="1" vertex="1">
          <mxGeometry x="950" y="850" width="50" height="20" as="geometry" />
        </mxCell>
        <mxCell id="uO17ehAxNxv0Zf3d8ahg-265" value="Port #16" style="rounded=0;whiteSpace=wrap;html=1;strokeColor=none;strokeWidth=1;align=right;verticalAlign=middle;fontFamily=Helvetica;fontSize=12;fontColor=default;fillColor=none;" parent="1" vertex="1">
          <mxGeometry x="950" y="960" width="50" height="20" as="geometry" />
        </mxCell>
        <mxCell id="uO17ehAxNxv0Zf3d8ahg-266" value="SRAM请求指示码&lt;br&gt;&lt;span style=&quot;font-weight: normal;&quot;&gt;&lt;font style=&quot;font-size: 11px;&quot;&gt;(各端口是否正在请求)&lt;/font&gt;&lt;/span&gt;" style="rounded=1;whiteSpace=wrap;html=1;strokeColor=none;strokeWidth=1;align=center;verticalAlign=middle;fontFamily=Helvetica;fontSize=12;fontColor=default;fillColor=none;fontStyle=1" parent="1" vertex="1">
          <mxGeometry x="1040" y="860" width="110" height="40" as="geometry" />
        </mxCell>
        <mxCell id="uO17ehAxNxv0Zf3d8ahg-269" value="" style="shape=curlyBracket;whiteSpace=wrap;html=1;rounded=1;flipH=1;labelPosition=right;verticalLabelPosition=middle;align=left;verticalAlign=middle;size=0.5;" parent="1" vertex="1">
          <mxGeometry x="900" y="560" width="40" height="640" as="geometry" />
        </mxCell>
        <mxCell id="uO17ehAxNxv0Zf3d8ahg-270" value="&lt;b&gt;ready信号&lt;/b&gt;" style="rounded=1;whiteSpace=wrap;html=1;shadow=0;labelBackgroundColor=none;strokeWidth=1;fontFamily=Verdana;fontSize=8;align=center;" parent="1" vertex="1">
          <mxGeometry x="620" y="740" width="60" height="20" as="geometry" />
        </mxCell>
        <mxCell id="uO17ehAxNxv0Zf3d8ahg-271" style="edgeStyle=orthogonalEdgeStyle;rounded=0;orthogonalLoop=1;jettySize=auto;html=1;exitX=1;exitY=0.5;exitDx=0;exitDy=0;exitPerimeter=0;entryX=0;entryY=0.5;entryDx=0;entryDy=0;" parent="1" source="uO17ehAxNxv0Zf3d8ahg-272" target="uO17ehAxNxv0Zf3d8ahg-154" edge="1">
          <mxGeometry relative="1" as="geometry" />
        </mxCell>
        <mxCell id="uO17ehAxNxv0Zf3d8ahg-272" value="AND" style="shape=or;whiteSpace=wrap;html=1;strokeColor=default;strokeWidth=1;align=center;verticalAlign=middle;fontFamily=Helvetica;fontSize=12;fontColor=default;fillColor=default;" parent="1" vertex="1">
          <mxGeometry x="720" y="660" width="40" height="40" as="geometry" />
        </mxCell>
        <mxCell id="uO17ehAxNxv0Zf3d8ahg-273" style="edgeStyle=orthogonalEdgeStyle;rounded=0;orthogonalLoop=1;jettySize=auto;html=1;exitX=0.5;exitY=0;exitDx=0;exitDy=0;entryX=0;entryY=0.75;entryDx=0;entryDy=0;entryPerimeter=0;" parent="1" source="uO17ehAxNxv0Zf3d8ahg-270" target="uO17ehAxNxv0Zf3d8ahg-272" edge="1">
          <mxGeometry relative="1" as="geometry" />
        </mxCell>
        <mxCell id="uO17ehAxNxv0Zf3d8ahg-279" value="rd_sop&lt;div&gt;拉高&lt;/div&gt;" style="rounded=1;whiteSpace=wrap;html=1;shadow=0;labelBackgroundColor=none;strokeWidth=1;fontFamily=Verdana;fontSize=8;align=center;" parent="1" vertex="1">
          <mxGeometry x="1199.5" y="1060" width="50" height="40" as="geometry" />
        </mxCell>
        <mxCell id="uO17ehAxNxv0Zf3d8ahg-280" value="分配调度任务&lt;br&gt;(请求指示码)&lt;br&gt;等待握手" style="rounded=1;whiteSpace=wrap;html=1;shadow=0;labelBackgroundColor=none;strokeWidth=1;fontFamily=Verdana;fontSize=8;align=center;" parent="1" vertex="1">
          <mxGeometry x="1199.5" y="1110" width="50" height="40" as="geometry" />
        </mxCell>
        <mxCell id="uO17ehAxNxv0Zf3d8ahg-285" value="握手成功&lt;br&gt;获得批次&lt;br&gt;长度(N)" style="rounded=1;whiteSpace=wrap;html=1;shadow=0;labelBackgroundColor=none;strokeWidth=1;fontFamily=Verdana;fontSize=8;align=center;" parent="1" vertex="1">
          <mxGeometry x="1379.5" y="1110" width="50" height="40" as="geometry" />
        </mxCell>
        <mxCell id="uO17ehAxNxv0Zf3d8ahg-287" value="rd_vld&lt;br&gt;拉高" style="rounded=1;whiteSpace=wrap;html=1;shadow=0;labelBackgroundColor=none;strokeWidth=1;fontFamily=Verdana;fontSize=8;align=center;" parent="1" vertex="1">
          <mxGeometry x="1379.5" y="1160" width="50" height="40" as="geometry" />
        </mxCell>
        <mxCell id="uO17ehAxNxv0Zf3d8ahg-288" value="rd_data&lt;br&gt;ECC校验器&lt;br&gt;输出#0" style="rounded=1;whiteSpace=wrap;html=1;shadow=0;labelBackgroundColor=none;strokeWidth=1;fontFamily=Verdana;fontSize=8;align=center;" parent="1" vertex="1">
          <mxGeometry x="1379.5" y="1210" width="50" height="40" as="geometry" />
        </mxCell>
        <mxCell id="uO17ehAxNxv0Zf3d8ahg-289" value="rd_data&lt;br&gt;ECC校验器&lt;br&gt;输出#1" style="rounded=1;whiteSpace=wrap;html=1;shadow=0;labelBackgroundColor=none;strokeWidth=1;fontFamily=Verdana;fontSize=8;align=center;" parent="1" vertex="1">
          <mxGeometry x="1439.5" y="1210" width="50" height="40" as="geometry" />
        </mxCell>
        <mxCell id="uO17ehAxNxv0Zf3d8ahg-290" value="rd_data&lt;br&gt;ECC校验器&lt;br&gt;输出#2" style="rounded=1;whiteSpace=wrap;html=1;shadow=0;labelBackgroundColor=none;strokeWidth=1;fontFamily=Verdana;fontSize=8;align=center;" parent="1" vertex="1">
          <mxGeometry x="1499.5" y="1210" width="50" height="40" as="geometry" />
        </mxCell>
        <mxCell id="uO17ehAxNxv0Zf3d8ahg-291" value="" style="endArrow=none;dashed=1;html=1;rounded=0;" parent="1" edge="1">
          <mxGeometry width="50" height="50" relative="1" as="geometry">
            <mxPoint x="1559.5" y="1230" as="sourcePoint" />
            <mxPoint x="1609.5" y="1230" as="targetPoint" />
          </mxGeometry>
        </mxCell>
        <mxCell id="uO17ehAxNxv0Zf3d8ahg-292" value="rd_data&lt;br&gt;ECC校验器&lt;br&gt;输出#(N-1)" style="rounded=1;whiteSpace=wrap;html=1;shadow=0;labelBackgroundColor=none;strokeWidth=1;fontFamily=Verdana;fontSize=8;align=center;" parent="1" vertex="1">
          <mxGeometry x="1619.5" y="1210" width="50" height="40" as="geometry" />
        </mxCell>
        <mxCell id="uO17ehAxNxv0Zf3d8ahg-293" value="rd_vld&lt;br&gt;拉低" style="rounded=1;whiteSpace=wrap;html=1;shadow=0;labelBackgroundColor=none;strokeWidth=1;fontFamily=Verdana;fontSize=8;align=center;" parent="1" vertex="1">
          <mxGeometry x="1619.5" y="1160" width="50" height="40" as="geometry" />
        </mxCell>
        <mxCell id="uO17ehAxNxv0Zf3d8ahg-294" value="本批次握手&lt;br&gt;处理完毕&lt;br&gt;等待下次握手" style="rounded=1;whiteSpace=wrap;html=1;shadow=0;labelBackgroundColor=none;strokeWidth=1;fontFamily=Verdana;fontSize=8;align=center;fillColor=default;" parent="1" vertex="1">
          <mxGeometry x="1619.5" y="1110" width="50" height="40" as="geometry" />
        </mxCell>
        <mxCell id="uO17ehAxNxv0Zf3d8ahg-306" value="握手成功&lt;br&gt;获得批次&lt;br&gt;长度(M)" style="rounded=1;whiteSpace=wrap;html=1;shadow=0;labelBackgroundColor=none;strokeWidth=1;fontFamily=Verdana;fontSize=8;align=center;" parent="1" vertex="1">
          <mxGeometry x="1799.5" y="1110" width="50" height="40" as="geometry" />
        </mxCell>
        <mxCell id="uO17ehAxNxv0Zf3d8ahg-307" value="rd_vld&lt;br&gt;拉高" style="rounded=1;whiteSpace=wrap;html=1;shadow=0;labelBackgroundColor=none;strokeWidth=1;fontFamily=Verdana;fontSize=8;align=center;" parent="1" vertex="1">
          <mxGeometry x="1799.5" y="1160" width="50" height="40" as="geometry" />
        </mxCell>
        <mxCell id="uO17ehAxNxv0Zf3d8ahg-308" value="rd_data&lt;br&gt;ECC校验器&lt;br&gt;输出#0" style="rounded=1;whiteSpace=wrap;html=1;shadow=0;labelBackgroundColor=none;strokeWidth=1;fontFamily=Verdana;fontSize=8;align=center;" parent="1" vertex="1">
          <mxGeometry x="1799.5" y="1210" width="50" height="40" as="geometry" />
        </mxCell>
        <mxCell id="uO17ehAxNxv0Zf3d8ahg-309" value="rd_data&lt;br&gt;ECC校验器&lt;br&gt;输出#1" style="rounded=1;whiteSpace=wrap;html=1;shadow=0;labelBackgroundColor=none;strokeWidth=1;fontFamily=Verdana;fontSize=8;align=center;" parent="1" vertex="1">
          <mxGeometry x="1859.5" y="1210" width="50" height="40" as="geometry" />
        </mxCell>
        <mxCell id="uO17ehAxNxv0Zf3d8ahg-310" value="rd_data&lt;br&gt;ECC校验器&lt;br&gt;输出#2" style="rounded=1;whiteSpace=wrap;html=1;shadow=0;labelBackgroundColor=none;strokeWidth=1;fontFamily=Verdana;fontSize=8;align=center;" parent="1" vertex="1">
          <mxGeometry x="1919.5" y="1210" width="50" height="40" as="geometry" />
        </mxCell>
        <mxCell id="uO17ehAxNxv0Zf3d8ahg-311" value="" style="endArrow=none;dashed=1;html=1;rounded=0;" parent="1" edge="1">
          <mxGeometry width="50" height="50" relative="1" as="geometry">
            <mxPoint x="1979.5" y="1230" as="sourcePoint" />
            <mxPoint x="2029.5" y="1230" as="targetPoint" />
          </mxGeometry>
        </mxCell>
        <mxCell id="uO17ehAxNxv0Zf3d8ahg-312" value="rd_data&lt;br&gt;ECC校验器&lt;br&gt;输出#(M-1)" style="rounded=1;whiteSpace=wrap;html=1;shadow=0;labelBackgroundColor=none;strokeWidth=1;fontFamily=Verdana;fontSize=8;align=center;" parent="1" vertex="1">
          <mxGeometry x="2039.5" y="1210" width="50" height="40" as="geometry" />
        </mxCell>
        <mxCell id="uO17ehAxNxv0Zf3d8ahg-313" value="本批次握手&lt;br&gt;处理完毕&lt;br&gt;终止信号" style="rounded=1;whiteSpace=wrap;html=1;shadow=0;labelBackgroundColor=none;strokeWidth=1;fontFamily=Verdana;fontSize=8;align=center;" parent="1" vertex="1">
          <mxGeometry x="2039.5" y="1110" width="50" height="40" as="geometry" />
        </mxCell>
        <mxCell id="uO17ehAxNxv0Zf3d8ahg-316" value="rd_vld&lt;br&gt;拉低" style="rounded=1;whiteSpace=wrap;html=1;shadow=0;labelBackgroundColor=none;strokeWidth=1;fontFamily=Verdana;fontSize=8;align=center;" parent="1" vertex="1">
          <mxGeometry x="2039.5" y="1160" width="50" height="40" as="geometry" />
        </mxCell>
        <mxCell id="uO17ehAxNxv0Zf3d8ahg-317" value="rd_sop&lt;div&gt;拉低&lt;/div&gt;" style="rounded=1;whiteSpace=wrap;html=1;shadow=0;labelBackgroundColor=none;strokeWidth=1;fontFamily=Verdana;fontSize=8;align=center;" parent="1" vertex="1">
          <mxGeometry x="2039.5" y="1060" width="50" height="40" as="geometry" />
        </mxCell>
        <mxCell id="uO17ehAxNxv0Zf3d8ahg-318" value="" style="shape=curlyBracket;whiteSpace=wrap;html=1;rounded=1;labelPosition=left;verticalLabelPosition=middle;align=right;verticalAlign=middle;direction=south;" parent="1" vertex="1">
          <mxGeometry x="1679.5" y="1080" width="110.5" height="20" as="geometry" />
        </mxCell>
        <mxCell id="uO17ehAxNxv0Zf3d8ahg-319" value="SRAM正处理&lt;br&gt;其他端口的请求" style="rounded=1;whiteSpace=wrap;html=1;shadow=0;labelBackgroundColor=none;strokeWidth=1;fontFamily=Verdana;fontSize=8;align=center;fillColor=none;strokeColor=none;" parent="1" vertex="1">
          <mxGeometry x="1707" y="1050" width="65" height="30" as="geometry" />
        </mxCell>
        <mxCell id="uO17ehAxNxv0Zf3d8ahg-320" value="" style="shape=curlyBracket;whiteSpace=wrap;html=1;rounded=1;labelPosition=left;verticalLabelPosition=middle;align=right;verticalAlign=middle;direction=south;" parent="1" vertex="1">
          <mxGeometry x="1259.5" y="1085" width="120" height="20" as="geometry" />
        </mxCell>
        <mxCell id="uO17ehAxNxv0Zf3d8ahg-321" value="SRAM正处理&lt;br&gt;其他端口的请求" style="rounded=1;whiteSpace=wrap;html=1;shadow=0;labelBackgroundColor=none;strokeWidth=1;fontFamily=Verdana;fontSize=8;align=center;fillColor=none;strokeColor=none;" parent="1" vertex="1">
          <mxGeometry x="1287" y="1055" width="65" height="30" as="geometry" />
        </mxCell>
        <mxCell id="uO17ehAxNxv0Zf3d8ahg-322" value="轮询端口请求&lt;br&gt;(Port #1)" style="rounded=1;whiteSpace=wrap;html=1;shadow=0;labelBackgroundColor=none;strokeWidth=1;fontFamily=Verdana;fontSize=8;align=center;" parent="1" vertex="1">
          <mxGeometry x="1139.5" y="560" width="50" height="40" as="geometry" />
        </mxCell>
        <mxCell id="uO17ehAxNxv0Zf3d8ahg-323" value="读取并弹出&lt;br&gt;端口1队列&lt;br&gt;跳转表头地址" style="rounded=1;whiteSpace=wrap;html=1;shadow=0;labelBackgroundColor=none;strokeWidth=1;fontFamily=Verdana;fontSize=8;align=center;" parent="1" vertex="1">
          <mxGeometry x="1139.5" y="610" width="50" height="40" as="geometry" />
        </mxCell>
        <mxCell id="uO17ehAxNxv0Zf3d8ahg-324" value="得到跳转表&lt;br&gt;头地址" style="rounded=1;whiteSpace=wrap;html=1;shadow=0;labelBackgroundColor=none;strokeWidth=1;fontFamily=Verdana;fontSize=8;align=center;" parent="1" vertex="1">
          <mxGeometry x="1199.5" y="610" width="50" height="40" as="geometry" />
        </mxCell>
        <mxCell id="uO17ehAxNxv0Zf3d8ahg-325" value="读取SRAM&lt;br&gt;页内容#0" style="rounded=1;whiteSpace=wrap;html=1;shadow=0;labelBackgroundColor=none;strokeWidth=1;fontFamily=Verdana;fontSize=8;align=center;" parent="1" vertex="1">
          <mxGeometry x="1199.5" y="660" width="50" height="40" as="geometry" />
        </mxCell>
        <mxCell id="uO17ehAxNxv0Zf3d8ahg-326" value="刷新(初始化)&lt;br&gt;数据包长度" style="rounded=1;whiteSpace=wrap;html=1;shadow=0;labelBackgroundColor=none;strokeWidth=1;fontFamily=Verdana;fontSize=8;align=center;" parent="1" vertex="1">
          <mxGeometry x="1259.5" y="860" width="50" height="40" as="geometry" />
        </mxCell>
        <mxCell id="uO17ehAxNxv0Zf3d8ahg-328" value="读取SRAM&lt;br&gt;页内容#1" style="rounded=1;whiteSpace=wrap;html=1;shadow=0;labelBackgroundColor=none;strokeWidth=1;fontFamily=Verdana;fontSize=8;align=center;" parent="1" vertex="1">
          <mxGeometry x="1259.5" y="660" width="50" height="40" as="geometry" />
        </mxCell>
        <mxCell id="uO17ehAxNxv0Zf3d8ahg-329" value="读取SRAM&lt;br&gt;页内容#2" style="rounded=1;whiteSpace=wrap;html=1;shadow=0;labelBackgroundColor=none;strokeWidth=1;fontFamily=Verdana;fontSize=8;align=center;" parent="1" vertex="1">
          <mxGeometry x="1319.5" y="660" width="50" height="40" as="geometry" />
        </mxCell>
        <mxCell id="uO17ehAxNxv0Zf3d8ahg-330" value="读取SRAM&lt;br&gt;页内容#3" style="rounded=1;whiteSpace=wrap;html=1;shadow=0;labelBackgroundColor=none;strokeWidth=1;fontFamily=Verdana;fontSize=8;align=center;" parent="1" vertex="1">
          <mxGeometry x="1379.5" y="660" width="50" height="40" as="geometry" />
        </mxCell>
        <mxCell id="uO17ehAxNxv0Zf3d8ahg-331" value="" style="endArrow=none;dashed=1;html=1;rounded=0;" parent="1" edge="1">
          <mxGeometry width="50" height="50" relative="1" as="geometry">
            <mxPoint x="1439.5" y="679.71" as="sourcePoint" />
            <mxPoint x="1489.5" y="679.71" as="targetPoint" />
          </mxGeometry>
        </mxCell>
        <mxCell id="uO17ehAxNxv0Zf3d8ahg-332" value="读取SRAM&lt;br&gt;页内容#7" style="rounded=1;whiteSpace=wrap;html=1;shadow=0;labelBackgroundColor=none;strokeWidth=1;fontFamily=Verdana;fontSize=8;align=center;" parent="1" vertex="1">
          <mxGeometry x="1499.5" y="660" width="50" height="40" as="geometry" />
        </mxCell>
        <mxCell id="uO17ehAxNxv0Zf3d8ahg-462" style="edgeStyle=orthogonalEdgeStyle;rounded=0;orthogonalLoop=1;jettySize=auto;html=1;exitX=0.5;exitY=1;exitDx=0;exitDy=0;entryX=0.5;entryY=0;entryDx=0;entryDy=0;" parent="1" source="uO17ehAxNxv0Zf3d8ahg-334" target="uO17ehAxNxv0Zf3d8ahg-343" edge="1">
          <mxGeometry relative="1" as="geometry" />
        </mxCell>
        <mxCell id="uO17ehAxNxv0Zf3d8ahg-334" value="得到SRAM&lt;br&gt;页内容#0" style="rounded=1;whiteSpace=wrap;html=1;shadow=0;labelBackgroundColor=none;strokeWidth=1;fontFamily=Verdana;fontSize=8;align=center;" parent="1" vertex="1">
          <mxGeometry x="1259.5" y="710" width="50" height="40" as="geometry" />
        </mxCell>
        <mxCell id="uO17ehAxNxv0Zf3d8ahg-465" style="edgeStyle=orthogonalEdgeStyle;rounded=0;orthogonalLoop=1;jettySize=auto;html=1;exitX=0.5;exitY=1;exitDx=0;exitDy=0;entryX=0.5;entryY=0;entryDx=0;entryDy=0;" parent="1" source="uO17ehAxNxv0Zf3d8ahg-335" target="uO17ehAxNxv0Zf3d8ahg-344" edge="1">
          <mxGeometry relative="1" as="geometry" />
        </mxCell>
        <mxCell id="uO17ehAxNxv0Zf3d8ahg-335" value="得到SRAM&lt;br&gt;页内容#1" style="rounded=1;whiteSpace=wrap;html=1;shadow=0;labelBackgroundColor=none;strokeWidth=1;fontFamily=Verdana;fontSize=8;align=center;" parent="1" vertex="1">
          <mxGeometry x="1319.5" y="710" width="50" height="40" as="geometry" />
        </mxCell>
        <mxCell id="uO17ehAxNxv0Zf3d8ahg-466" style="edgeStyle=orthogonalEdgeStyle;rounded=0;orthogonalLoop=1;jettySize=auto;html=1;exitX=0.5;exitY=1;exitDx=0;exitDy=0;entryX=0.5;entryY=0;entryDx=0;entryDy=0;" parent="1" source="uO17ehAxNxv0Zf3d8ahg-336" target="uO17ehAxNxv0Zf3d8ahg-345" edge="1">
          <mxGeometry relative="1" as="geometry" />
        </mxCell>
        <mxCell id="uO17ehAxNxv0Zf3d8ahg-336" value="得到SRAM&lt;br&gt;页内容#2" style="rounded=1;whiteSpace=wrap;html=1;shadow=0;labelBackgroundColor=none;strokeWidth=1;fontFamily=Verdana;fontSize=8;align=center;" parent="1" vertex="1">
          <mxGeometry x="1379.5" y="710" width="50" height="40" as="geometry" />
        </mxCell>
        <mxCell id="uO17ehAxNxv0Zf3d8ahg-467" style="edgeStyle=orthogonalEdgeStyle;rounded=0;orthogonalLoop=1;jettySize=auto;html=1;exitX=0.5;exitY=1;exitDx=0;exitDy=0;entryX=0.5;entryY=0;entryDx=0;entryDy=0;" parent="1" source="uO17ehAxNxv0Zf3d8ahg-337" target="uO17ehAxNxv0Zf3d8ahg-346" edge="1">
          <mxGeometry relative="1" as="geometry" />
        </mxCell>
        <mxCell id="uO17ehAxNxv0Zf3d8ahg-337" value="得到SRAM&lt;br&gt;页内容#3" style="rounded=1;whiteSpace=wrap;html=1;shadow=0;labelBackgroundColor=none;strokeWidth=1;fontFamily=Verdana;fontSize=8;align=center;" parent="1" vertex="1">
          <mxGeometry x="1439.5" y="710" width="50" height="40" as="geometry" />
        </mxCell>
        <mxCell id="uO17ehAxNxv0Zf3d8ahg-338" value="" style="endArrow=none;dashed=1;html=1;rounded=0;" parent="1" edge="1">
          <mxGeometry width="50" height="50" relative="1" as="geometry">
            <mxPoint x="1499.5" y="729.71" as="sourcePoint" />
            <mxPoint x="1549.5" y="729.71" as="targetPoint" />
          </mxGeometry>
        </mxCell>
        <mxCell id="uO17ehAxNxv0Zf3d8ahg-468" style="edgeStyle=orthogonalEdgeStyle;rounded=0;orthogonalLoop=1;jettySize=auto;html=1;exitX=0.5;exitY=1;exitDx=0;exitDy=0;entryX=0.5;entryY=0;entryDx=0;entryDy=0;" parent="1" source="uO17ehAxNxv0Zf3d8ahg-339" target="uO17ehAxNxv0Zf3d8ahg-349" edge="1">
          <mxGeometry relative="1" as="geometry" />
        </mxCell>
        <mxCell id="uO17ehAxNxv0Zf3d8ahg-339" value="得到SRAM&lt;br&gt;页内容#7" style="rounded=1;whiteSpace=wrap;html=1;shadow=0;labelBackgroundColor=none;strokeWidth=1;fontFamily=Verdana;fontSize=8;align=center;" parent="1" vertex="1">
          <mxGeometry x="1559.5" y="710" width="50" height="40" as="geometry" />
        </mxCell>
        <mxCell id="uO17ehAxNxv0Zf3d8ahg-340" value="刷新&lt;br&gt;数据包长度" style="rounded=1;whiteSpace=wrap;html=1;shadow=0;labelBackgroundColor=none;strokeWidth=1;fontFamily=Verdana;fontSize=8;align=center;" parent="1" vertex="1">
          <mxGeometry x="1319.5" y="860" width="50" height="40" as="geometry" />
        </mxCell>
        <mxCell id="uO17ehAxNxv0Zf3d8ahg-342" value="" style="endArrow=none;dashed=1;html=1;rounded=0;" parent="1" edge="1">
          <mxGeometry width="50" height="50" relative="1" as="geometry">
            <mxPoint x="1379.5" y="879.71" as="sourcePoint" />
            <mxPoint x="1549.5" y="880" as="targetPoint" />
          </mxGeometry>
        </mxCell>
        <mxCell id="uO17ehAxNxv0Zf3d8ahg-343" value="写入ECC校验器缓冲区#0" style="rounded=1;whiteSpace=wrap;html=1;shadow=0;labelBackgroundColor=none;strokeWidth=1;fontFamily=Verdana;fontSize=8;align=center;" parent="1" vertex="1">
          <mxGeometry x="1259.5" y="760" width="50" height="40" as="geometry" />
        </mxCell>
        <mxCell id="uO17ehAxNxv0Zf3d8ahg-344" value="写入ECC校验器缓冲区#1" style="rounded=1;whiteSpace=wrap;html=1;shadow=0;labelBackgroundColor=none;strokeWidth=1;fontFamily=Verdana;fontSize=8;align=center;" parent="1" vertex="1">
          <mxGeometry x="1319.5" y="760" width="50" height="40" as="geometry" />
        </mxCell>
        <mxCell id="uO17ehAxNxv0Zf3d8ahg-345" value="写入ECC校验器缓冲区#2" style="rounded=1;whiteSpace=wrap;html=1;shadow=0;labelBackgroundColor=none;strokeWidth=1;fontFamily=Verdana;fontSize=8;align=center;" parent="1" vertex="1">
          <mxGeometry x="1379.5" y="760" width="50" height="40" as="geometry" />
        </mxCell>
        <mxCell id="uO17ehAxNxv0Zf3d8ahg-346" value="写入ECC校验器缓冲区#3" style="rounded=1;whiteSpace=wrap;html=1;shadow=0;labelBackgroundColor=none;strokeWidth=1;fontFamily=Verdana;fontSize=8;align=center;" parent="1" vertex="1">
          <mxGeometry x="1439.5" y="760" width="50" height="40" as="geometry" />
        </mxCell>
        <mxCell id="uO17ehAxNxv0Zf3d8ahg-348" value="" style="endArrow=none;dashed=1;html=1;rounded=0;" parent="1" edge="1">
          <mxGeometry width="50" height="50" relative="1" as="geometry">
            <mxPoint x="1499.5" y="779.71" as="sourcePoint" />
            <mxPoint x="1549.5" y="779.71" as="targetPoint" />
          </mxGeometry>
        </mxCell>
        <mxCell id="uO17ehAxNxv0Zf3d8ahg-349" value="写入ECC校验器缓冲区#7" style="rounded=1;whiteSpace=wrap;html=1;shadow=0;labelBackgroundColor=none;strokeWidth=1;fontFamily=Verdana;fontSize=8;align=center;" parent="1" vertex="1">
          <mxGeometry x="1559.5" y="760" width="50" height="40" as="geometry" />
        </mxCell>
        <mxCell id="uO17ehAxNxv0Zf3d8ahg-350" value="读取ECC存储页校验码" style="rounded=1;whiteSpace=wrap;html=1;shadow=0;labelBackgroundColor=none;strokeWidth=1;fontFamily=Verdana;fontSize=8;align=center;" parent="1" vertex="1">
          <mxGeometry x="1259.5" y="810" width="50" height="40" as="geometry" />
        </mxCell>
        <mxCell id="uO17ehAxNxv0Zf3d8ahg-351" value="写入ECC校验器校验码" style="rounded=1;whiteSpace=wrap;html=1;shadow=0;labelBackgroundColor=none;strokeWidth=1;fontFamily=Verdana;fontSize=8;align=center;" parent="1" vertex="1">
          <mxGeometry x="1319.5" y="810" width="50" height="40" as="geometry" />
        </mxCell>
        <mxCell id="uO17ehAxNxv0Zf3d8ahg-353" value="ECC校验器使能拉高" style="rounded=1;whiteSpace=wrap;html=1;shadow=0;labelBackgroundColor=none;strokeWidth=1;fontFamily=Verdana;fontSize=8;align=center;" parent="1" vertex="1">
          <mxGeometry x="1559.5" y="810" width="50" height="40" as="geometry" />
        </mxCell>
        <mxCell id="uO17ehAxNxv0Zf3d8ahg-355" value="发出握手信号&lt;br&gt;长度信息(8)" style="rounded=1;whiteSpace=wrap;html=1;shadow=0;labelBackgroundColor=none;strokeWidth=1;fontFamily=Verdana;fontSize=8;align=center;" parent="1" vertex="1">
          <mxGeometry x="1619.5" y="910" width="50" height="40" as="geometry" />
        </mxCell>
        <mxCell id="uO17ehAxNxv0Zf3d8ahg-356" value="刷新&lt;br&gt;数据包长度" style="rounded=1;whiteSpace=wrap;html=1;shadow=0;labelBackgroundColor=none;strokeWidth=1;fontFamily=Verdana;fontSize=8;align=center;" parent="1" vertex="1">
          <mxGeometry x="1559.5" y="860" width="50" height="40" as="geometry" />
        </mxCell>
        <mxCell id="uO17ehAxNxv0Zf3d8ahg-357" value="轮询端口请求&lt;br&gt;(Port #N)" style="rounded=1;whiteSpace=wrap;html=1;shadow=0;labelBackgroundColor=none;strokeWidth=1;fontFamily=Verdana;fontSize=8;align=center;" parent="1" vertex="1">
          <mxGeometry x="1499.5" y="560" width="50" height="40" as="geometry" />
        </mxCell>
        <mxCell id="uO17ehAxNxv0Zf3d8ahg-358" value="读取并弹出&lt;br&gt;端口N队列&lt;br&gt;跳转表头地址" style="rounded=1;whiteSpace=wrap;html=1;shadow=0;labelBackgroundColor=none;strokeWidth=1;fontFamily=Verdana;fontSize=8;align=center;" parent="1" vertex="1">
          <mxGeometry x="1499.5" y="610" width="50" height="40" as="geometry" />
        </mxCell>
        <mxCell id="uO17ehAxNxv0Zf3d8ahg-359" value="得到跳转表&lt;br&gt;头地址" style="rounded=1;whiteSpace=wrap;html=1;shadow=0;labelBackgroundColor=none;strokeWidth=1;fontFamily=Verdana;fontSize=8;align=center;" parent="1" vertex="1">
          <mxGeometry x="1559.5" y="610" width="50" height="40" as="geometry" />
        </mxCell>
        <mxCell id="uO17ehAxNxv0Zf3d8ahg-360" value="读取SRAM&lt;br&gt;页内容#0" style="rounded=1;whiteSpace=wrap;html=1;shadow=0;labelBackgroundColor=none;strokeWidth=1;fontFamily=Verdana;fontSize=8;align=center;" parent="1" vertex="1">
          <mxGeometry x="1559.5" y="660" width="50" height="40" as="geometry" />
        </mxCell>
        <mxCell id="uO17ehAxNxv0Zf3d8ahg-361" value="刷新(初始化)&lt;br&gt;数据包长度" style="rounded=1;whiteSpace=wrap;html=1;shadow=0;labelBackgroundColor=none;strokeWidth=1;fontFamily=Verdana;fontSize=8;align=center;" parent="1" vertex="1">
          <mxGeometry x="1619.5" y="860" width="50" height="40" as="geometry" />
        </mxCell>
        <mxCell id="uO17ehAxNxv0Zf3d8ahg-362" value="读取SRAM&lt;br&gt;页内容#1" style="rounded=1;whiteSpace=wrap;html=1;shadow=0;labelBackgroundColor=none;strokeWidth=1;fontFamily=Verdana;fontSize=8;align=center;" parent="1" vertex="1">
          <mxGeometry x="1619.5" y="660" width="50" height="40" as="geometry" />
        </mxCell>
        <mxCell id="uO17ehAxNxv0Zf3d8ahg-363" value="读取SRAM&lt;br&gt;页内容#2" style="rounded=1;whiteSpace=wrap;html=1;shadow=0;labelBackgroundColor=none;strokeWidth=1;fontFamily=Verdana;fontSize=8;align=center;" parent="1" vertex="1">
          <mxGeometry x="1679.5" y="660" width="50" height="40" as="geometry" />
        </mxCell>
        <mxCell id="uO17ehAxNxv0Zf3d8ahg-364" value="读取SRAM&lt;br&gt;页内容#3" style="rounded=1;whiteSpace=wrap;html=1;shadow=0;labelBackgroundColor=none;strokeWidth=1;fontFamily=Verdana;fontSize=8;align=center;" parent="1" vertex="1">
          <mxGeometry x="1739.5" y="660" width="50" height="40" as="geometry" />
        </mxCell>
        <mxCell id="uO17ehAxNxv0Zf3d8ahg-365" value="" style="endArrow=none;dashed=1;html=1;rounded=0;" parent="1" edge="1">
          <mxGeometry width="50" height="50" relative="1" as="geometry">
            <mxPoint x="1799.5" y="679.71" as="sourcePoint" />
            <mxPoint x="1849.5" y="679.71" as="targetPoint" />
          </mxGeometry>
        </mxCell>
        <mxCell id="uO17ehAxNxv0Zf3d8ahg-366" value="读取SRAM&lt;br&gt;页内容#7" style="rounded=1;whiteSpace=wrap;html=1;shadow=0;labelBackgroundColor=none;strokeWidth=1;fontFamily=Verdana;fontSize=8;align=center;" parent="1" vertex="1">
          <mxGeometry x="1859.5" y="660" width="50" height="40" as="geometry" />
        </mxCell>
        <mxCell id="uO17ehAxNxv0Zf3d8ahg-469" style="edgeStyle=orthogonalEdgeStyle;rounded=0;orthogonalLoop=1;jettySize=auto;html=1;exitX=0.5;exitY=1;exitDx=0;exitDy=0;entryX=0.5;entryY=0;entryDx=0;entryDy=0;" parent="1" source="uO17ehAxNxv0Zf3d8ahg-367" target="uO17ehAxNxv0Zf3d8ahg-375" edge="1">
          <mxGeometry relative="1" as="geometry" />
        </mxCell>
        <mxCell id="uO17ehAxNxv0Zf3d8ahg-367" value="得到SRAM&lt;br&gt;页内容#0" style="rounded=1;whiteSpace=wrap;html=1;shadow=0;labelBackgroundColor=none;strokeWidth=1;fontFamily=Verdana;fontSize=8;align=center;" parent="1" vertex="1">
          <mxGeometry x="1619.5" y="710" width="50" height="40" as="geometry" />
        </mxCell>
        <mxCell id="uO17ehAxNxv0Zf3d8ahg-470" style="edgeStyle=orthogonalEdgeStyle;rounded=0;orthogonalLoop=1;jettySize=auto;html=1;exitX=0.5;exitY=1;exitDx=0;exitDy=0;entryX=0.5;entryY=0;entryDx=0;entryDy=0;" parent="1" source="uO17ehAxNxv0Zf3d8ahg-368" target="uO17ehAxNxv0Zf3d8ahg-376" edge="1">
          <mxGeometry relative="1" as="geometry" />
        </mxCell>
        <mxCell id="uO17ehAxNxv0Zf3d8ahg-368" value="得到SRAM&lt;br&gt;页内容#1" style="rounded=1;whiteSpace=wrap;html=1;shadow=0;labelBackgroundColor=none;strokeWidth=1;fontFamily=Verdana;fontSize=8;align=center;" parent="1" vertex="1">
          <mxGeometry x="1679.5" y="710" width="50" height="40" as="geometry" />
        </mxCell>
        <mxCell id="uO17ehAxNxv0Zf3d8ahg-471" style="edgeStyle=orthogonalEdgeStyle;rounded=0;orthogonalLoop=1;jettySize=auto;html=1;exitX=0.5;exitY=1;exitDx=0;exitDy=0;entryX=0.5;entryY=0;entryDx=0;entryDy=0;" parent="1" source="uO17ehAxNxv0Zf3d8ahg-369" target="uO17ehAxNxv0Zf3d8ahg-377" edge="1">
          <mxGeometry relative="1" as="geometry" />
        </mxCell>
        <mxCell id="uO17ehAxNxv0Zf3d8ahg-369" value="得到SRAM&lt;br&gt;页内容#2" style="rounded=1;whiteSpace=wrap;html=1;shadow=0;labelBackgroundColor=none;strokeWidth=1;fontFamily=Verdana;fontSize=8;align=center;" parent="1" vertex="1">
          <mxGeometry x="1739.5" y="710" width="50" height="40" as="geometry" />
        </mxCell>
        <mxCell id="uO17ehAxNxv0Zf3d8ahg-473" style="edgeStyle=orthogonalEdgeStyle;rounded=0;orthogonalLoop=1;jettySize=auto;html=1;exitX=0.5;exitY=1;exitDx=0;exitDy=0;entryX=0.5;entryY=0;entryDx=0;entryDy=0;" parent="1" source="uO17ehAxNxv0Zf3d8ahg-370" target="uO17ehAxNxv0Zf3d8ahg-378" edge="1">
          <mxGeometry relative="1" as="geometry" />
        </mxCell>
        <mxCell id="uO17ehAxNxv0Zf3d8ahg-370" value="得到SRAM&lt;br&gt;页内容#3" style="rounded=1;whiteSpace=wrap;html=1;shadow=0;labelBackgroundColor=none;strokeWidth=1;fontFamily=Verdana;fontSize=8;align=center;" parent="1" vertex="1">
          <mxGeometry x="1799.5" y="710" width="50" height="40" as="geometry" />
        </mxCell>
        <mxCell id="uO17ehAxNxv0Zf3d8ahg-371" value="" style="endArrow=none;dashed=1;html=1;rounded=0;" parent="1" edge="1">
          <mxGeometry width="50" height="50" relative="1" as="geometry">
            <mxPoint x="1859.5" y="729.71" as="sourcePoint" />
            <mxPoint x="1909.5" y="729.71" as="targetPoint" />
          </mxGeometry>
        </mxCell>
        <mxCell id="uO17ehAxNxv0Zf3d8ahg-474" style="edgeStyle=orthogonalEdgeStyle;rounded=0;orthogonalLoop=1;jettySize=auto;html=1;exitX=0.5;exitY=1;exitDx=0;exitDy=0;entryX=0.5;entryY=0;entryDx=0;entryDy=0;" parent="1" source="uO17ehAxNxv0Zf3d8ahg-372" target="uO17ehAxNxv0Zf3d8ahg-380" edge="1">
          <mxGeometry relative="1" as="geometry" />
        </mxCell>
        <mxCell id="uO17ehAxNxv0Zf3d8ahg-372" value="得到SRAM&lt;br&gt;页内容#7" style="rounded=1;whiteSpace=wrap;html=1;shadow=0;labelBackgroundColor=none;strokeWidth=1;fontFamily=Verdana;fontSize=8;align=center;" parent="1" vertex="1">
          <mxGeometry x="1919.5" y="710" width="50" height="40" as="geometry" />
        </mxCell>
        <mxCell id="uO17ehAxNxv0Zf3d8ahg-373" value="刷新&lt;br&gt;数据包长度" style="rounded=1;whiteSpace=wrap;html=1;shadow=0;labelBackgroundColor=none;strokeWidth=1;fontFamily=Verdana;fontSize=8;align=center;" parent="1" vertex="1">
          <mxGeometry x="1679.5" y="860" width="50" height="40" as="geometry" />
        </mxCell>
        <mxCell id="uO17ehAxNxv0Zf3d8ahg-374" value="" style="endArrow=none;dashed=1;html=1;rounded=0;" parent="1" edge="1">
          <mxGeometry width="50" height="50" relative="1" as="geometry">
            <mxPoint x="1739.5" y="879.71" as="sourcePoint" />
            <mxPoint x="1909.5" y="880" as="targetPoint" />
          </mxGeometry>
        </mxCell>
        <mxCell id="uO17ehAxNxv0Zf3d8ahg-375" value="写入ECC校验器缓冲区#0" style="rounded=1;whiteSpace=wrap;html=1;shadow=0;labelBackgroundColor=none;strokeWidth=1;fontFamily=Verdana;fontSize=8;align=center;" parent="1" vertex="1">
          <mxGeometry x="1619.5" y="760" width="50" height="40" as="geometry" />
        </mxCell>
        <mxCell id="uO17ehAxNxv0Zf3d8ahg-376" value="写入ECC校验器缓冲区#1" style="rounded=1;whiteSpace=wrap;html=1;shadow=0;labelBackgroundColor=none;strokeWidth=1;fontFamily=Verdana;fontSize=8;align=center;" parent="1" vertex="1">
          <mxGeometry x="1679.5" y="760" width="50" height="40" as="geometry" />
        </mxCell>
        <mxCell id="uO17ehAxNxv0Zf3d8ahg-377" value="写入ECC校验器缓冲区#2" style="rounded=1;whiteSpace=wrap;html=1;shadow=0;labelBackgroundColor=none;strokeWidth=1;fontFamily=Verdana;fontSize=8;align=center;" parent="1" vertex="1">
          <mxGeometry x="1739.5" y="760" width="50" height="40" as="geometry" />
        </mxCell>
        <mxCell id="uO17ehAxNxv0Zf3d8ahg-378" value="写入ECC校验器缓冲区#3" style="rounded=1;whiteSpace=wrap;html=1;shadow=0;labelBackgroundColor=none;strokeWidth=1;fontFamily=Verdana;fontSize=8;align=center;" parent="1" vertex="1">
          <mxGeometry x="1799.5" y="760" width="50" height="40" as="geometry" />
        </mxCell>
        <mxCell id="uO17ehAxNxv0Zf3d8ahg-379" value="" style="endArrow=none;dashed=1;html=1;rounded=0;" parent="1" edge="1">
          <mxGeometry width="50" height="50" relative="1" as="geometry">
            <mxPoint x="1859.5" y="779.71" as="sourcePoint" />
            <mxPoint x="1909.5" y="779.71" as="targetPoint" />
          </mxGeometry>
        </mxCell>
        <mxCell id="uO17ehAxNxv0Zf3d8ahg-380" value="写入ECC校验器缓冲区#7" style="rounded=1;whiteSpace=wrap;html=1;shadow=0;labelBackgroundColor=none;strokeWidth=1;fontFamily=Verdana;fontSize=8;align=center;" parent="1" vertex="1">
          <mxGeometry x="1919.5" y="760" width="50" height="40" as="geometry" />
        </mxCell>
        <mxCell id="uO17ehAxNxv0Zf3d8ahg-381" value="读取ECC存储页校验码" style="rounded=1;whiteSpace=wrap;html=1;shadow=0;labelBackgroundColor=none;strokeWidth=1;fontFamily=Verdana;fontSize=8;align=center;" parent="1" vertex="1">
          <mxGeometry x="1619.5" y="810" width="50" height="40" as="geometry" />
        </mxCell>
        <mxCell id="uO17ehAxNxv0Zf3d8ahg-382" value="写入ECC校验器校验码" style="rounded=1;whiteSpace=wrap;html=1;shadow=0;labelBackgroundColor=none;strokeWidth=1;fontFamily=Verdana;fontSize=8;align=center;" parent="1" vertex="1">
          <mxGeometry x="1679.5" y="810" width="50" height="40" as="geometry" />
        </mxCell>
        <mxCell id="uO17ehAxNxv0Zf3d8ahg-383" value="ECC校验器使能拉高" style="rounded=1;whiteSpace=wrap;html=1;shadow=0;labelBackgroundColor=none;strokeWidth=1;fontFamily=Verdana;fontSize=8;align=center;" parent="1" vertex="1">
          <mxGeometry x="1919.5" y="810" width="50" height="40" as="geometry" />
        </mxCell>
        <mxCell id="uO17ehAxNxv0Zf3d8ahg-384" value="发出握手信号&lt;br&gt;长度信息(8)" style="rounded=1;whiteSpace=wrap;html=1;shadow=0;labelBackgroundColor=none;strokeWidth=1;fontFamily=Verdana;fontSize=8;align=center;" parent="1" vertex="1">
          <mxGeometry x="1979.5" y="910" width="50" height="40" as="geometry" />
        </mxCell>
        <mxCell id="uO17ehAxNxv0Zf3d8ahg-385" value="刷新&lt;br&gt;数据包长度" style="rounded=1;whiteSpace=wrap;html=1;shadow=0;labelBackgroundColor=none;strokeWidth=1;fontFamily=Verdana;fontSize=8;align=center;" parent="1" vertex="1">
          <mxGeometry x="1919.5" y="860" width="50" height="40" as="geometry" />
        </mxCell>
        <mxCell id="uO17ehAxNxv0Zf3d8ahg-387" value="" style="endArrow=none;html=1;rounded=0;strokeWidth=1;" parent="1" edge="1">
          <mxGeometry width="50" height="50" relative="1" as="geometry">
            <mxPoint x="1674.5" y="950" as="sourcePoint" />
            <mxPoint x="1494.5" y="560" as="targetPoint" />
            <Array as="points">
              <mxPoint x="1674.5" y="905" />
              <mxPoint x="1614.5" y="905" />
              <mxPoint x="1614.5" y="705" />
              <mxPoint x="1554.5" y="705" />
              <mxPoint x="1554.5" y="655" />
              <mxPoint x="1494.5" y="655" />
            </Array>
          </mxGeometry>
        </mxCell>
        <mxCell id="uO17ehAxNxv0Zf3d8ahg-388" value="" style="endArrow=none;html=1;rounded=0;strokeWidth=1;" parent="1" edge="1">
          <mxGeometry width="50" height="50" relative="1" as="geometry">
            <mxPoint x="2034.5" y="950" as="sourcePoint" />
            <mxPoint x="1854.5" y="560" as="targetPoint" />
            <Array as="points">
              <mxPoint x="2034.5" y="905" />
              <mxPoint x="1974.5" y="905" />
              <mxPoint x="1974.5" y="705" />
              <mxPoint x="1914.5" y="705" />
              <mxPoint x="1914.5" y="655" />
              <mxPoint x="1854.5" y="655" />
            </Array>
          </mxGeometry>
        </mxCell>
        <mxCell id="uO17ehAxNxv0Zf3d8ahg-389" value="轮询端口请求&lt;br&gt;(Port #1)" style="rounded=1;whiteSpace=wrap;html=1;shadow=0;labelBackgroundColor=none;strokeWidth=1;fontFamily=Verdana;fontSize=8;align=center;" parent="1" vertex="1">
          <mxGeometry x="2090.5" y="560" width="50" height="40" as="geometry" />
        </mxCell>
        <mxCell id="uO17ehAxNxv0Zf3d8ahg-390" value="读取并弹出&lt;br&gt;端口1队列&lt;br&gt;跳转表头地址" style="rounded=1;whiteSpace=wrap;html=1;shadow=0;labelBackgroundColor=none;strokeWidth=1;fontFamily=Verdana;fontSize=8;align=center;" parent="1" vertex="1">
          <mxGeometry x="2090.5" y="610" width="50" height="40" as="geometry" />
        </mxCell>
        <mxCell id="uO17ehAxNxv0Zf3d8ahg-391" value="得到跳转表&lt;br&gt;头地址" style="rounded=1;whiteSpace=wrap;html=1;shadow=0;labelBackgroundColor=none;strokeWidth=1;fontFamily=Verdana;fontSize=8;align=center;" parent="1" vertex="1">
          <mxGeometry x="2150.5" y="610" width="50" height="40" as="geometry" />
        </mxCell>
        <mxCell id="uO17ehAxNxv0Zf3d8ahg-392" value="读取SRAM&lt;br&gt;页内容#0" style="rounded=1;whiteSpace=wrap;html=1;shadow=0;labelBackgroundColor=none;strokeWidth=1;fontFamily=Verdana;fontSize=8;align=center;" parent="1" vertex="1">
          <mxGeometry x="2150.5" y="660" width="50" height="40" as="geometry" />
        </mxCell>
        <mxCell id="uO17ehAxNxv0Zf3d8ahg-393" value="刷新(初始化)&lt;br&gt;数据包长度" style="rounded=1;whiteSpace=wrap;html=1;shadow=0;labelBackgroundColor=none;strokeWidth=1;fontFamily=Verdana;fontSize=8;align=center;" parent="1" vertex="1">
          <mxGeometry x="2210.5" y="860" width="50" height="40" as="geometry" />
        </mxCell>
        <mxCell id="uO17ehAxNxv0Zf3d8ahg-394" value="读取SRAM&lt;br&gt;页内容#1" style="rounded=1;whiteSpace=wrap;html=1;shadow=0;labelBackgroundColor=none;strokeWidth=1;fontFamily=Verdana;fontSize=8;align=center;" parent="1" vertex="1">
          <mxGeometry x="2210.5" y="660" width="50" height="40" as="geometry" />
        </mxCell>
        <mxCell id="uO17ehAxNxv0Zf3d8ahg-395" value="读取SRAM&lt;br&gt;页内容#2" style="rounded=1;whiteSpace=wrap;html=1;shadow=0;labelBackgroundColor=none;strokeWidth=1;fontFamily=Verdana;fontSize=8;align=center;" parent="1" vertex="1">
          <mxGeometry x="2270.5" y="660" width="50" height="40" as="geometry" />
        </mxCell>
        <mxCell id="uO17ehAxNxv0Zf3d8ahg-396" value="读取SRAM&lt;br&gt;页内容#3" style="rounded=1;whiteSpace=wrap;html=1;shadow=0;labelBackgroundColor=none;strokeWidth=1;fontFamily=Verdana;fontSize=8;align=center;" parent="1" vertex="1">
          <mxGeometry x="2330.5" y="660" width="50" height="40" as="geometry" />
        </mxCell>
        <mxCell id="uO17ehAxNxv0Zf3d8ahg-397" value="" style="endArrow=none;dashed=1;html=1;rounded=0;" parent="1" edge="1">
          <mxGeometry width="50" height="50" relative="1" as="geometry">
            <mxPoint x="2390.5" y="679.71" as="sourcePoint" />
            <mxPoint x="2440.5" y="679.71" as="targetPoint" />
          </mxGeometry>
        </mxCell>
        <mxCell id="uO17ehAxNxv0Zf3d8ahg-475" style="edgeStyle=orthogonalEdgeStyle;rounded=0;orthogonalLoop=1;jettySize=auto;html=1;exitX=0.5;exitY=1;exitDx=0;exitDy=0;entryX=0.5;entryY=0;entryDx=0;entryDy=0;" parent="1" source="uO17ehAxNxv0Zf3d8ahg-398" target="uO17ehAxNxv0Zf3d8ahg-406" edge="1">
          <mxGeometry relative="1" as="geometry" />
        </mxCell>
        <mxCell id="uO17ehAxNxv0Zf3d8ahg-398" value="得到SRAM&lt;br&gt;页内容#0" style="rounded=1;whiteSpace=wrap;html=1;shadow=0;labelBackgroundColor=none;strokeWidth=1;fontFamily=Verdana;fontSize=8;align=center;" parent="1" vertex="1">
          <mxGeometry x="2210.5" y="710" width="50" height="40" as="geometry" />
        </mxCell>
        <mxCell id="uO17ehAxNxv0Zf3d8ahg-476" style="edgeStyle=orthogonalEdgeStyle;rounded=0;orthogonalLoop=1;jettySize=auto;html=1;exitX=0.5;exitY=1;exitDx=0;exitDy=0;entryX=0.5;entryY=0;entryDx=0;entryDy=0;" parent="1" source="uO17ehAxNxv0Zf3d8ahg-399" target="uO17ehAxNxv0Zf3d8ahg-407" edge="1">
          <mxGeometry relative="1" as="geometry" />
        </mxCell>
        <mxCell id="uO17ehAxNxv0Zf3d8ahg-399" value="得到SRAM&lt;br&gt;页内容#1" style="rounded=1;whiteSpace=wrap;html=1;shadow=0;labelBackgroundColor=none;strokeWidth=1;fontFamily=Verdana;fontSize=8;align=center;" parent="1" vertex="1">
          <mxGeometry x="2270.5" y="710" width="50" height="40" as="geometry" />
        </mxCell>
        <mxCell id="uO17ehAxNxv0Zf3d8ahg-477" style="edgeStyle=orthogonalEdgeStyle;rounded=0;orthogonalLoop=1;jettySize=auto;html=1;exitX=0.5;exitY=1;exitDx=0;exitDy=0;entryX=0.5;entryY=0;entryDx=0;entryDy=0;" parent="1" source="uO17ehAxNxv0Zf3d8ahg-400" target="uO17ehAxNxv0Zf3d8ahg-408" edge="1">
          <mxGeometry relative="1" as="geometry" />
        </mxCell>
        <mxCell id="uO17ehAxNxv0Zf3d8ahg-400" value="得到SRAM&lt;br&gt;页内容#2" style="rounded=1;whiteSpace=wrap;html=1;shadow=0;labelBackgroundColor=none;strokeWidth=1;fontFamily=Verdana;fontSize=8;align=center;" parent="1" vertex="1">
          <mxGeometry x="2330.5" y="710" width="50" height="40" as="geometry" />
        </mxCell>
        <mxCell id="uO17ehAxNxv0Zf3d8ahg-478" style="edgeStyle=orthogonalEdgeStyle;rounded=0;orthogonalLoop=1;jettySize=auto;html=1;exitX=0.5;exitY=1;exitDx=0;exitDy=0;entryX=0.5;entryY=0;entryDx=0;entryDy=0;" parent="1" source="uO17ehAxNxv0Zf3d8ahg-401" target="uO17ehAxNxv0Zf3d8ahg-409" edge="1">
          <mxGeometry relative="1" as="geometry" />
        </mxCell>
        <mxCell id="uO17ehAxNxv0Zf3d8ahg-401" value="得到SRAM&lt;br&gt;页内容#3" style="rounded=1;whiteSpace=wrap;html=1;shadow=0;labelBackgroundColor=none;strokeWidth=1;fontFamily=Verdana;fontSize=8;align=center;" parent="1" vertex="1">
          <mxGeometry x="2390.5" y="710" width="50" height="40" as="geometry" />
        </mxCell>
        <mxCell id="uO17ehAxNxv0Zf3d8ahg-402" value="" style="endArrow=none;dashed=1;html=1;rounded=0;" parent="1" edge="1">
          <mxGeometry width="50" height="50" relative="1" as="geometry">
            <mxPoint x="2450.5" y="729.71" as="sourcePoint" />
            <mxPoint x="2500.5" y="729.71" as="targetPoint" />
          </mxGeometry>
        </mxCell>
        <mxCell id="uO17ehAxNxv0Zf3d8ahg-479" style="edgeStyle=orthogonalEdgeStyle;rounded=0;orthogonalLoop=1;jettySize=auto;html=1;exitX=0.5;exitY=1;exitDx=0;exitDy=0;entryX=0.5;entryY=0;entryDx=0;entryDy=0;" parent="1" source="uO17ehAxNxv0Zf3d8ahg-403" target="uO17ehAxNxv0Zf3d8ahg-411" edge="1">
          <mxGeometry relative="1" as="geometry" />
        </mxCell>
        <mxCell id="uO17ehAxNxv0Zf3d8ahg-403" value="得到SRAM&lt;br&gt;页内容#k" style="rounded=1;whiteSpace=wrap;html=1;shadow=0;labelBackgroundColor=none;strokeWidth=1;fontFamily=Verdana;fontSize=8;align=center;" parent="1" vertex="1">
          <mxGeometry x="2510.5" y="710" width="50" height="40" as="geometry" />
        </mxCell>
        <mxCell id="uO17ehAxNxv0Zf3d8ahg-404" value="刷新&lt;br&gt;数据包长度" style="rounded=1;whiteSpace=wrap;html=1;shadow=0;labelBackgroundColor=none;strokeWidth=1;fontFamily=Verdana;fontSize=8;align=center;" parent="1" vertex="1">
          <mxGeometry x="2270.5" y="860" width="50" height="40" as="geometry" />
        </mxCell>
        <mxCell id="uO17ehAxNxv0Zf3d8ahg-405" value="" style="endArrow=none;dashed=1;html=1;rounded=0;" parent="1" edge="1">
          <mxGeometry width="50" height="50" relative="1" as="geometry">
            <mxPoint x="2330.5" y="879.71" as="sourcePoint" />
            <mxPoint x="2500.5" y="880" as="targetPoint" />
          </mxGeometry>
        </mxCell>
        <mxCell id="uO17ehAxNxv0Zf3d8ahg-406" value="写入ECC校验器缓冲区#0" style="rounded=1;whiteSpace=wrap;html=1;shadow=0;labelBackgroundColor=none;strokeWidth=1;fontFamily=Verdana;fontSize=8;align=center;" parent="1" vertex="1">
          <mxGeometry x="2210.5" y="760" width="50" height="40" as="geometry" />
        </mxCell>
        <mxCell id="uO17ehAxNxv0Zf3d8ahg-407" value="写入ECC校验器缓冲区#1" style="rounded=1;whiteSpace=wrap;html=1;shadow=0;labelBackgroundColor=none;strokeWidth=1;fontFamily=Verdana;fontSize=8;align=center;" parent="1" vertex="1">
          <mxGeometry x="2270.5" y="760" width="50" height="40" as="geometry" />
        </mxCell>
        <mxCell id="uO17ehAxNxv0Zf3d8ahg-408" value="写入ECC校验器缓冲区#2" style="rounded=1;whiteSpace=wrap;html=1;shadow=0;labelBackgroundColor=none;strokeWidth=1;fontFamily=Verdana;fontSize=8;align=center;" parent="1" vertex="1">
          <mxGeometry x="2330.5" y="760" width="50" height="40" as="geometry" />
        </mxCell>
        <mxCell id="uO17ehAxNxv0Zf3d8ahg-409" value="写入ECC校验器缓冲区#3" style="rounded=1;whiteSpace=wrap;html=1;shadow=0;labelBackgroundColor=none;strokeWidth=1;fontFamily=Verdana;fontSize=8;align=center;" parent="1" vertex="1">
          <mxGeometry x="2390.5" y="760" width="50" height="40" as="geometry" />
        </mxCell>
        <mxCell id="uO17ehAxNxv0Zf3d8ahg-410" value="" style="endArrow=none;dashed=1;html=1;rounded=0;" parent="1" edge="1">
          <mxGeometry width="50" height="50" relative="1" as="geometry">
            <mxPoint x="2450.5" y="779.71" as="sourcePoint" />
            <mxPoint x="2500.5" y="779.71" as="targetPoint" />
          </mxGeometry>
        </mxCell>
        <mxCell id="uO17ehAxNxv0Zf3d8ahg-411" value="写入ECC校验器缓冲区#k" style="rounded=1;whiteSpace=wrap;html=1;shadow=0;labelBackgroundColor=none;strokeWidth=1;fontFamily=Verdana;fontSize=8;align=center;" parent="1" vertex="1">
          <mxGeometry x="2510.5" y="760" width="50" height="40" as="geometry" />
        </mxCell>
        <mxCell id="uO17ehAxNxv0Zf3d8ahg-412" value="读取ECC存储页校验码" style="rounded=1;whiteSpace=wrap;html=1;shadow=0;labelBackgroundColor=none;strokeWidth=1;fontFamily=Verdana;fontSize=8;align=center;" parent="1" vertex="1">
          <mxGeometry x="2210.5" y="810" width="50" height="40" as="geometry" />
        </mxCell>
        <mxCell id="uO17ehAxNxv0Zf3d8ahg-413" value="写入ECC校验器校验码" style="rounded=1;whiteSpace=wrap;html=1;shadow=0;labelBackgroundColor=none;strokeWidth=1;fontFamily=Verdana;fontSize=8;align=center;" parent="1" vertex="1">
          <mxGeometry x="2270.5" y="810" width="50" height="40" as="geometry" />
        </mxCell>
        <mxCell id="uO17ehAxNxv0Zf3d8ahg-414" value="ECC校验器使能拉高" style="rounded=1;whiteSpace=wrap;html=1;shadow=0;labelBackgroundColor=none;strokeWidth=1;fontFamily=Verdana;fontSize=8;align=center;" parent="1" vertex="1">
          <mxGeometry x="2510.5" y="810" width="50" height="40" as="geometry" />
        </mxCell>
        <mxCell id="uO17ehAxNxv0Zf3d8ahg-415" value="发出握手信号&lt;br&gt;长度信息(k)&lt;br&gt;发出终止信号" style="rounded=1;whiteSpace=wrap;html=1;shadow=0;labelBackgroundColor=none;strokeWidth=1;fontFamily=Verdana;fontSize=8;align=center;" parent="1" vertex="1">
          <mxGeometry x="2570.5" y="910" width="50" height="40" as="geometry" />
        </mxCell>
        <mxCell id="uO17ehAxNxv0Zf3d8ahg-416" value="数据包结束&lt;br&gt;长度(1→0)" style="rounded=1;whiteSpace=wrap;html=1;shadow=0;labelBackgroundColor=none;strokeWidth=1;fontFamily=Verdana;fontSize=8;align=center;" parent="1" vertex="1">
          <mxGeometry x="2510.5" y="860" width="50" height="40" as="geometry" />
        </mxCell>
        <mxCell id="uO17ehAxNxv0Zf3d8ahg-417" value="" style="endArrow=none;html=1;rounded=0;strokeWidth=1;" parent="1" edge="1">
          <mxGeometry width="50" height="50" relative="1" as="geometry">
            <mxPoint x="2264.5" y="950" as="sourcePoint" />
            <mxPoint x="2084.5" y="560" as="targetPoint" />
            <Array as="points">
              <mxPoint x="2264.5" y="905" />
              <mxPoint x="2204.5" y="905" />
              <mxPoint x="2204.5" y="705" />
              <mxPoint x="2144.5" y="705" />
              <mxPoint x="2144.5" y="655" />
              <mxPoint x="2084.5" y="655" />
            </Array>
          </mxGeometry>
        </mxCell>
        <mxCell id="uO17ehAxNxv0Zf3d8ahg-428" value="轮&lt;br style=&quot;font-size: 24px;&quot;&gt;询&lt;br style=&quot;font-size: 24px;&quot;&gt;端&lt;br style=&quot;font-size: 24px;&quot;&gt;口" style="rounded=0;whiteSpace=wrap;html=1;fillColor=none;strokeColor=none;fontSize=24;" parent="1" vertex="1">
          <mxGeometry x="2030" y="625" width="50" height="220" as="geometry" />
        </mxCell>
        <mxCell id="uO17ehAxNxv0Zf3d8ahg-431" value="" style="shape=flexArrow;endArrow=classic;html=1;rounded=0;" parent="1" edge="1">
          <mxGeometry width="50" height="50" relative="1" as="geometry">
            <mxPoint x="1020" y="750" as="sourcePoint" />
            <mxPoint x="1130" y="580" as="targetPoint" />
            <Array as="points">
              <mxPoint x="1020" y="580" />
            </Array>
          </mxGeometry>
        </mxCell>
        <mxCell id="uO17ehAxNxv0Zf3d8ahg-432" value="" style="shape=flexArrow;endArrow=classic;html=1;rounded=0;" parent="1" edge="1">
          <mxGeometry width="50" height="50" relative="1" as="geometry">
            <mxPoint x="1610" y="930" as="sourcePoint" />
            <mxPoint x="1405" y="1100" as="targetPoint" />
            <Array as="points">
              <mxPoint x="1405" y="930" />
            </Array>
          </mxGeometry>
        </mxCell>
        <mxCell id="uO17ehAxNxv0Zf3d8ahg-433" value="" style="shape=flexArrow;endArrow=classic;html=1;rounded=0;" parent="1" edge="1">
          <mxGeometry width="50" height="50" relative="1" as="geometry">
            <mxPoint x="2595" y="960" as="sourcePoint" />
            <mxPoint x="2100" y="1130" as="targetPoint" />
            <Array as="points">
              <mxPoint x="2595" y="1130" />
            </Array>
          </mxGeometry>
        </mxCell>
        <mxCell id="uO17ehAxNxv0Zf3d8ahg-436" value="&lt;span style=&quot;text-wrap: nowrap; background-color: rgb(255, 255, 255);&quot;&gt;&lt;font style=&quot;font-size: 8px;&quot;&gt;≥ 0clk&lt;/font&gt;&lt;/span&gt;" style="shape=crossbar;whiteSpace=wrap;html=1;rounded=1;verticalAlign=top;labelPosition=center;verticalLabelPosition=top;align=center;" parent="1" vertex="1">
          <mxGeometry x="1259.5" y="1125" width="110.5" height="10" as="geometry" />
        </mxCell>
        <mxCell id="uO17ehAxNxv0Zf3d8ahg-440" value="&lt;span style=&quot;text-wrap: nowrap; background-color: rgb(255, 255, 255);&quot;&gt;&lt;font style=&quot;font-size: 8px;&quot;&gt;≥ 0clk&lt;/font&gt;&lt;/span&gt;" style="shape=crossbar;whiteSpace=wrap;html=1;rounded=1;verticalAlign=top;labelPosition=center;verticalLabelPosition=top;align=center;" parent="1" vertex="1">
          <mxGeometry x="1679.5" y="1125" width="110.5" height="10" as="geometry" />
        </mxCell>
        <mxCell id="uO17ehAxNxv0Zf3d8ahg-442" value="" style="shape=flexArrow;endArrow=classic;html=1;rounded=0;" parent="1" edge="1">
          <mxGeometry width="50" height="50" relative="1" as="geometry">
            <mxPoint x="1189.5" y="1130" as="sourcePoint" />
            <mxPoint x="1020" y="990" as="targetPoint" />
            <Array as="points">
              <mxPoint x="1020" y="1130" />
            </Array>
          </mxGeometry>
        </mxCell>
        <mxCell id="uO17ehAxNxv0Zf3d8ahg-444" value="" style="endArrow=classic;html=1;rounded=0;exitX=1;exitY=1;exitDx=0;exitDy=0;entryX=0;entryY=0;entryDx=0;entryDy=0;" parent="1" source="uO17ehAxNxv0Zf3d8ahg-325" target="uO17ehAxNxv0Zf3d8ahg-334" edge="1">
          <mxGeometry width="50" height="50" relative="1" as="geometry">
            <mxPoint x="1370" y="770" as="sourcePoint" />
            <mxPoint x="1420" y="720" as="targetPoint" />
          </mxGeometry>
        </mxCell>
        <mxCell id="uO17ehAxNxv0Zf3d8ahg-445" value="" style="endArrow=classic;html=1;rounded=0;exitX=1;exitY=1;exitDx=0;exitDy=0;entryX=0;entryY=0;entryDx=0;entryDy=0;" parent="1" source="uO17ehAxNxv0Zf3d8ahg-328" target="uO17ehAxNxv0Zf3d8ahg-335" edge="1">
          <mxGeometry width="50" height="50" relative="1" as="geometry">
            <mxPoint x="1259" y="710" as="sourcePoint" />
            <mxPoint x="1269" y="720" as="targetPoint" />
          </mxGeometry>
        </mxCell>
        <mxCell id="uO17ehAxNxv0Zf3d8ahg-446" value="" style="endArrow=classic;html=1;rounded=0;exitX=1;exitY=1;exitDx=0;exitDy=0;entryX=0;entryY=0;entryDx=0;entryDy=0;" parent="1" source="uO17ehAxNxv0Zf3d8ahg-329" target="uO17ehAxNxv0Zf3d8ahg-336" edge="1">
          <mxGeometry width="50" height="50" relative="1" as="geometry">
            <mxPoint x="1319" y="710" as="sourcePoint" />
            <mxPoint x="1329" y="720" as="targetPoint" />
          </mxGeometry>
        </mxCell>
        <mxCell id="uO17ehAxNxv0Zf3d8ahg-447" value="" style="endArrow=classic;html=1;rounded=0;exitX=1;exitY=1;exitDx=0;exitDy=0;entryX=0;entryY=0;entryDx=0;entryDy=0;" parent="1" source="uO17ehAxNxv0Zf3d8ahg-330" target="uO17ehAxNxv0Zf3d8ahg-337" edge="1">
          <mxGeometry width="50" height="50" relative="1" as="geometry">
            <mxPoint x="1379" y="710" as="sourcePoint" />
            <mxPoint x="1389" y="720" as="targetPoint" />
          </mxGeometry>
        </mxCell>
        <mxCell id="uO17ehAxNxv0Zf3d8ahg-448" value="" style="endArrow=classic;html=1;rounded=0;exitX=1;exitY=1;exitDx=0;exitDy=0;entryX=0;entryY=0;entryDx=0;entryDy=0;" parent="1" source="uO17ehAxNxv0Zf3d8ahg-332" target="uO17ehAxNxv0Zf3d8ahg-339" edge="1">
          <mxGeometry width="50" height="50" relative="1" as="geometry">
            <mxPoint x="1389" y="720" as="sourcePoint" />
            <mxPoint x="1399" y="730" as="targetPoint" />
          </mxGeometry>
        </mxCell>
        <mxCell id="uO17ehAxNxv0Zf3d8ahg-449" value="" style="endArrow=classic;html=1;rounded=0;exitX=1;exitY=1;exitDx=0;exitDy=0;entryX=0;entryY=0;entryDx=0;entryDy=0;" parent="1" source="uO17ehAxNxv0Zf3d8ahg-360" target="uO17ehAxNxv0Zf3d8ahg-367" edge="1">
          <mxGeometry width="50" height="50" relative="1" as="geometry">
            <mxPoint x="1399" y="730" as="sourcePoint" />
            <mxPoint x="1409" y="740" as="targetPoint" />
          </mxGeometry>
        </mxCell>
        <mxCell id="uO17ehAxNxv0Zf3d8ahg-450" value="" style="endArrow=classic;html=1;rounded=0;exitX=1;exitY=1;exitDx=0;exitDy=0;entryX=0;entryY=0;entryDx=0;entryDy=0;" parent="1" source="uO17ehAxNxv0Zf3d8ahg-362" target="uO17ehAxNxv0Zf3d8ahg-368" edge="1">
          <mxGeometry width="50" height="50" relative="1" as="geometry">
            <mxPoint x="1409" y="740" as="sourcePoint" />
            <mxPoint x="1419" y="750" as="targetPoint" />
          </mxGeometry>
        </mxCell>
        <mxCell id="uO17ehAxNxv0Zf3d8ahg-451" value="" style="endArrow=classic;html=1;rounded=0;exitX=1;exitY=1;exitDx=0;exitDy=0;entryX=0;entryY=0;entryDx=0;entryDy=0;" parent="1" source="uO17ehAxNxv0Zf3d8ahg-363" target="uO17ehAxNxv0Zf3d8ahg-369" edge="1">
          <mxGeometry width="50" height="50" relative="1" as="geometry">
            <mxPoint x="1419" y="750" as="sourcePoint" />
            <mxPoint x="1429" y="760" as="targetPoint" />
          </mxGeometry>
        </mxCell>
        <mxCell id="uO17ehAxNxv0Zf3d8ahg-452" value="" style="endArrow=classic;html=1;rounded=0;exitX=1;exitY=1;exitDx=0;exitDy=0;entryX=0;entryY=0;entryDx=0;entryDy=0;" parent="1" source="uO17ehAxNxv0Zf3d8ahg-364" target="uO17ehAxNxv0Zf3d8ahg-370" edge="1">
          <mxGeometry width="50" height="50" relative="1" as="geometry">
            <mxPoint x="1740" y="710" as="sourcePoint" />
            <mxPoint x="1750" y="720" as="targetPoint" />
          </mxGeometry>
        </mxCell>
        <mxCell id="uO17ehAxNxv0Zf3d8ahg-453" value="" style="endArrow=classic;html=1;rounded=0;exitX=1;exitY=1;exitDx=0;exitDy=0;entryX=0;entryY=0;entryDx=0;entryDy=0;" parent="1" source="uO17ehAxNxv0Zf3d8ahg-366" target="uO17ehAxNxv0Zf3d8ahg-372" edge="1">
          <mxGeometry width="50" height="50" relative="1" as="geometry">
            <mxPoint x="1750" y="720" as="sourcePoint" />
            <mxPoint x="1760" y="730" as="targetPoint" />
          </mxGeometry>
        </mxCell>
        <mxCell id="uO17ehAxNxv0Zf3d8ahg-454" value="" style="endArrow=classic;html=1;rounded=0;exitX=1;exitY=1;exitDx=0;exitDy=0;entryX=0;entryY=0;entryDx=0;entryDy=0;" parent="1" source="uO17ehAxNxv0Zf3d8ahg-392" target="uO17ehAxNxv0Zf3d8ahg-398" edge="1">
          <mxGeometry width="50" height="50" relative="1" as="geometry">
            <mxPoint x="1760" y="730" as="sourcePoint" />
            <mxPoint x="1770" y="740" as="targetPoint" />
          </mxGeometry>
        </mxCell>
        <mxCell id="uO17ehAxNxv0Zf3d8ahg-456" value="" style="endArrow=classic;html=1;rounded=0;exitX=1;exitY=1;exitDx=0;exitDy=0;entryX=0;entryY=0;entryDx=0;entryDy=0;" parent="1" source="uO17ehAxNxv0Zf3d8ahg-394" target="uO17ehAxNxv0Zf3d8ahg-399" edge="1">
          <mxGeometry width="50" height="50" relative="1" as="geometry">
            <mxPoint x="2211" y="710" as="sourcePoint" />
            <mxPoint x="2221" y="720" as="targetPoint" />
          </mxGeometry>
        </mxCell>
        <mxCell id="uO17ehAxNxv0Zf3d8ahg-457" value="" style="endArrow=classic;html=1;rounded=0;exitX=1;exitY=1;exitDx=0;exitDy=0;entryX=0;entryY=0;entryDx=0;entryDy=0;" parent="1" source="uO17ehAxNxv0Zf3d8ahg-395" target="uO17ehAxNxv0Zf3d8ahg-400" edge="1">
          <mxGeometry width="50" height="50" relative="1" as="geometry">
            <mxPoint x="2221" y="720" as="sourcePoint" />
            <mxPoint x="2231" y="730" as="targetPoint" />
          </mxGeometry>
        </mxCell>
        <mxCell id="uO17ehAxNxv0Zf3d8ahg-458" value="" style="endArrow=classic;html=1;rounded=0;exitX=1;exitY=1;exitDx=0;exitDy=0;entryX=0;entryY=0;entryDx=0;entryDy=0;" parent="1" source="uO17ehAxNxv0Zf3d8ahg-396" target="uO17ehAxNxv0Zf3d8ahg-401" edge="1">
          <mxGeometry width="50" height="50" relative="1" as="geometry">
            <mxPoint x="2231" y="730" as="sourcePoint" />
            <mxPoint x="2241" y="740" as="targetPoint" />
          </mxGeometry>
        </mxCell>
        <mxCell id="uO17ehAxNxv0Zf3d8ahg-460" value="读取SRAM&lt;br&gt;页内容#k" style="rounded=1;whiteSpace=wrap;html=1;shadow=0;labelBackgroundColor=none;strokeWidth=1;fontFamily=Verdana;fontSize=8;align=center;" parent="1" vertex="1">
          <mxGeometry x="2450" y="660" width="50" height="40" as="geometry" />
        </mxCell>
        <mxCell id="uO17ehAxNxv0Zf3d8ahg-461" value="" style="endArrow=classic;html=1;rounded=0;exitX=1;exitY=1;exitDx=0;exitDy=0;entryX=0;entryY=0;entryDx=0;entryDy=0;" parent="1" source="uO17ehAxNxv0Zf3d8ahg-460" target="uO17ehAxNxv0Zf3d8ahg-403" edge="1">
          <mxGeometry width="50" height="50" relative="1" as="geometry">
            <mxPoint x="2391" y="710" as="sourcePoint" />
            <mxPoint x="2401" y="720" as="targetPoint" />
          </mxGeometry>
        </mxCell>
        <mxCell id="nSxpl0Ap6zL9CHNPe53o-1" value="读&lt;br&gt;取&lt;br&gt;请&lt;br&gt;求" style="rounded=0;whiteSpace=wrap;html=1;fillColor=none;strokeColor=none;fontSize=24;" vertex="1" parent="1">
          <mxGeometry x="2060" y="685" width="50" height="220" as="geometry" />
        </mxCell>
      </root>
    </mxGraphModel>
  </diagram>
</mxfile>
